<?xml version="1.0" encoding="UTF-8"?>
<svg id="Layer_1" xmlns="http://www.w3.org/2000/svg" version="1.1" xmlns:xlink="http://www.w3.org/1999/xlink" viewBox="0 0 159.8 64.2">
  <!-- Generator: Adobe Illustrator 29.0.0, SVG Export Plug-In . SVG Version: 2.1.0 Build 186)  -->
  <defs>
    <style>
      .st0 {
        fill: url(#linear-gradient2);
      }

      .st1 {
        fill: #fff;
      }

      .st2 {
        fill: url(#linear-gradient1);
      }

      .st3 {
        fill: #231f20;
      }

      .st4 {
        fill: #37c90a;
      }

      .st5 {
        fill: url(#linear-gradient);
      }
    </style>
    <linearGradient id="linear-gradient" x1="126.3" y1="24.2" x2="126.5" y2="29.2" gradientUnits="userSpaceOnUse">
      <stop offset=".6" stop-color="#53db1a"/>
      <stop offset=".7" stop-color="#39c709"/>
    </linearGradient>
    <linearGradient id="linear-gradient1" x1="64.3" y1="4.1" x2="65.7" y2="40.7" xlink:href="#linear-gradient"/>
    <linearGradient id="linear-gradient2" x1="134.8" y1="11" x2="137.7" y2="36.1" xlink:href="#linear-gradient"/>
  </defs>
  <g>
    <path d="M145.1,46.8c-.3,0-.5-.2-.8-.4h0c-.3-.2-.6-.4-.9-.5h-.3c-.1-.2-.3-.3-.3-.4,0,0,0,0,0,0-.2,0-.3-.1-.4-.2-.1,0-.3,0-.5-.2s-.2-.1-.3-.2c0,0-.2,0-.3,0-.1,0-.4-.3-.5-.4,0,0-.1,0-.2,0,0,0-.3,0-.7-.5-.1,0-.2,0-.3,0-.2,0-.3-.2-.4-.3,0,0-.1,0-.1,0-.4,0-.5-.4-.6-.6-.4,0-.6-.4-.7-.6,0,0-.1,0-.2,0-.3-.2-.4-.4-.5-.7-.3,0-.5-.3-.7-.7,0,0-.2-.1-.3-.3,0,0,0,0-.1,0-.2-.1-.4-.3-.5-.4,0,0,0,0,0,0,0,.2,0,.3-.1.4,0,0,0,.2,0,.3,0,.2,0,.4-.1.5,0,.5-.1.7-.2,1.2v.4c-.2.5-.3.9-.3,1.3,0,.4-.4.7-.7.7h-.1c-.4,0-.7-.3-.7-.6,0-.3-.1-.6-.2-.8v-.2c-.1-.2-.2-.5-.3-.7,0,0,0,0,0-.2-.1-.2-.2-.4-.3-.6,0,0,0-.2,0-.2,0,0-.2-.2-.2-.4,0-.1,0-.2,0-.3,0,0-.1-.2-.1-.3,0-.2,0-.4,0-.6-.2-.3-.1-.7,0-.9,0,0,0-.2,0-.3,0-.3,0-.5,0-.7,0,0,0,0,0,0-2.1,2.3-4.2,4.9-6.6,8.2,0,0,0,0,0,0-.2.2-.5.3-.6.3-.2,0-.5-.2-.7-.4-.3-.4-.2-.9-.1-1.1,0-.2.2-.4.5-.8h0c1.1-1.8,2.6-3.6,4-5.2.5-.5.9-1.1,1.4-1.6,0,0,0,0,0,0-.1,0-.3.2-.5.2s-.2,0-.2,0c0,0-.2,0-.3,0s-.1,0-.2,0c0,0,0,0-.1,0,0,0-.1,0-.2,0-.1,0-.3,0-.4,0,0,0-.2,0-.2,0-.1,0-.2,0-.4,0-.2,0-.4,0-.5-.2,0,0,0,0,0,0-.1,0-.2,0-.3,0s0,0-.1,0c-.1,0-.3,0-.4,0,0,0,0,0-.1,0s-.1,0-.1,0c-.2,0-.3-.1-.4-.2,0,0-.2,0-.2,0-.2,0-.3,0-.5,0-.2,0-.4,0-.6,0s0,0-.1,0c-.4,0-.6-.3-.7-.6,0-.5.2-.8.5-.9.2,0,.4-.2.6-.2.1,0,.2,0,.3-.1.5-.2,1-.4,1.4-.7,0,0,.2-.2.5-.3,0,0,.2,0,.3,0,0,0,.2,0,.3,0,.1-.1.4-.2.7-.2h0c0,0,.1,0,.2-.1,0,0-.2-.2-.3-.3-.3,0-.8-.2-1-.6-.2,0-.5,0-.6-.2-.1,0-.3-.2-.3-.4-.2,0-.4-.2-.6-.4-.2,0-.4-.2-.5-.4,0,0,0,0,0,0,0,0-.1,0-.2-.2,0,0-.1-.1-.1-.2-.1,0-.3,0-.5-.3,0-.1-.1-.2-.2-.3-.1,0-.2-.2-.3-.3,0,0-.2-.1-.2-.2-.1,0-.3-.2-.4-.3,0,0-.1-.2-.1-.3-.1,0-.2-.2-.3-.3,0-.1-.1-.2-.2-.3-.2,0-.4-.2-.5-.4,0,0,0-.2-.1-.3-.2-.1-.3-.2-.4-.4,0,0,0-.2,0-.2,0,0,0,0-.1-.1-.1-.1-.3-.2-.3-.3,0-.1-.2-.2-.3-.3,0,0,0-.1-.1-.2,0,0-.1-.1-.2-.2-.1-.1-.3-.3-.4-.5,0,0-.2-.3-.2-.7,0-.2.2-.4.3-.5.1,0,.3-.1.4-.1s.1,0,.2,0c.5.1,1,.3,1.4.5.3,0,.5.2.8.3,0,0,.2,0,.3,0,.1,0,.3.1.4.2,0,0,0,0,0,0,0,0,0,0,.2,0h0c.4,0,.6.2.8.3,0,0,0,0,0,0,0,0,.2,0,.3,0,.2,0,.3.1.4.3,0,0,0,0,0,0,.4,0,.9.3.9.3,0,0,0,0,.1.1.2,0,.3,0,.5.1.1,0,.2.2.3.3,0,0,.2,0,.3.1.2,0,.3,0,.5.2,0,0,.2.1.2.2h0c.4,0,.7.3,1,.6.1,0,.3,0,.4.1.2.1.3.3.4.5.1,0,.2.1.3.2,0,0,0,.1.1.2,0,0,0,0,0,0-.2-.2-.3-.5-.3-.8,0-.2,0-.3,0-.5,0-.1-.2-.3-.2-.3,0-.2-.3-.6-.3-.8,0,0,0-.3.2-.5,0,0,0,0,0-.1-.3-.7-.5-1-.5-1.4,0,0,0-.3.2-.5-.2-.5-.3-1,0-1.4l-.2-1.2c0-.1,0-.3,0-.4,0-.2.1-.3.2-.4-.1-.5-.2-.9,0-1.3,0,0,0,0,0,0,0-.1,0-.3,0-.4,0,0,0-.2.1-.2,0-.2,0-.3,0-.5,0-.2,0-.4.2-.6,0-.1-.1-.4,0-.7,0-.2.1-.4.2-.5,0-.2,0-.5.2-.7,0-.1,0-.3,0-.5,0-.2,0-.3.1-.4,0,0,0-.1,0-.2,0-.2,0-.3.1-.5,0-.3,0-.6.1-.9,0-.2,0-.4,0-.6,0-.5.4-.8.8-.8s.4,0,.6.2c.2.2.2.3.4,1,0,.2.1.4.1.5,0,.1,0,.2.1.3,0,.2.2.4.3.7,0,.1.2.3.3.5,0,0,0,.1,0,.2.1,0,.2.2.3.3,0,.2.1.4.2.6,0,0,.1,0,.2.1.2.2.2.5.2.9.2.2.3.5.3.9.1,0,.2.2.3.4,0,0,0,.2,0,.3,0,.2,0,.4,0,.5.1,0,.2.2.2.3.1.2.1.4.1.5,0,0,0,.1,0,.2,0,0,0,.3,0,.6h0c.2.2.3.4.4.7,0,0,0,.3,0,.9.1.1.2.3.2.5,0,.2,0,.5,0,.7.1.1.2.2.2.4,0,.3,0,.6-.2,1.2.3.3.2.8,0,1.4,0,0,.1.2.2.3,0,0,0,0,0,.1.1-.2.2-.2.2-.2,0,0,0,0,.1,0,.2-.5.3-1,.6-1.3.2-.2.4-.3.6-.4,0,0,0-.1,0-.2,0-.2.2-.5.2-.6,0,0,.4-.7.6-.8,0,0,.1,0,.2,0,.2-.7.5-1.5,1.1-1.6.4-.7.5-.9.7-1s.1,0,.2,0c.6-1.4,1.1-1.4,1.3-1.4s0,0,0,0c.2-.5.5-.8.8-1,.1,0,.3,0,.4,0s0,0,.1,0c.1-.2.2-.4.3-.5,0,0,.5-.6.7-.7,0,0,.2-.1.5-.2,0,0,0,0,0,0,.5-.5.7-.7.9-.7.6-.8.9-.8,1.1-.9,0,0,0,0,0,0l.3-.3s0,0,0,0c.1-.1.4-.2.5-.2h0c0,0,.4-.3.4-.3.3-.2.6-.5.9-.7.4-.3.8-.6,1.2-.9.2-.2.4-.5.9-.5h0c.3,0,.5.2.7.4.1.2.1.5,0,.8-.2.2-.3.5-.4.8,0,.1-.1.3-.2.4,0,0-.1.2-.2.3,0,0,0,.2,0,.3,0,.2-.2.3-.3.5,0,0,0,0,0,.1,0,0,0,.1,0,.2,0,.2-.1.4-.2.5,0,0,0,0,0,0,0,.4-.2.7-.4.9,0,.3,0,.6-.1.7,0,.2-.2.3-.5.6,0,0,0,0-.1.1,0,0,0,.2,0,.3,0,.2,0,.3-.2.4,0,0,0,0,0,.1,0,.2-.4.6-.5.8,0,.3,0,.6-.4.8,0,0,0,.1-.2.2,0,0-.2.2-.3.3,0,0,0,0,0,.1,0,.4,0,.7-.8,1.4,0,0,0,.2,0,.3,0,.1,0,.5-1,1.3,0,0,0,0-.1,0,0,.2-.1.5-.3.6,0,0-.1.1-.2.2-.1.1-.2.3-.3.4,0,0-.1,0-.2.1,0,0,0,0,0,.1,0,.2-.2.4-.3.5,0,0-.1,0-.2.1-.1,0-.2.2-.3.2-.1,0-.3.2-.5.2,0,0,0,0,0,0,0,0,0,.2,0,.3,0,.3-.4.5-.6.6-.1.1-.2.1-.3.2h0c0,.1-.2.2-.2.2,0,0,0,0,0,0,0,.3-.1.5-.2.6-.2.3-1.3.9-1.3.9,0,0,0,0,0,0,0,0,0,.2-.1.2,0,0,0,0,.1,0,.1,0,.3,0,.4.1.4-.2.6-.3.9-.3,0,0,0,0,0,0,.1,0,.3,0,.4.1,0,0,0,0,0,0,.6-.3.8-.4,1-.4,0,0,0,0,0,0,.1,0,.3,0,.4.1.1,0,.2,0,.3-.1.1,0,.3,0,.4,0s.4,0,.5.1c.1,0,.3,0,.4-.1,0,0,.2,0,.3,0,0,0,.1,0,.2,0s0,0,0,0c.2,0,.4.1.6.3.2,0,.4-.1.7-.1s.2,0,.4,0c.2,0,.3.1.4.2.2,0,.4,0,.7,0s.1,0,.1,0c.2,0,.4,0,.5.2,0,0,.2,0,.2,0,.2,0,.3,0,.5,0,.1,0,.2,0,.3.2.1,0,.3,0,.4,0,.4,0,.6.1.8.3.4,0,.8.1,1,.3,0,0,0,0,0,0,0,0,.1,0,.2,0s.1,0,.2,0c.4,0,.7.1,1.1.2.4,0,.7.2,1.1.2h0c.3,0,.5.1.6.3.1.2.2.5,0,.8-.2.5-.7.6-1,.6-.3,0-.5.2-.8.2-.3.1-.7.2-1,.3-.1,0-.2,0-.3,0-.2.1-.4.3-.7.4,0,0,0,0-.1,0-.3.2-.5.2-.6.3,0,0-.2.2-.3.2-.2,0-.4,0-.6.1,0,0-.1,0-.1,0-.1.1-.3.3-.5.3,0,0-.2,0-.3,0-.3.3-.7.3-1.1.3s0,0,0,0c-.1.2-.3.3-.4.3-.1,0-.3,0-.5,0s-.3,0-.4,0c-.1.1-.2.2-.3.2-.2,0-.4.1-.6.1s-.3,0-.4,0c-.1.1-.3.2-.4.2,0,0,0,0-.1,0s0,0-.1,0h-.5c-.1,0-.3.1-.4.1,0,0,0,0-.1,0,0,0-.2,0-.2,0l-.7-.2c-.1.1-.3.2-.5.2s-.1,0-.1,0c-.2,0-.5,0-.8-.2-.1.1-.3.2-.5.2s-.1,0-.2,0c-.1,0-.2,0-.3,0-.1,0-.2,0-.4,0,0,0,0,0,0,0,0,0,0,.1,0,.2,0,0,0,0,0,0,0,0,.2.1.2.2.1,0,.4.1.5.3.1.1.2.2.2.3,0,0,0,0,.1,0,.2,0,.3.2.4.4,0,0,0,.1,0,.2.2.1.4.2.5.4,0,.1.1.2.1.3.1,0,.3.2.4.4,0,0,0,.2.1.3h0c.1,0,.3.2.3.3,0,.1,0,.2.1.3,0,0,.1.1.2.2.3.3.4.4.5.6,0,0,0,.1,0,.2.1.1.3.3.4.5,0,0,0,.1,0,.2.2.1.3.2.4.4,0,0,0,.1,0,.2.1.1.3.3.3.5,0,0,0,0,0,0,0,0,0,0,0,0,0,.1.1.3.2.4.2.3.3.5.5.7.1.2.3.4.4.6.2.2.2.5.2.8,0,.1,0,.2-.2.3-.1.1-.3.2-.6.2Z"/>
    <path d="M130.4,13.1s0,0,0,0c0,0,.3,1,.4,1.2.2.4.3.7.4,1.1,0,.1.2.2.2.4,0,.1,0,.3,0,.4,0,.1.2,0,.3.2.1.2.1.8.2.9,0,0,0,0,.1,0s.1,0,.1,0,0,0,0,0c0,0,0,.9,0,.9,0,0,0,0,0,0,0,0,0,0,0,0s0,0,0,0c.2.1.1,1,.2,1.1,0,0,0,0,0,0,0,0,.1-.1.2-.1s0,0,.1.1c0,.2,0,1.1.1,1.2,0,0,0,0,0,0,0,0,.1,0,.2,0s0,0,0,0c0,0,0,.2,0,.3,0,0,0,.1,0,.1,0,.2,0,1.3,0,1.3,0,0,0,0,0,0,0,0,.2-.1.3-.1s0,0,0,.1c0,.2,0,.6,0,.7,0,.2-.2.6,0,.6s0,0,.2,0c0,.4,0,.8-.1,1.2,0,0,0,0,0,0,0,0,.2,0,.3,0s0,0,0,0c0,.2-.4,1.2-.5,1.4,0,0,0,0,.1,0s.1,0,.2,0,0,0,0,0c.1,0-.3,1.3-.3,1.5,0,0,0,0,0,0,0,0,.2-.1.3-.1s0,0,0,0c.1.4-.2,1.2-.3,1.6,0,0,0,0,0,0s0,0,.1,0,0,0,0,0c0,.6-.2,1.1-.4,1.6,0,0,0,0,0,0,.1,0,.2-.2.2-.2,0,0,0,0,0,0,0,0,0,0,0,0,0,.1-.1.4-.2.6,0,.1-.7,1.6-.5,1.6l.4-.7c.3-.8.4-1.6.7-2.4,0,0,0,0,0,0,.1,0,0,.2.1.2,0,0,0,0,0,0,0,0,.1-.3.2-.4.1-.3.3-.8.5-1.1,0,0,.2-.5.3-.5,0,0,0,0,0,0,0,0,.1,0,.2,0s0,0,0,0c.2-.4.4-1.3.7-1.6,0,0,.1-.1.2-.1,0,0,.1,0,.2,0s0,0,0,0c.2-.1.4-.9.5-1.2,0,0,.4-.5.4-.6,0,0,0,0,0,0,0,0,.1.2.2.2s0,0,0,0c.1-.3.4-1.7.7-1.7,0,0,0,0,0,0,0,0,0,.1.1.2,0,0,0,0,0,0s0,0,0,0c0-.1.2-.4.2-.5,0-.1.4-.7.4-.7,0,0,0,0,0,0,.1,0,.2.2.3.2s0,0,0,0c0,0,0-.3.1-.4,0-.2.6-1.1.7-1.1,0,0,.2.3.3.3s0,0,0,0c.1,0,.5-1.2.9-1.3,0,0,0,0,0,0,.1,0,.2.3.4.3s0,0,0,0c0,0,.5-.9.6-1.1,0-.1.4-.5.5-.6,0,0,0,0,.1,0s0,0,0,0c0,0,0,.2,0,.2s0,0,0,0c0,0,.4-.5.4-.6,0,0,.5-.5.6-.5s0,0,0,0c0,0,.1,0,.2,0s0,0,0,0c0,0,.1-.3.2-.3,0-.1.5-.6.6-.6,0,0,0,0,0,0,0,0,.1,0,.2,0s0,0,0,0l.6-.6s0,0,0,0c0,0,.1,0,.2,0,0,0,0,0,0,0,0,0,.6-.5.7-.6.7-.5,1.4-1,2.1-1.6.1-.1.2-.3.5-.3-.3.4-.4.8-.6,1.2,0,.1-.2.3-.2.3,0,.1,0,.2,0,.4,0,.1-.2.3-.3.4,0,.2-.2.6-.3.8,0,0-.2.2-.2.3,0,0,0,.1,0,.2,0,.2-.4.5-.5.7,0,.1.2.3,0,.5,0,.2-.8.8-.8.9,0,0,0,.2,0,.3,0,.1-.2.1-.2.2,0,0,0,.1,0,.2,0,.1-.4.5-.4.6,0,0-.2.1-.2.2-.1.2,0,.1,0,.2,0,.2,0,.2-.1.3,0,0,0,.2-.2.3-.1.2-.6.6-.7.7,0,.2.2.3.2.4,0,.1-.8.9-1,1,0,0-.1,0-.2,0-.2.2.3.2.3.4,0,0-.6.7-.7.7,0,0-.6.4-.6.4,0,0,.1.2.2.3-.2.2-.4.5-.6.6-.2.2-.8.3-.4.7-.1,0-.3.3-.5.4-.2.1-.5.2-.8.4,0,0-.3,0-.3.1,0,.2.2.3.3.5,0,0-.3.2-.4.2-.1.1-.2.1-.3.2-.3.2-.5.4-.8.6,0,.1.3.2.2.5,0,0-.9.6-1,.7,0,0-.2,0-.2.1,0,0-.2,0-.2,0,0,0,0,.2,0,.2,0,0-.1.3-.1.3-.1.1-.9.7-1.1.8,0,0-.5.2-.5.2,0,0,0,.2,0,.2,0,.2-.3.4-.4.4,0,0-.7.3-.6.4,0,0,0,0,0,0,.5,0,1.3-.7,1.7-.7s0,0,0,0c0,0,0,.1,0,.2,0,0,0,0,0,0,.2,0,.5-.3.6-.3.2,0,.6-.2.8-.3,0,0,0,0,0,0,.1,0,0,.3,0,.3,0,0,0,0,0,0,.1,0,.5-.2.6-.3.2,0,.5-.2.7-.2,0,0,0,0,0,0,.2,0,0,.3.2.3s0,0,0,0c0,0,.4-.3.5-.3.1,0,.6-.3.7-.3,0,0,0,0,0,0,.2,0,0,.3.1.3s0,0,0,0c.1,0,.6-.3.8-.3,0,0,.2,0,.2,0s.1,0,.1,0c0,0,0,.3,0,.3s0,0,0,0c.1,0,.3-.2.4-.2.2,0,.5-.1.8-.2.1,0,.2.3.2.4.4,0,.7-.3,1.1-.3s.1,0,.2,0v.4c.4-.1.8-.2,1.2-.2s0,0,0,0v.3c.2,0,.5,0,.7,0s.2,0,.2,0c.1,0,0,.2.1.3,0,0,0,0,.1,0,.2,0,.5,0,.7,0s.4,0,.3.3c.1,0,.3,0,.5,0,.2,0,.5,0,.6.1,0,0,0,.2.2.2,0,0,0,0,0,0,.1,0,.3,0,.4,0s0,0,0,0c.7,0,1.4.3,2.2.4,0,0,0,0,0,0,0,0,0,0,0,0,0,0,0,0,0,0,0,.1-.4.1-.5.2-.6.2-1.2.4-1.7.5-.2,0-.3,0-.5,0,0,0-.2.3-.5.3,0,0-.1,0-.2,0s0,0,0,0c0,0,0,0-.2.1-.3.2-.3.1-.6.2,0,0-.2.2-.2.3-.3,0-.7,0-.9.2,0,0-.1.2-.3.2-.1,0-.6,0-.7,0,0,0,0,.2,0,.2,0,0-.3,0-.5,0s-.3,0-.3,0c0,0-.2,0-.3,0,0,0,0,0,0,0-.1,0,0,.4,0,.5,0,0-.1,0-.2,0-.3,0-.8-.1-1-.2,0,.2.2.4,0,.5,0,0-.2,0-.3,0-.3,0-.8-.2-1-.3,0,.1.2.4,0,.5l-1.1-.2c0,.1.1.3,0,.3l-1.5-.5c0,.1,0,.3,0,.4,0,0,0,0,0,0s0,0,0,0c-.5,0-1-.2-1.4-.4,0,0,0,0,0,0-.1,0,.1.4,0,.4-.3,0-.6,0-.9-.2-.1,0-.5-.2-.5-.2,0,0,0,0,0,0-.1,0,0,.3-.1.3s0,0,0,0l-1.3-.5h-.2s0,.1,0,.2c0,0,0,0-.1,0-.2,0-.8-.3-.9-.3,0,0,0,0,0,0-.2.2.6.4.7.5.2.1.6.3.8.5,0,0,.2,0,.1.1,0,0-.2,0,0,.2,0,0,.2,0,.2,0,.1,0,.8.3.9.4,0,0-.1.2,0,.3.2,0,.3.1.5.2,0,0,0,.1.2.2,0,0,.3,0,.4.1,0,0,0,.2.1.2.1.2.5.3.5.4,0,0,0,.2,0,.2,0,0,.5.3.5.3,0,0,0,.2,0,.3,0,.1.4.3.5.5,0,.1.1.3.3.4,0,0,.1,0,.2,0,0,0,0,.1,0,.2.1.2.7.7.7.8,0,0,0,.1,0,.2,0,.1.4.3.5.5,0,.1,0,.2,0,.3,0,.1.3.2.4.4,0,0,0,.1,0,.2,0,0,.3.2.3.3,0,0,0,.1,0,.2,0,.2.1.1.2.3,0,.1.1.3.2.4.3.4.6.8.9,1.2,0,0,0,0,0,.2,0,0,0,0,0,0,0,0-.4-.3-.5-.4-.4-.2-.9-.4-1.3-.6-.1,0-.3-.2-.4-.3-.3,0-.3-.1-.4-.2-.1,0-.2,0-.4-.1-.1,0-.3-.3-.3-.3,0,0,0,0,0,0,0,0,0,0-.1,0s0,0,0,0c0,0-.4-.4-.5-.4,0,0,0-.2-.1-.2,0,0,0,0,0,0,0,0-.1.1-.2.1s0,0,0,0c0,0-.4-.3-.4-.4,0,0,0-.2,0-.2,0,0,0,0,0,0,0,0-.2,0-.3,0s0,0,0,0c-.1,0-.2-.4-.3-.5,0,0,0,0,0,0,0,0-.2,0-.2,0s0,0,0,0c-.2,0-.3-.5-.4-.5,0,0-.1,0-.2,0,0,0,0,0,0,0-.1,0-.2,0-.3-.3,0,0,0-.3,0-.3,0,0,0,0,0,0,0,0-.1,0-.2,0s0,0-.1,0c-.2-.1-.3-.7-.5-.8,0,0,0,0,0,0,0,0-.1,0-.2,0s0,0,0,0c-.2,0-.2-.3-.3-.4,0-.1-.2-.2-.3-.3,0,0,0-.3-.2-.3,0,0,0,0,0,0,0,0,0,0-.1,0s0,0,0,0c-.2,0-.2-.5-.4-.6,0,0,0,0,0,0,0,0,0,0,0,0s0,0,0,0c-.2,0-.4-.8-.5-.9v.2c-.1,0-.1,0-.1,0-.1,0-.1-.2-.2-.3-.2-.2-.3-.4-.5-.7,0-.2-.2-.9-.4-.9,0,0,0,0,0,0,0,0,0,0,0,.1,0,.3.3.7.3,1,0,.2,0,.4,0,.6,0,0,.2.3.2.4.2.4,0,.5,0,.8,0,.2.1.4,0,.7,0,.2-.1.3-.1.4,0,.1,0,.2,0,.3,0,.1-.1.3-.1.4,0,.5,0,.7-.2,1.2-.1.6-.3,1.2-.4,1.8h-.1c0-.3-.1-.6-.2-.9,0-.3-.2-.7-.3-1,0-.2-.3-.4-.3-.6,0-.1,0-.3,0-.4,0-.1-.2-.1-.2-.2,0-.1,0-.3,0-.4,0,0-.1-.1-.2-.2,0-.2.2-.6,0-.7,0,0,0,0-.1,0-.1-.2,0-.5,0-.7,0-.1-.1-.2-.1-.3,0-.2.1-.5.1-.7,0,0,0-.1,0-.2,0-.4.2-.8,0-1.2l.3-.8c-.1,0-.3.2-.4.3-2.9,3-5.4,6.3-7.9,9.6,0,0,0,0,0,0-.1,0-.1-.4,0-.5,0-.1.4-.6.5-.8,1.1-1.7,2.6-3.5,3.9-5,1-1.2,2.2-2.4,3.2-3.6-.2,0-.4.1-.5.2,0,0-.2,0-.3,0-.2,0-.3.2-.5.2s0,0-.1,0c0,0-.1,0-.2,0,0,0,0,0,0,0-.1,0-.4.3-.6.3s0,0,0,0c0,0-.1-.1-.2-.1,0,0,0,0,0,0-.1,0-.3.3-.5.3s0,0,0,0c0,0-.1-.1-.2-.1,0,0,0,0,0,0-.1,0-.2.2-.3.2s0,0,0,0c0,0-.1,0-.2,0,0,0,0,0,0,0,0,0-.1,0-.2,0,0,0,0,0-.1,0-.2,0-.5,0-.7,0,0,0,0,0,0,0-.1,0-.3,0-.4,0s0,0,0,0c0,0-.1,0-.2-.1-.1,0-.2,0-.3,0-.2,0-.3,0-.4,0s0,0,0,0c-.1,0-.2-.1-.3-.1,0,0,0,0,0,0,0,0-.1,0-.2,0s0,0,0,0c-.1,0-.3-.1-.4-.2-.1,0-.2,0-.3,0-.4,0-.7,0-1.1,0s0,0,0,0c0,0,0,0,0,0,.2-.1.6-.2.9-.3.5-.2,1.1-.5,1.6-.7,0,0,.1-.2.2-.2,0,0,0,0,0,0,0,0,0,0,.1,0s0,0,0,0c0,0,.1-.1.2-.1,0,0,0,0,0,0,0,0,.2,0,.3,0s0,0,0,0c0-.2,0-.3.2-.3s.2,0,.2,0,0,0,0,0c.1,0,0-.1.2-.2.1,0,.4,0,.5,0,.2,0,.5,0,.7,0,.1,0,.2-.1.4-.1h0c.1,0,.3.1.4.1s0,0,0,0c0,0,.1-.1.2-.1,0,0,0,0,0,0,0,0,0,0,.1,0,0,0,.1,0,.1,0-.3,0-.2,0-.3-.3,0,0-.1,0-.3,0s0,0-.1,0,0,0-.1,0c-.1,0-.6-.1-.6-.2,0-.1,0-.2,0-.3-.2-.1-.6,0-.9-.2-.2-.1,0-.2,0-.3,0-.1,0-.1,0-.1,0,0-.2,0-.2,0s0,0,0,0c-.1,0-.7-.2-.7-.3,0,0,.2-.2,0-.3,0,0-.8,0-.9-.1-.1,0,0-.2,0-.3,0-.2-.7-.1-.8-.3,0,0,0-.2,0-.2,0,0-.4,0-.4-.1,0,0,0-.2,0-.3,0,0-.2,0-.3-.1,0,0,0-.2-.1-.3,0,0-.5-.1-.5-.2,0,0,0-.3,0-.3,0,0-.1,0-.2,0-.3-.2-.5-.5-.8-.6,0,0,.2-.2.1-.3,0,0-.5-.2-.6-.3,0,0,0-.2,0-.3,0-.1-.5-.2-.6-.4,0,0,0-.2,0-.2,0,0-.4-.3-.5-.4,0,0,0-.2,0-.2,0-.1-.5-.4-.6-.6-.1-.1-.2-.3-.3-.5-.1-.2-.4-.4-.5-.6,0,0,0,0,0-.2.8.2,1.5.5,2.2.8,0,0,.2,0,.3,0,.1,0,.5.3.7.4,0,0,0,0,0,0,.1,0,.1,0,.2,0,0,0,0,0,0,0,.2,0,.4.4.6.4,0,0,0,0,0,0,0,0,.1,0,.2,0s0,0,0,0c.1,0,.4.4.5.4,0,0,0,0,0,0,0,0,.1,0,.2,0,0,0,0,0,0,0,0,0,.4.2.5.2,0,0,.2.3.2.3,0,0,0,0,0,0,0,0,.1,0,.2,0s0,0,.2,0c.1,0,.2.2.2.3,0,0,.2,0,.3,0,0,0,0,.2.1.2,0,0,0,0,0,0,0,0,0-.1.2-.1s.1,0,.2,0c.1,0,.4.5.4.5,0,0,0,0,0,0,0,0,.1-.1.1-.2,0,0,0,0,0,0,.2,0,.5.6.6.7,0,0,0,0,0,0,0,0,.1,0,.2,0s0,0,0,0c.2.1.2.4.3.5,0,0,0,0,0,0,0,0,0,0,.1,0s0,0,.1,0c0,0,.2.5.3.5h0c0-.1.1-.1.2-.1.1,0,.3.2.4.4,0,0,.2.4.2.4,0,0,0,0,0,0,0,0,0-.1.1-.1,0,0,0,0,0,0,.2,0,.5.8.8.8s0,0,0,0c0-.2,0-.3,0-.4,0-.1,0-.2,0-.3,0-.3-.7-.9-.7-1.2,0,0,.2,0,.1-.2,0-.2-.5-.6-.5-.9,0-.2.3,0,.3-.2,0-.1-.4-.6-.5-.8,0-.1-.2-.4-.2-.5,0-.1.3,0,.3-.1.1-.2-.8-1.5-.7-1.8,0-.2.3,0,.3-.2,0-.1-.5-1.1-.3-1.3,0,0,0,0,0,0,0,0,0,0,.1,0s0,0,0,0l-.3-1.8c0,0,0-.1,0-.1,0,0,.2.1.3.1s0,0,0,0c.1-.1-.4-1.3-.2-1.6,0,0,.1-.1.1-.2,0,0,0-.2,0-.4,0-.1.2,0,.2-.1,0-.2-.1-.6-.1-.8,0-.2.2-.4.2-.5,0-.2-.2-.4-.1-.7,0-.2.2-.2.3-.3,0-.1-.1-.3,0-.6,0,0,.1,0,.1,0,0-.2,0-.5,0-.7,0-.1.2-.3.2-.4,0,0,0-.2,0-.3,0-.1,0-.3.1-.4,0-.5,0-1,.1-1.5,0,0,0-.2,0-.2M131.5,32.6s0,0,0,0c0,0-.3-.4-.3-.5,0,0,0,0,0,0-.2,0,.1.4.2.5,0,0,0,0,0,0M150.5,13.4h0M130.4,11.6h0c-.8,0-1.5.6-1.6,1.5,0,.2,0,.4,0,.7,0,.2,0,.5,0,.7,0,.2-.1.4-.2.7,0,0,0,0,0,0,0,.1,0,.3-.1.4,0,.1,0,.3,0,.4,0,.2-.2.4-.2.7-.1.2-.2.4-.2.6,0,.3,0,.6,0,.8,0,.2-.1.4-.1.6,0,.1,0,.3,0,.4,0,0,0,0,0,0,0,.2,0,.4,0,.5-.2.4-.1.9,0,1.3,0,0-.1.2-.1.3,0,.2-.1.5,0,.7l.2.9c-.3.5-.2,1,0,1.5,0,.2-.1.3-.1.5,0,.5.2,1,.5,1.6,0,.2,0,.4,0,.6,0,0,0,.2,0,.2-.2,0-.3-.1-.5-.2,0,0,0,0-.1,0-.2-.1-.4-.2-.6-.3,0,0,0,0-.1,0-.1-.1-.2-.2-.4-.3-.2,0-.3-.1-.5-.2,0,0,0,0,0,0,0,0-.5-.3-1.1-.4-.1,0-.3-.2-.5-.2-.1,0-.2,0-.3,0-.2-.2-.6-.3-1-.3s0,0,0,0c-.1,0-.3-.2-.5-.2-.2,0-.3,0-.4,0-.2,0-.4-.2-.7-.2-.5-.2-1-.4-1.5-.5-.1,0-.3,0-.4,0-.3,0-.6,0-.8.2-.4.2-.6.6-.7,1,0,.4,0,.9.3,1.2.1.2.3.4.5.6,0,0,0,0,.1.1,0,0,0,0,0,0,0,.1.2.3.3.4.1.1.2.2.4.3,0,0,0,.1,0,.2.1.2.3.4.4.5,0,0,0,.2.1.2.2.3.4.4.6.6,0,0,.1.2.2.3,0,0,.2.2.3.3,0,.1.1.2.2.3.2.2.4.4.6.5,0,0,0,0,0,0,0,0,.1.1.2.2,0,.1.1.2.2.3.2.2.4.3.6.4,0,0,0,0,0,0,0,0,.1,0,.2.1.2.3.4.5.7.6.2.2.4.3.5.4.1.2.3.3.4.4.2.1.4.2.6.2-.3,0-.5.3-.6.4-.4.2-.9.4-1.3.6,0,0-.2,0-.3,0-.2,0-.5.1-.7.2-.7.3-1.1,1-.9,1.7.1.7.7,1.2,1.4,1.2h.1c.2,0,.4,0,.7,0,.1,0,.3,0,.4,0,.1,0,.3.1.6.2,0,0,.2,0,.2,0,.1,0,.3,0,.4,0,0,0,.1,0,.2,0,0,0,.2,0,.3,0,.2,0,.3.1.5.1,0,0,0,0,.1,0,.2,0,.4,0,.5,0,0,0,0,0,0,0,.1,0,.3,0,.4,0,0,0,0,0-.1.1-1.4,1.7-2.9,3.5-4,5.2h0c-.3.6-.5.9-.6,1.1-.2.5-.2,1.3.2,1.8.3.4.8.7,1.3.7s.8-.2,1.1-.5c0,0,.1-.1.2-.2,1.9-2.5,3.6-4.7,5.2-6.6,0,0,0,0,0,0,0,.2,0,.4,0,.6,0,.1,0,.3.1.4,0,0,0,.2,0,.3,0,.2.1.4.2.6,0,0,0,0,0,0,0,.4.2.6.4.8,0,0,0,0,0,0,0,.2.1.4.2.6v.2c.1.2.2.4.2.7.1.7.7,1.3,1.5,1.3h.1s0,0,0,0c.8,0,1.4-.6,1.5-1.4,0-.4.1-.8.2-1.2v-.4c.2-.4.2-.6.3-1,.2.2.3.3.5.4.2.3.4.5.7.7,0,0,0,0,0,0,.2.3.5.5.7.6.2.2.5.5.9.6.1.1.3.2.5.3,0,0,.2,0,.3.1.4.5.7.5.9.6,0,0,0,0,0,0,.2.2.4.3.6.4,0,0,.2,0,.2,0,0,0,.2.1.2.2.2.1.4.2.6.2,0,0,.2,0,.3.1.1,0,.3.2.5.3h.3c.3.3.6.4.8.5h0c.3.3.7.6,1.3.6s.8-.2,1.1-.5c.2-.2.3-.4.4-.7,0-.3.1-.9-.3-1.4-.1-.2-.3-.4-.4-.6-.1-.2-.2-.3-.4-.5,0-.1-.1-.3-.2-.4,0-.3-.2-.5-.4-.7,0,0,0,0,0,0-.1-.2-.3-.4-.4-.6,0,0,0,0,0,0-.1-.2-.3-.4-.4-.6,0,0,0,0,0,0-.1-.3-.4-.6-.7-.9,0,0,0,0,0,0,0-.1,0-.2-.2-.3,0-.1-.2-.3-.4-.4,0,0,0-.1,0-.2,0-.1-.2-.3-.3-.4,0-.1,0-.2-.2-.3-.2-.3-.4-.4-.5-.5,0,0-.1-.2-.2-.2,0,0,.1,0,.2,0,.2,0,.5,0,.7-.1h.4c.2.2.3.2.5.2s.2,0,.2,0c.2,0,.4,0,.5-.2h.2c0,0,.1,0,.2,0s.2,0,.3,0c.2,0,.3,0,.5-.2,0,0,.1,0,.2,0,.4,0,.7,0,1-.2,0,0,.1,0,.2-.1,0,0,.1,0,.2,0,.3,0,.5,0,.7-.1.2,0,.4-.2.5-.3.4,0,.9,0,1.2-.4,0,0,.1,0,.2,0,.3,0,.5-.2.7-.3.2,0,.4,0,.7-.1.2,0,.3-.2.4-.3.2,0,.4-.1.6-.3.4,0,.6-.2.8-.4,0,0,.1,0,.2,0,.4,0,.7-.2,1.1-.3.2,0,.4-.1.6-.2.8-.1,1.4-.5,1.6-1.1.2-.5.1-1-.2-1.4-.3-.4-.8-.7-1.3-.7s0,0,0,0c-.3,0-.6-.1-.9-.2-.4,0-.8-.2-1.2-.2,0,0-.2,0-.2,0-.3-.2-.6-.3-1-.3-.2-.2-.6-.3-1.1-.3s-.2,0-.2,0c-.1,0-.2,0-.3-.1-.2,0-.4-.1-.7-.1-.2-.1-.4-.2-.7-.2,0,0-.1,0-.2,0-.2,0-.3,0-.5,0-.1,0-.3-.1-.4-.2-.2,0-.3,0-.5,0s-.3,0-.5,0c-.2-.1-.4-.2-.7-.2,0,0,0,0,0,0-.1,0-.3,0-.4,0,0,0-.2,0-.2,0,0,0-.1,0-.2,0-.2,0-.4,0-.6,0-.3,0-.5,0-.6.1,0,0,0,0-.1,0-.1,0-.3,0-.4,0s0,0-.1,0c-.2,0-.4,0-.6.2,0-.1,0-.2.1-.4h0c0,0,.1-.1.2-.2h0c.3-.2.8-.4.9-1.1,0,0,.1,0,.2-.1.2,0,.3-.2.4-.3,0,0,0,0,.1,0,.3-.2.5-.5.6-.8.2-.1.3-.3.4-.4,0,0,0,0,.1-.1.3-.2.4-.5.5-.8,1.1-1,1.1-1.5,1.1-1.8.5-.5.8-1,.8-1.5,0,0,0,0,0-.1,0,0,.1-.2.2-.2.3-.3.5-.7.5-1.1.2-.3.4-.6.5-.8,0,0,0,0,0,0,.2-.2.2-.5.3-.7,0,0,0,0,0,0,.2-.2.4-.4.5-.6.1-.2.3-.5.2-.9.2-.2.3-.5.3-.9.1-.2.2-.4.2-.6,0,0,0,0,0,0,.1-.2.3-.4.4-.7,0-.1,0-.2,0-.3,0,0,0-.1.1-.2,0-.1.1-.3.2-.4.1-.2.2-.4.3-.6.2-.2.3-.6.3-.9,0-.8-.7-1.5-1.5-1.5h0s0,0,0,0h0s0,0,0,0c0,0,0,0,0,0,0,0,0,0,0,0,0,0,0,0,0,0-.8,0-1.3.5-1.4.7-.4.3-.7.6-1.1.8-.3.2-.6.5-1,.7,0,0-.1.1-.3.2-.3,0-.5.2-.7.4,0,0-.1,0-.2.2v.2c-.4,0-.8.3-1.3.9-.3.1-.6.4-1,.7-.2,0-.4.2-.5.2-.4.3-.9.9-.9.9,0,0,0,.1-.1.2-.1,0-.3,0-.4.1-.4.2-.7.6-1,1-.4.1-.9.5-1.4,1.5,0,0,0,0,0,0-.3.2-.6.4-.9,1-.7.3-1,1-1.2,1.7-.4.3-.9,1.1-.9,1.1,0,.2-.2.3-.2.5,0,0-.2.1-.3.2,0-.3,0-.6,0-.9,0-.2,0-.3-.2-.4,0-.2,0-.4,0-.6,0-.2,0-.4-.2-.6,0-.4,0-.6,0-.8,0-.3-.2-.6-.4-.8,0-.2,0-.3,0-.4,0,0,0-.2,0-.3,0-.2,0-.5-.2-.7,0,0,0-.2-.2-.2,0,0,0,0,0-.1h0c0-.3,0-.5-.1-.6,0-.2-.2-.3-.3-.5,0-.3-.1-.5-.3-.8,0-.4,0-.8-.5-1.2,0,0,0,0,0,0,0-.2-.1-.4-.2-.6,0-.1-.2-.3-.3-.4,0-.3-.2-.5-.3-.6,0-.2-.2-.4-.2-.6,0-.1,0-.2-.1-.3,0,0,0-.2-.1-.4-.2-.7-.3-1-.6-1.3-.3-.3-.7-.4-1.1-.4h0Z"/>
  </g>
  <g>
    <path class="st4" d="M27.9,51.3c.6,0,1.1.2,1.4.6.3.4.5.8.5,1.4v1.2c0,.5-.2,1-.6,1.4s-.8.6-1.4.6h-.7v3h-1.2v-8.1h1.9,0ZM28.7,53.3c0-.2,0-.4-.2-.5s-.3-.2-.5-.2h-.7v2.6h.7c.2,0,.4,0,.5-.2s.2-.3.2-.5v-1.2h0Z"/>
    <path class="st4" d="M32.8,51.3c.7,0,1.2.2,1.5.6.3.3.4.8.4,1.4v1.2c0,.6-.2,1.1-.7,1.4l.9,3.5h-1.3l-.7-3h-.8v3h-1.2v-8.1h1.9ZM33.5,53.3c0-.5-.2-.7-.7-.7h-.7v2.6h.7c.2,0,.4,0,.5-.2s.2-.3.2-.5v-1.2h0Z"/>
    <path class="st4" d="M36,59.4v-8.1h3.5v1.2h-2.3v2.2h1.6v1.2h-1.6v2.2h2.3v1.2h-3.5Z"/>
    <path class="st4" d="M41.5,59.4h-1.2v-8.1h1.7l1.1,5.8,1.1-5.8h1.7v8.1h-1.2v-5.1l-1.1,5.1h-1l-1.2-5.1v5.1h0Z"/>
    <path class="st4" d="M48.2,59.4h-1.2v-8.1h1.2v8.1Z"/>
    <path class="st4" d="M51.3,59.5c-.5,0-1-.2-1.4-.6s-.6-.8-.6-1.4v-6.3h1.2v6.2c0,.2,0,.4.2.5s.3.2.5.2.4,0,.5-.2.2-.3.2-.5v-6.2h1.3v6.3c0,.5-.2,1-.6,1.4s-.8.6-1.4.6h0Z"/>
    <path class="st4" d="M55.5,59.4h-1.2v-8.1h1.7l1.1,5.8,1.1-5.8h1.7v8.1h-1.2v-5.1l-1.1,5.1h-1l-1.2-5.1v5.1h0Z"/>
    <path class="st4" d="M62.9,52.6h-1.3v-1.2h3.8v1.2h-1.3v6.9h-1.2v-6.9h0Z"/>
    <path class="st4" d="M68.2,51.2c.5,0,1,.2,1.4.6.4.4.6.8.6,1.4v4.4c0,.5-.2,1-.6,1.4-.4.4-.8.6-1.4.6s-1-.2-1.4-.6-.6-.8-.6-1.4v-4.4c0-.5.2-1,.6-1.4.4-.4.8-.6,1.4-.6ZM68.9,53.2c0-.2,0-.4-.2-.5-.1-.1-.3-.2-.5-.2s-.4,0-.5.2c-.1.1-.2.3-.2.5v4.4c0,.2,0,.4.2.5.1.1.3.2.5.2s.4,0,.5-.2c.1-.1.2-.3.2-.5v-4.4Z"/>
    <path class="st4" d="M73.1,51.3c.6,0,1.1.2,1.4.6.3.4.5.8.5,1.4v1.2c0,.5-.2,1-.6,1.4s-.8.6-1.4.6h-.7v3h-1.2v-8.1h1.9,0ZM73.9,53.3c0-.2,0-.4-.2-.5s-.3-.2-.5-.2h-.7v2.6h.7c.2,0,.4,0,.5-.2.1-.1.2-.3.2-.5v-1.2h0Z"/>
    <path class="st4" d="M80.8,57.4c0,.6-.1,1.1-.4,1.4-.2.3-.5.5-.8.6-.2,0-.4,0-.7,0-.5,0-.9-.1-1.2-.4-.3-.2-.5-.5-.6-.8s-.2-.7-.3-1.1h1.2c0,.4.2.7.4.9.2.2.3.2.5.2.3,0,.5-.1.6-.4,0-.1.1-.3.1-.5,0-.3-.2-.7-.5-1-.2-.2-.6-.6-1.1-1-.4-.4-.7-.7-.9-1.1-.2-.4-.3-.7-.3-1.1,0-.7.2-1.3.7-1.7.3-.2.7-.3,1.1-.3s.8,0,1.1.3c.2.2.4.4.6.6s.2.6.3.9l-1.2.2c0-.3-.1-.6-.3-.8-.1-.1-.3-.2-.5-.2s-.4,0-.5.3c0,.2-.1.4-.1.6,0,.4.2.8.5,1.1.1.2.3.3.5.5.3.2.5.4.6.5.3.3.5.6.7.9,0,.1.1.3.2.4.1.3.2.5.2.8h0Z"/>
    <path class="st4" d="M83,56v3.4h-1.2v-8.1h1.2v3.4h1.5v-3.4h1.2v8.1h-1.2v-3.4h-1.5Z"/>
    <path class="st4" d="M86.8,59.4v-8.1h3.5v1.2h-2.3v2.2h1.6v1.2h-1.6v2.2h2.3v1.2h-3.5Z"/>
    <path class="st4" d="M94.4,59.4h-3.3v-8.1h1.2v6.9h2.1v1.2Z"/>
    <path class="st4" d="M96.5,59.4h-1.2v-8.1h3.5v1.2h-2.3v2.2h1.6v1.2h-1.6v3.4h0Z"/>
    <path class="st4" d="M101.6,59.4h-1.2v-8.1h1.2v8.1Z"/>
    <path class="st4" d="M104.1,51.3l1.6,5.4v-5.4h1.2v8.1h-1.3l-1.7-5.2v5.2h-1.2v-8.1h1.4Z"/>
    <path class="st4" d="M111.8,57.5c0,.5-.2,1-.6,1.4-.4.4-.8.6-1.4.6h-1.9v-8.1h1.9c.5,0,1,.2,1.4.6s.6.8.6,1.4v4.2h0ZM109.2,58.2h.7c.2,0,.4,0,.5-.2.1-.1.2-.3.2-.5v-4.2c0-.2,0-.4-.2-.5s-.3-.2-.5-.2h-.7v5.6h0Z"/>
    <path class="st4" d="M114.8,51.2c.5,0,1,.2,1.4.6.4.4.6.8.6,1.4v4.4c0,.5-.2,1-.6,1.4-.4.4-.8.6-1.4.6s-1-.2-1.4-.6-.6-.8-.6-1.4v-4.4c0-.5.2-1,.6-1.4.4-.4.8-.6,1.4-.6ZM115.5,53.2c0-.2,0-.4-.2-.5-.1-.1-.3-.2-.5-.2s-.4,0-.5.2c-.1.1-.2.3-.2.5v4.4c0,.2,0,.4.2.5.1.1.3.2.5.2s.4,0,.5-.2c.1-.1.2-.3.2-.5v-4.4Z"/>
    <path class="st4" d="M119.7,51.2c.5,0,1,.2,1.4.6.4.4.6.8.6,1.4v4.4c0,.5-.2,1-.6,1.4-.4.4-.8.6-1.4.6s-1-.2-1.4-.6-.6-.8-.6-1.4v-4.4c0-.5.2-1,.6-1.4.4-.4.8-.6,1.4-.6ZM120.4,53.2c0-.2,0-.4-.2-.5-.1-.1-.3-.2-.5-.2s-.4,0-.5.2c-.1.1-.2.3-.2.5v4.4c0,.2,0,.4.2.5.1.1.3.2.5.2s.4,0,.5-.2c.1-.1.2-.3.2-.5v-4.4Z"/>
    <path class="st4" d="M124.7,51.3c.7,0,1.2.2,1.5.6.3.3.4.8.4,1.4v1.2c0,.6-.2,1.1-.7,1.4l.9,3.5h-1.3l-.7-3h-.8v3h-1.2v-8.1h1.9ZM125.4,53.3c0-.5-.2-.7-.7-.7h-.7v2.6h.7c.2,0,.4,0,.5-.2.1-.1.2-.3.2-.5v-1.2h0Z"/>
  </g>
  <path d="M299.3-202.9s0,0,0-.1c-.2,0-.3-.2-.5-.3,0,0,0,0,0,0-.8,1.5-1.5,3-2.2,4.4-.6,1.2-1,2.2-1.3,3.1.4-.3.8-.8,1.3-1.5,1-1.3,1.9-2.7,2.8-4.1.2-.3.3-.5.5-.8,0,0,0,0-.1,0,0,0,0-.1,0-.2,0,0,0,0,0,0-.2,0-.3-.2-.4-.4Z"/>
  <path d="M291.9-207.6c-.8,1-1.7,2.2-2.6,3.6-.9,1.4-1.7,2.9-2.4,4.3-.7,1.4-1.2,2.6-1.4,3.6,0,.3-.1.6-.1.7.4-.2,1-.6,2.1-1.8,1.3-1.4,2.5-2.9,3.8-4.7.9-2.2,2-4.3,3.1-6.4-.1-.2-.3-.3-.4-.4-.2-.2-.4-.3-.6-.3-.1,0-.6.2-1.5,1.3Z"/>
  <path d="M277.1-209.1c-.2.2-.6.5-1.3,1.2-.9,1-2,2.2-3.1,3.6-.8,1-1.5,2-2.3,2.9.4-.1.9-.4,1.4-.7,1.1-.8,2.2-1.9,3.1-3.1.9-1.2,1.6-2.4,2-3.3,0-.2.1-.4.2-.5Z"/>
  <path d="M255.7-202.5c.4,0,.8-.4,1.3-.8.5-.5,1.1-1.1,1.6-1.8.5-.7,1-1.4,1.3-2.1.3-.6.5-1.1.5-1.5-.3,0-1,.4-2.1,1.8-1,1.2-1.9,2.7-2.7,4.4,0,0,0,0,0,0,0,0,.1,0,.1,0s0,0,0,0Z"/>
  <path d="M306.3-198.3c-.3,0-.6-.2-1-.3,0,0-.1,0-.1-.2-.3,0-.6-.1-.8-.3,0,0,0,0,0-.1-.3.5-.7,1.1-1,1.7,0,0,0,0,.1,0,.1,0,.3,0,.4,0,0,0,0,0,0-.1,0,0,0,0,.2,0s0,0,0,0c0,0,.2,0,.2,0,0,0,0,0,0,0,0,0,0,0,.1,0,0,0,.1,0,.2,0s.1,0,.2,0c0,0,0,0,0,0,0,0,0,0,.1,0,0,0,0,0,0,0,0,0,.1,0,.2,0,0,0,0,0,0,0,0,0,0,0,.1,0s0,0,0,0c.1,0,.2,0,.3.1,0,0,0,0,0,0,0,0,0,0,.1,0s0,0,0,0c.1,0,.2,0,.3,0,0,0,0,0,0,0,0,0,0,0,0-.1,0,0,0,0,0-.1Z"/>
  <path d="M306.6-202.3s0,0,0,0c-.1-.2-.2-.3-.3-.5-.2.4-.4.8-.6,1.2,0,0,.1.2.2.3,0,0,0,0,0,0,0,0,0,0,0,0,0,0,0,0,.1,0,.2.2.4.4.5.6,0,0,0,0,0,0,0,0,.1,0,.2,0,0,0,0,0,0,0,0,0,0,0,0,0,0,0,.1-.1.2-.1h0c-.3-.3-.5-.7-.6-1.2,0,0,0-.1,0-.2Z"/>
  <path d="M310.2-200.2c0-.2,0-.3.1-.5,0,.2-.2.4-.3.6,0,0,0,0,.1,0Z"/>
  <g>
    <g>
      <path class="st5" d="M126.9,29.9c-.5,0-.8-.2-1-.3,0,0-.2,0-.3,0-.2,0-.4-.2-.5-.3h0c-.5-.1-.9-.4-1.1-.9-.4-.7,0-1.4,0-1.7.3-.8.6-1.3.8-1.5.4-.5,1.1-.7,1.6-.8h0c1.3,0,2.6,1.5,2.8,2.4.1.7-.6,2.8-1.7,3.2h-.2c0,0-.2,0-.2,0Z"/>
      <path class="st3" d="M126.3,25.8c.4,0,1.2.8,1.2,1.2,0,.2-.6,1.4-.6,1.4,0,0,0,0,0,0-.1,0-.3-.2-.4-.3-.1,0-.2,0-.3,0-.2,0-.5-.4-.6-.4s0,0,0,0c0,0-.1,0-.2,0s0,0,0,0c-.3,0,0-.4,0-.5,0-.2.4-1,.6-1.1,0-.1.3-.2.5-.2,0,0,0,0,0,0M126.3,22.8h-.1c-.4,0-1.7.2-2.7,1.3-.1.2-.4.5-1,1.9-.6,1.3-.3,2.3,0,2.9.4.8,1.1,1.3,1.9,1.6.2.1.4.2.6.3,0,0,.2,0,.3,0,.4.2.9.5,1.6.5h.9c2-.7,3-3.7,2.7-5-.3-1.6-2.3-3.6-4.2-3.6h0Z"/>
      <path class="st1" d="M126.3,25.8c.4,0,1.2.8,1.2,1.2,0,.2-.6,1.4-.6,1.4,0,0,0,0,0,0-.1,0-.3-.2-.4-.3-.1,0-.2,0-.3,0-.2,0-.5-.4-.6-.4s0,0,0,0c0,0-.1,0-.2,0s0,0,0,0c-.3,0,0-.4,0-.5,0-.2.4-1,.6-1.1,0-.1.3-.2.5-.2,0,0,0,0,0,0M126.3,24.3h0c-.5,0-1.2.2-1.6.8,0,0-.3.4-.8,1.5-.1.2-.4.9,0,1.7.2.4.6.8,1.1.9h0c.1.1.3.3.5.3.1,0,.2,0,.3,0,.2.2.6.3,1,.3h.4c1.1-.4,1.8-2.6,1.7-3.2-.2-.9-1.5-2.4-2.7-2.4h0Z"/>
    </g>
    <g>
      <path class="st2" d="M31.4,45.6c-1.4,0-3.4-1.5-3.4-1.5-1.5-1.2-2.1-2.3-2.2-3.5-2.5,2.1-6.7,4.8-11.5,4.8s-2.3-.2-3.4-.5c-5.1-1.5-7.9-6-7.1-11.5.4-2.9,2.3-5.4,5.3-7.3,1.2-.8,2.6-1.4,4.2-2-1.7-1.7-2.5-3.9-2.5-6.2.1-3.3,2-6.6,4.9-8.7h0s.3-.2.3-.2h.1c0,0,.1-.2.1-.2.1,0,.4-.2.6-.3,2.6-1.6,3.9-1.9,5.7-2.1,0,0,.2,0,.2,0,.1,0,.3,0,.4,0,.1,0,.2,0,.4,0,2.8,0,5.6,1.2,7.4,3,.3-.4.6-.7,1-1.1,1.1-1.1,2.2-1.6,3.2-1.6s1.8.3,2.8,1.5c0,0,1.6,2.1,1.1,3.7-.2.5-.4.7-1.5,1.4-.2.1-.3.2-.4.3-1.3,1-2.6,2.5-3.8,4.2-.7,1-1.1,1.9-1.3,2.6-.4,1.5-1.3,1.8-1.9,1.8s-.5,0-.7-.1h-.3c0,0-.2-.3-.2-.3-.1-.1-.5-.3-.7-.5-.5-.2-.9-.5-1.3-.9-.5-.5-.7-1-.8-1.7,0-.4-.1-1.6,1.7-4.7-.3,0-.6-.2-.9-.2-.2,0-.4,0-.6,0-.8,0-1.7.1-2.5.4-1.7.5-3.4,1.6-4.4,2.9-.9,1.2-1.3,2.3-.9,3,.4.7,1.4,1.2,2.8,1.2s.8,0,1.3-.1c.1,0,.2,0,.3,0,.2,0,.5-.1.8-.1.8,0,1.5.4,1.9,1.3.6,1.1,1,3.2.7,4.5-.2.9-.8,1.3-1.1,1.5l-.4.3h-.5c-2.1,0-4.6.6-7,1.5-3,1.1-4.8,2.5-5.1,3.9-.3,1.4-.1,2.5.4,3.2.7.9,1.9,1.1,2.9,1.1,3.7,0,8.8-3.4,12-6.7.9-.9,1.3-1.5,1.9-2.7,1.9-3.4,3.8-7,6.3-10h.1c.6-.9,1.3-1.8,2.9-1.8s.2,0,.4,0c1.5.1,3.7,1.4,4.4,3,.6,1.4,0,2.2-.3,2.8-.3.5-.7,1-1.1,1.5-.3.4-.6.8-.8,1.2-1.9,2.8-3.5,5.5-4.9,8.1,1-1.3,2.1-2.6,3.1-3.9l.7-.9c1-1.3,2-2.6,2.9-3.9,1.2-1.7,2.5-3.4,3.8-5,.7-.9,1.2-1.4,1.7-1.6.4-.2.9-.3,1.4-.3,1.8,0,3.8,1.4,4.5,2.8.5.9.7,1.7,0,2.8-.2.3-.4.6-.6.9l-1,1.6c-1.7,2.6-3.3,5.1-4.7,7.8-.2.3-.4.7-.6,1.1.4-.5.8-1,1.1-1.5l.2-.3c1.8-2.4,3.5-4.9,5.1-7.4,1.1-1.7,2.2-3.5,3.4-5.2-.8-.6-1.3-1.3-1.6-2.2-.6-1.8-.3-4.3,1-6.7,1.1-2,3.2-4.4,5.7-5,.4-.1.9-.2,1.4-.2,2.2,0,3.9,1.1,4.4,2.9.5,2-.3,4.7-2.5,8.2,0,0,0,0,0,0,1.1.2,2.1.5,3.1,1,2.3,1,3.3,3,2.7,5,.6-.8,1.2-1.6,1.9-2.3,2.2-2.4,4.6-3.6,6.9-3.6s2,.2,3,.7c1.8.9,3,2.3,3.3,4.1.8-1.6,1.6-3.1,2.4-4.7,1.2-2.4,2.5-4.9,3.8-7.4.1-.2.2-.4.4-.7.4-.8.9-1.8,1.4-2.4.6-.7,1.4-1.1,2.5-1.1,1.5,0,3.3.8,4.2,2,.6.7.9,1.6.7,2.4,0,.4-.3.9-1,2l-.2.3-1.1,1.9c-.7,1.2-1.3,2.3-1.9,3.4.8-.5,1.6-.8,2.6-.8s1.6.2,2.5.6c2.2,1.1,3.3,3,3.1,5.2.2-.3.5-.7.7-1,2.8-3.6,5.5-5.4,8.1-5.4s3.2.7,4.6,2.2c.5-.7,1.3-1.5,2.4-1.6,0,0,.1,0,.2,0,1.3,0,3,.9,3.8,2.1.6.9.7,1.8.3,2.7-.3.6-.7,1.2-1,1.8-.3.5-.6,1-.8,1.4l-.2.5h0s0,.2,0,.2c-.6,1.3-.9,1.8-1.6,1.9,0,.2.1.4.1.6v.3s0,.1,0,.1l1,.3c.5.1.8.4,1,.6.2,0,.3.2.5.3.1.1.2.2.2.3,0,0,0,0,.1,0,0,0,0,0,.1,0h.2s.4.5.4.5c.5.7.4,1.4-.3,2.2v.3c-.6.8-1.1,1.8-1.6,2.6l-.5.7c-1.2,1.8-2.4,3.6-3.9,5.2-1.2,1.3-2.3,2-3.2,2h-.2c-1.5,0-3.9-1.7-4.6-2.4-.2-.3-.4-.6-.6-.8-1.1,1.4-2.3,2.5-3.5,3.1-.5.2-.9.3-1.4.3s-1-.2-1.4-.3c-1.3-.4-3-1.4-3.8-2.7-.2-.3-.3-.6-.4-.9-1,1.3-2.2,2.5-3.4,3.2-.9.5-1.7.8-2.6.8-3.3,0-5.3-3.9-6.1-7,0,0-.3.6-.3.6-.8,1.7-1.5,3.5-2.2,5.1h0c0,.1,0,.3,0,.3-.4.6-1,1-1.7,1s-.5,0-.8-.1c-.9-.2-3-1.1-3.9-2.6-1.5,1.3-3.7,2.8-6.2,2.8s-1.5-.1-2.3-.4c-1.7-.6-3.6-2.1-4.4-4-.1.2-.3.3-.4.5-1.6,2-3.4,4-5.4,4-2.3,0-5.5-2.4-5.8-5-.3-2.2.7-5.2,3-9.6.6-1.1,1.2-2.2,1.8-3.2.6-1,1.2-1.9,1.7-2.8.1-.2.2-.4.2-.5-1.5,2.2-3,4.5-4.4,6.7-2.5,4.1-5.2,8.3-8.5,11.8-2.1,2.2-3.8,3.2-5.3,3.2s-.2,0-.3,0c-1.3-.1-3.7-1.5-4.3-2.1-.9-.8-1.4-1.7-1.6-2.6-.4.4-.7.9-1.1,1.3-1.4,1.7-2.9,3.2-4.2,3.7-.2,0-.6.2-.9.2h0ZM74.4,37.6c.1,0,.3,0,.4,0,1.1-.3,2.5-1.4,3.9-2.8-.2,0-.5.1-.8.1s-.4,0-.6,0c-.8-.2-1.3-.9-1.9-1.7,0,0,0-.1-.1-.2-.3.8-.5,1.5-.7,2.2-.4,1.4-.3,2.2-.2,2.5h0ZM96,34.8c.1.5.3,1.1.5,1.5.1.3.2.4.4.5.2-.1.4-.4.6-.6,1.5-1.6,2.7-3.4,3.9-5.2-1.6,1.5-3.3,2.8-4.7,3.5,0,0-.3.2-.6.3ZM116.6,23.4c-.3.1-1,.7-2.5,2.7-1.1,1.4-2.2,3.1-3.2,5.2-.9,1.7-1.5,3.1-1.9,4.1,1.4-1.5,2.9-3.4,3.6-4.3,0-.1.2-.3.3-.4.2-.3.5-.6.6-.8.1-.2.2-.4.3-.6,0-.2.2-.4.3-.6.9-1.9,1.7-3.5,2.7-5.1,0,0,0,0,0,0Z"/>
      <path class="st3" d="M97.2,7.8c1.6,0,3.7,1.3,3.5,2.6,0,.3-.8,1.4-1,1.8-2.6,4.5-5.1,8.8-7.3,13.5,0,.2-.7,1.2-.6,1.2,0,0,0,0,0,0,0,0,.2-.3.3-.4,1.5-1.9,3.4-4.2,5.2-5.8,1.1-1,2.1-1.8,3.3-1.8.5,0,1.1.1,1.8.5,2.3,1.2,2.8,3.3,1.8,5.6-1.4,3-5.5,6.8-8.4,8.3-.2.1-1.5.7-1.5.7,0,0,0,.8.1,1,.1.7.3,1.4.6,2,.2.4.4.8.8,1.1.3.3.6.4.9.4.7,0,1.2-.6,1.7-1.2,3.9-4.2,6.1-9.7,9.6-14.2,1.8-2.4,4.3-4.8,7-4.8,1.3,0,2.7.6,3.9,2.2l.7.9s0,0,0,0c0,0,0,0,0,0,.2-.3.5-.7.7-1.1.4-.5,1-1.4,1.6-1.4,0,0,0,0,.1,0,1.2,0,3.3,1.4,2.7,2.7-.5,1-1.4,2.2-1.9,3.2-.1,0-.1.2-.2.4,0,.2-.7,1.4-.8,1.4,0,0,0,0,0,0,0,0-.1-.1-.2-.2-.1,0-.4,0-.5,0-.7-.2-1.4-.5-2.1-.7,0,0,0,0,0,0-.2,0-.4.1-.3.3.3.3.6.7.9,1.1.3.3.5.6.8.9,0,0,.3.2.3.2,0,0,0,.2,0,.3,0,0,.1,0,.1.2-1.1,2.3-2.3,4.7-3.2,7.1-.3.7-.8,2.3-.8,3,0,0,0,0,0,0s0,0,0,0c2.8-2,4.4-5.1,6.1-8,.3,0,.4.3.6.4,0,0,.3,0,.3.1,0,0,0,.2.2.3,0,0,.2,0,.3.2,0,0,.1.2.2.3,0,0,.1,0,.1,0,0,0-.3.5-.4.6-.5.9-1,1.9-1.6,2.8-1.3,1.9-2.7,4-4.3,5.7-.5.5-1.5,1.5-2.3,1.6,0,0,0,0,0,0-.9,0-2.9-1.3-3.5-1.9-1.1-1.2-.5-2.9-.2-4.3-.5.6-.9,1.3-1.4,1.9-1,1.3-2.6,3.6-4.2,4.2-.3.1-.5.2-.8.2s-.6,0-1-.2c-1-.3-2.4-1.2-3-2.1-.9-1.4-.4-3.4,0-4.9-.2.2-.3.4-.4.6-1.3,1.9-3.4,4.9-5.4,6.1-.6.4-1.3.6-1.8.6-3,0-4.7-5.1-5.1-7.6,0-.4,0-.8-.1-1.2,0,0,0,0,0,0s0,0,0,0c-.2,0-.7.4-.8.5-.7.6-1.3,2-1.6,2.8-.8,1.7-1.5,3.4-2.2,5.2-.1.2-.3.3-.5.3s-.3,0-.4,0c-1-.3-2.9-1.2-3.1-2.4-.1-.6.2-1.6.4-2.2,0-.2.2-.4.2-.7-.8.9-1.5,1.8-2.4,2.6-1.5,1.4-3.5,2.7-5.6,2.7s-1.1,0-1.7-.3c-1.7-.6-3.6-2.3-3.9-4.1-.1-.8,0-1.8,0-2.6,0,0-.1,0-.1.1-.9,1.1-1.7,2.5-2.6,3.6-.8,1-2.8,3.4-4.2,3.4s0,0,0,0c-1.7,0-4.1-2-4.3-3.7-.3-2.5,1.7-6.5,2.8-8.7,1.1-2.1,2.4-4,3.5-6,.6-1.1.9-2.4-.3-3.2-.1,0-.7-.4-.9-.4s0,0,0,0c0,0-.2.3-.3.3,0,0,0,.1,0,.2-4.7,6.2-8.2,13.8-13.6,19.5-.9.9-2.8,2.8-4.2,2.8s0,0-.1,0c-.8,0-2.9-1.2-3.5-1.7-2.2-1.8-.9-4.8,0-7,0,0,0-.1,0-.2l-.7.8c-1.3,1.8-2.7,3.6-4.1,5.3-.8.9-2.4,2.9-3.6,3.2,0,0-.4.1-.5.1,0,0,0,0,0,0-.6,0-2-.8-2.5-1.2-1.8-1.4-1.8-2.4-1.4-4.6.1-.7.4-1.4.5-2-.7.8-1.4,1.5-2.1,2.3-3.1,2.9-7.2,5.4-11.6,5.4s-2-.1-3-.4c-4.5-1.3-6.7-5.2-6-9.8.4-2.8,2.3-4.8,4.6-6.2,2-1.2,4.2-2,6.5-2.7,0,0,0,0,0-.1-.3-.3-.9-.6-1.3-.9-4.8-3.8-2.7-10.4,1.8-13.5,0,0,0,0,0,0,0,0,0,0,.2,0,0,0,0,0,.1,0,.1,0,.3-.2.5-.3,2.4-1.5,3.5-1.7,5.2-1.9,0,0,.2,0,.2,0,.1,0,.2,0,.3,0,.1,0,.2,0,.3,0,2.4,0,5,1,6.5,2.7.3.4.5.8.8,1.1,0,0,0,0,0,0s0,0,0,0c.6-.8,1.3-1.7,2-2.5.7-.7,1.4-1.2,2.2-1.2.5,0,1.1.3,1.6.9.3.4,1,1.8.8,2.2,0,0-1.2.8-1.3,1-1.6,1.2-3,2.9-4.1,4.5-.7,1-1.3,2-1.6,3.1,0,.3-.2.7-.5.7s-.1,0-.2,0c-.5-.5-1.5-.8-2-1.3-.2-.2-.3-.4-.3-.7,0-1.1,1.1-3.3,1.7-4.2.2-.3.6-.7.7-1,0,0,0,0,0-.1-.9-.4-1.9-.8-2.9-.9-.3,0-.6,0-.8,0-1,0-2.1.2-3,.5-1.9.6-3.9,1.8-5.1,3.4-3,3.8-.7,6.6,3.1,6.6s1,0,1.5-.1c.4,0,.6-.2.8-.2.2,0,.4.1.6.5.4.8.8,2.5.5,3.4,0,.3-.2.5-.5.7-2.5,0-5.1.7-7.5,1.6-2.2.8-5.5,2.4-6,5-.8,3.6,1,6.2,4.8,6.2s0,0,0,0c4.5,0,10-4.1,13-7.2,1-1,1.5-1.7,2.2-3,1.8-3.3,3.8-6.8,6.2-9.8.6-.7.9-1.2,1.9-1.2,0,0,.2,0,.2,0,1.1,0,2.7,1.1,3.1,2.1.3.6.1.8-.2,1.3-.6.9-1.3,1.7-1.9,2.6-2.9,4.2-5.5,8.8-7.4,13.6l-.4,1.6s0,0,0,0c.1,0,.5-.2.6-.3.9-.6,1.8-1.6,2.5-2.4,2-2.3,4.1-5,6-7.4,2.3-2.9,4.4-6.1,6.7-9,.2-.3.9-1.1,1.1-1.2.2-.1.5-.2.8-.2,1.3,0,2.7,1.1,3.2,2.1.3.6.3.8,0,1.3-.2.4-.5.8-.8,1.2-1.9,3-3.8,5.9-5.5,9.1-1.1,2-2.2,4.2-2.5,6.5,0,0,0,0,0,0s0,0,0,0c2.1-.8,4.4-3.8,5.7-5.6,3.3-4.3,5.9-9,9.1-13.4,0-.1.4-.4.3-.5-1-.5-1.9-1.1-2.3-2.2-1.1-3.3,2.3-9,5.6-9.8.3,0,.7-.1,1-.1,1.2,0,2.6.5,2.9,1.8.5,2.1-1.2,5.4-2.3,7.1-.4.6-.8,1.1-1.1,1.7,0,0,0,0,0,.1,1.6.3,3.4.6,4.9,1.3,1.5.7,2.5,1.9,1.8,3.6-.9,2.2-2.8,4.3-4.1,6.4-1,1.6-2,3.2-2.9,4.9-.4.7-1.5,2.7-1.5,3.4s0,.5,0,.7c0,0,0,0,0,0s0,0,0,0c0,0,.5-.2.5-.2,2.2-1.1,4.6-4.9,5.9-7,2.1-3.2,3.8-6.7,6.4-9.6,1.6-1.7,3.6-3.2,5.8-3.2.8,0,1.6.2,2.4.6,2.1,1,2.9,2.9,2.3,5.1-.8,2.7-3.7,6.7-6.2,8.2-.3.2-.7.4-1,.4s-.2,0-.2,0c-.5-.1-1.2-1.6-1.8-2-.3-.2-1-.5-.9-.9,0-.1.1-.2.3-.2.2,0,.5,0,.6,0,0,0,0,0,0,0,1.5,0,3.4-2.5,4.2-3.6.6-.9,2-2.9,1.9-4,0-.2-.3-.5-.5-.5,0,0,0,0,0,0-.3,0-1,.4-1.2.5-2.1,1.4-3.9,4.4-5,6.6-.8,1.5-1.6,3.5-2.1,5.3-.4,1.6-.8,4.4,1.3,4.4s.5,0,.8-.1c2.9-.7,6.6-5.2,8.2-7.7,4.2-6.3,7.2-13.5,10.8-20.2.4-.8,1.1-2.2,1.6-2.9.3-.4.8-.5,1.3-.5M61.1,18.1s0,0,0,0c.9-1.4,1.9-2.8,2.6-4.3.2-.5.8-1.9.1-1.9-.1,0-.2,0-.4.1-1.1.5-2.1,2.5-2.5,3.6,0,0,0,0,0,0,0,0,0,0,0,.1-.2.6-.3,1.2-.1,1.8,0,.1.2.5.4.5M91.1,31.7c.4,0,.9-.2,1.3-.3,2.7-1.2,6.1-5.1,7.4-7.7,0,0,0,0,0,0,.1-.3.5-1.1.5-1.4,0-.4-.1-.6-.4-.6-.3,0-.8.3-1.1.5-2,1.3-4.3,4.3-5.8,6.2-.9,1.1-1.7,2.2-2.5,3.3.2,0,.4.1.5.1M107,38.7c.1,0,.5-.2.6-.3,2-1.1,4.8-4.6,6.2-6.5.3-.4.8-.9,1-1.4.2-.4.4-.9.6-1.3.9-1.9,1.9-3.8,3-5.6,0-.7-.9-1.7-1.7-1.7,0,0,0,0,0,0-1.3,0-3,2.4-3.7,3.3-1.2,1.6-2.4,3.5-3.3,5.3-1,1.9-2.9,5.6-2.7,7.7,0,0,0,.4,0,.5,0,0,0,0,0,0M97.2,4.8h0c-1.5,0-2.8.6-3.6,1.6-.6.7-1.1,1.7-1.6,2.6-.1.2-.2.5-.3.7-1.3,2.4-2.6,5-3.8,7.4-.3.6-.6,1.3-1,1.9-.7-.8-1.6-1.5-2.7-2.1-1.2-.6-2.4-.9-3.7-.9-2.7,0-5.3,1.3-7.7,3.8-.6-1.1-1.7-2.1-3.1-2.8-.5-.2-1-.4-1.5-.6,1.6-3.1,2.2-5.7,1.7-7.7-.6-2.5-2.9-4-5.8-4-.6,0-1.2,0-1.7.2-2.5.6-5,2.8-6.6,5.8-1.4,2.5-1.8,5.1-1.3,7.2-1.2-1-2.7-1.8-4.4-1.8-.7,0-1.4.2-2.1.5-.7.3-1.3.9-2.1,1.9h0c-.2.4-.5.7-.7,1,0,0,0-.2-.1-.3-.9-2.1-3.7-3.7-5.7-3.9-.2,0-.3,0-.5,0-.7,0-1.4.1-1.9.4.4-.4.9-.8,1.3-1.2,0,0,.2-.1.3-.2,1.1-.8,1.7-1.2,2-2.2.8-2.3-1.3-5-1.3-5.1-1-1.3-2.4-2.1-4-2.1-1.5,0-3,.7-4.3,2.1,0,0,0,0,0,0-2-1.5-4.6-2.4-7.3-2.4-.1,0-.3,0-.4,0-.1,0-.3,0-.4,0,0,0-.2,0-.4,0-2.2.3-3.6.7-6.2,2.3-.2.1-.4.3-.6.3,0,0-.1,0-.2.1h0c0,0-.6.4-.6.4h0c-3.2,2.5-5.2,6.1-5.3,9.8,0,2.1.5,4,1.5,5.7-.9.4-1.7.8-2.5,1.3-3.4,2.1-5.5,5-6,8.3-.9,6.2,2.4,11.4,8.2,13.1,1.2.4,2.5.5,3.8.5,4.3,0,8-1.9,10.7-3.9.4.7,1.1,1.5,2,2.2,0,0,2.4,1.8,4.3,1.8.2,0,.6,0,1.4-.2,1.5-.5,2.9-1.8,4.5-3.7.3.3.6.7,1,1,.8.7,3.5,2.3,5.2,2.4.1,0,.3,0,.4,0,1.9,0,4-1.2,6.4-3.7,1.3-1.3,2.4-2.8,3.5-4.3,0,.3,0,.7,0,1,.4,3.4,4.3,6.2,7.2,6.3h0s0,0,0,0c2.1,0,4-1.6,5.6-3.4,1.1,1.3,2.6,2.3,4,2.8.9.3,1.8.5,2.8.5,2,0,4-.7,6-2.2,1.2,1.1,2.7,1.7,3.7,2,.2,0,.6.2,1.2.2,1.2,0,2.3-.6,3-1.6l.2-.2v-.3c.4-.8.7-1.6,1.1-2.4,1.3,2.5,3.3,4.6,6.2,4.6s2.3-.3,3.4-1c.8-.5,1.6-1.2,2.4-2,1.1,1.3,2.7,2.1,3.9,2.5.5.2,1.1.4,1.9.4s1.3-.1,2-.4c1-.5,2-1.2,2.9-2.1,1.1,1,3.4,2.5,5.2,2.5s.2,0,.3,0c1.8-.1,3.2-1.4,4.2-2.5,1.6-1.7,2.9-3.7,4.1-5.4l.5-.7c.6-.9,1.1-1.9,1.5-2.7h0c1.4-2,.7-3.5.2-4.1l-.7-.9h-.4c0-.1-.1-.2-.2-.3-.2-.2-.5-.4-.7-.5-.2-.2-.4-.3-.7-.5.2-.3.4-.7.6-1.1h0s.5-1,.5-1c.2-.3.4-.8.7-1.2.4-.6.8-1.3,1.1-2,.6-1.3.4-2.8-.4-4.1-1.1-1.6-3.2-2.8-5.1-2.8-.1,0-.2,0-.3,0-1,0-1.8.5-2.4,1-1.7-1.3-3.3-1.6-4.5-1.6-2.7,0-5.4,1.5-8.1,4.5-.7-1.3-1.8-2.3-3.2-3.1-.9-.5-1.9-.7-2.8-.8,0-.1.1-.2.2-.3.4-.6.7-1.3,1.1-1.9,0,0,0-.2.2-.3.7-1.1,1-1.7,1.1-2.5.2-1.2-.2-2.5-1.1-3.6-1.3-1.5-3.4-2.5-5.4-2.5h0ZM19.7,19.4c0-.2.1-.7.7-1.4.8-1.1,2.2-2,3.7-2.4.4-.1.8-.2,1.2-.3-.8,1.8-.8,2.8-.8,3.5,0,.3,0,.5.1.8-.4-.1-.8-.2-1.1-.2-.5,0-1,.1-1.2.2,0,0,0,0-.1,0-.3,0-.7,0-1,0-.9,0-1.4-.2-1.5-.4h0ZM15.4,36.7c-.8,0-1.4-.2-1.7-.5-.3-.4-.4-1.1-.2-2,.1-.5,1.1-1.6,4.2-2.8,2.3-.9,4.5-1.3,6.5-1.4h.9s.8-.6.8-.6c.4-.3,1.3-.9,1.7-2.4.3-1.4,0-3.2-.4-4.6,0,0,.1,0,.2.1.2,0,.4.2.5.3l.4.4.5.2c.4.1.8.2,1.2.2s.3,0,.4,0c-.9,1.5-1.7,3-2.5,4.5-.6,1.1-1,1.6-1.7,2.4-2.9,3-7.6,6.2-10.8,6.3h0ZM97.9,35.8s0,0,0,0c0,0,0,0,0,0,0,0,0,0,0,0h0Z"/>
      <path class="st1" d="M97.2,7.8c1.6,0,3.7,1.3,3.5,2.6,0,.3-.8,1.4-1,1.8-2.6,4.5-5.1,8.8-7.3,13.5,0,.2-.7,1.2-.6,1.2,0,0,0,0,0,0,0,0,.2-.3.3-.4,1.5-1.9,3.4-4.2,5.2-5.8,1.1-1,2.1-1.8,3.3-1.8.5,0,1.1.1,1.8.5,2.3,1.2,2.8,3.3,1.8,5.6-1.4,3-5.5,6.8-8.4,8.3-.2.1-1.5.7-1.5.7,0,0,0,.8.1,1,.1.7.3,1.4.6,2,.2.4.4.8.8,1.1.3.3.6.4.9.4.7,0,1.2-.6,1.7-1.2,3.9-4.2,6.1-9.7,9.6-14.2,1.8-2.4,4.3-4.8,7-4.8,1.3,0,2.7.6,3.9,2.2l.7.9s0,0,0,0c0,0,0,0,0,0,.2-.3.5-.7.7-1.1.4-.5,1-1.4,1.6-1.4,0,0,0,0,.1,0,1.2,0,3.3,1.4,2.7,2.7-.5,1-1.4,2.2-1.9,3.2-.1,0-.1.2-.2.4,0,.2-.7,1.4-.8,1.4,0,0,0,0,0,0,0,0-.1-.1-.2-.2-.1,0-.4,0-.5,0-.7-.2-1.4-.5-2.1-.7,0,0,0,0,0,0-.2,0-.4.1-.3.3.3.3.6.7.9,1.1.3.3.5.6.8.9,0,0,.3.2.3.2,0,0,0,.2,0,.3,0,0,.1,0,.1.2-1.1,2.3-2.3,4.7-3.2,7.1-.3.7-.8,2.3-.8,3,0,0,0,0,0,0s0,0,0,0c2.8-2,4.4-5.1,6.1-8,.3,0,.4.3.6.4,0,0,.3,0,.3.1,0,0,0,.2.2.3,0,0,.2,0,.3.2,0,0,.1.2.2.3,0,0,.1,0,.1,0,0,0-.3.5-.4.6-.5.9-1,1.9-1.6,2.8-1.3,1.9-2.7,4-4.3,5.7-.5.5-1.5,1.5-2.3,1.6,0,0,0,0,0,0-.9,0-2.9-1.3-3.5-1.9-1.1-1.2-.5-2.9-.2-4.3-.5.6-.9,1.3-1.4,1.9-1,1.3-2.6,3.6-4.2,4.2-.3.1-.5.2-.8.2s-.6,0-1-.2c-1-.3-2.4-1.2-3-2.1-.9-1.4-.4-3.4,0-4.9-.2.2-.3.4-.4.6-1.3,1.9-3.4,4.9-5.4,6.1-.6.4-1.3.6-1.8.6-3,0-4.7-5.1-5.1-7.6,0-.4,0-.8-.1-1.2,0,0,0,0,0,0s0,0,0,0c-.2,0-.7.4-.8.5-.7.6-1.3,2-1.6,2.8-.8,1.7-1.5,3.4-2.2,5.2-.1.2-.3.3-.5.3s-.3,0-.4,0c-1-.3-2.9-1.2-3.1-2.4-.1-.6.2-1.6.4-2.2,0-.2.2-.4.2-.7-.8.9-1.5,1.8-2.4,2.6-1.5,1.4-3.5,2.7-5.6,2.7s-1.1,0-1.7-.3c-1.7-.6-3.6-2.3-3.9-4.1-.1-.8,0-1.8,0-2.6,0,0-.1,0-.1.1-.9,1.1-1.7,2.5-2.6,3.6-.8,1-2.8,3.4-4.2,3.4s0,0,0,0c-1.7,0-4.1-2-4.3-3.7-.3-2.5,1.7-6.5,2.8-8.7,1.1-2.1,2.4-4,3.5-6,.6-1.1.9-2.4-.3-3.2-.1,0-.7-.4-.9-.4s0,0,0,0c0,0-.2.3-.3.3,0,0,0,.1,0,.2-4.7,6.2-8.2,13.8-13.6,19.5-.9.9-2.8,2.8-4.2,2.8s0,0-.1,0c-.8,0-2.9-1.2-3.5-1.7-2.2-1.8-.9-4.8,0-7,0,0,0-.1,0-.2l-.7.8c-1.3,1.8-2.7,3.6-4.1,5.3-.8.9-2.4,2.9-3.6,3.2,0,0-.4.1-.5.1,0,0,0,0,0,0-.6,0-2-.8-2.5-1.2-1.8-1.4-1.8-2.4-1.4-4.6.1-.7.4-1.4.5-2-.7.8-1.4,1.5-2.1,2.3-3.1,2.9-7.2,5.4-11.6,5.4s-2-.1-3-.4c-4.5-1.3-6.7-5.2-6-9.8.4-2.8,2.3-4.8,4.6-6.2,2-1.2,4.2-2,6.5-2.7,0,0,0,0,0-.1-.3-.3-.9-.6-1.3-.9-4.8-3.8-2.7-10.4,1.8-13.5,0,0,0,0,0,0,0,0,0,0,.2,0,0,0,0,0,.1,0,.1,0,.3-.2.5-.3,2.4-1.5,3.5-1.7,5.2-1.9,0,0,.2,0,.2,0,.1,0,.2,0,.3,0,.1,0,.2,0,.3,0,2.4,0,5,1,6.5,2.7.3.4.5.8.8,1.1,0,0,0,0,0,0s0,0,0,0c.6-.8,1.3-1.7,2-2.5.7-.7,1.4-1.2,2.2-1.2.5,0,1.1.3,1.6.9.3.4,1,1.8.8,2.2,0,0-1.2.8-1.3,1-1.6,1.2-3,2.9-4.1,4.5-.7,1-1.3,2-1.6,3.1,0,.3-.2.7-.5.7s-.1,0-.2,0c-.5-.5-1.5-.8-2-1.3-.2-.2-.3-.4-.3-.7,0-1.1,1.1-3.3,1.7-4.2.2-.3.6-.7.7-1,0,0,0,0,0-.1-.9-.4-1.9-.8-2.9-.9-.3,0-.6,0-.8,0-1,0-2.1.2-3,.5-1.9.6-3.9,1.8-5.1,3.4-3,3.8-.7,6.6,3.1,6.6s1,0,1.5-.1c.4,0,.6-.2.8-.2.2,0,.4.1.6.5.4.8.8,2.5.5,3.4,0,.3-.2.5-.5.7-2.5,0-5.1.7-7.5,1.6-2.2.8-5.5,2.4-6,5-.8,3.6,1,6.2,4.8,6.2s0,0,0,0c4.5,0,10-4.1,13-7.2,1-1,1.5-1.7,2.2-3,1.8-3.3,3.8-6.8,6.2-9.8.6-.7.9-1.2,1.9-1.2,0,0,.2,0,.2,0,1.1,0,2.7,1.1,3.1,2.1.3.6.1.8-.2,1.3-.6.9-1.3,1.7-1.9,2.6-2.9,4.2-5.5,8.8-7.4,13.6l-.4,1.6s0,0,0,0c.1,0,.5-.2.6-.3.9-.6,1.8-1.6,2.5-2.4,2-2.3,4.1-5,6-7.4,2.3-2.9,4.4-6.1,6.7-9,.2-.3.9-1.1,1.1-1.2.2-.1.5-.2.8-.2,1.3,0,2.7,1.1,3.2,2.1.3.6.3.8,0,1.3-.2.4-.5.8-.8,1.2-1.9,3-3.8,5.9-5.5,9.1-1.1,2-2.2,4.2-2.5,6.5,0,0,0,0,0,0s0,0,0,0c2.1-.8,4.4-3.8,5.7-5.6,3.3-4.3,5.9-9,9.1-13.4,0-.1.4-.4.3-.5-1-.5-1.9-1.1-2.3-2.2-1.1-3.3,2.3-9,5.6-9.8.3,0,.7-.1,1-.1,1.2,0,2.6.5,2.9,1.8.5,2.1-1.2,5.4-2.3,7.1-.4.6-.8,1.1-1.1,1.7,0,0,0,0,0,.1,1.6.3,3.4.6,4.9,1.3,1.5.7,2.5,1.9,1.8,3.6-.9,2.2-2.8,4.3-4.1,6.4-1,1.6-2,3.2-2.9,4.9-.4.7-1.5,2.7-1.5,3.4s0,.5,0,.7c0,0,0,0,0,0s0,0,0,0c0,0,.5-.2.5-.2,2.2-1.1,4.6-4.9,5.9-7,2.1-3.2,3.8-6.7,6.4-9.6,1.6-1.7,3.6-3.2,5.8-3.2.8,0,1.6.2,2.4.6,2.1,1,2.9,2.9,2.3,5.1-.8,2.7-3.7,6.7-6.2,8.2-.3.2-.7.4-1,.4s-.2,0-.2,0c-.5-.1-1.2-1.6-1.8-2-.3-.2-1-.5-.9-.9,0-.1.1-.2.3-.2.2,0,.5,0,.6,0,0,0,0,0,0,0,1.5,0,3.4-2.5,4.2-3.6.6-.9,2-2.9,1.9-4,0-.2-.3-.5-.5-.5,0,0,0,0,0,0-.3,0-1,.4-1.2.5-2.1,1.4-3.9,4.4-5,6.6-.8,1.5-1.6,3.5-2.1,5.3-.4,1.6-.8,4.4,1.3,4.4s.5,0,.8-.1c2.9-.7,6.6-5.2,8.2-7.7,4.2-6.3,7.2-13.5,10.8-20.2.4-.8,1.1-2.2,1.6-2.9.3-.4.8-.5,1.3-.5M61.1,18.1s0,0,0,0c.9-1.4,1.9-2.8,2.6-4.3.2-.5.8-1.9.1-1.9-.1,0-.2,0-.4.1-1.1.5-2.1,2.5-2.5,3.6,0,0,0,0,0,0,0,0,0,0,0,.1-.2.6-.3,1.2-.1,1.8,0,.1.2.5.4.5M91.1,31.7c.4,0,.9-.2,1.3-.3,2.7-1.2,6.1-5.1,7.4-7.7,0,0,0,0,0,0,.1-.3.5-1.1.5-1.4,0-.4-.1-.6-.4-.6-.3,0-.8.3-1.1.5-2,1.3-4.3,4.3-5.8,6.2-.9,1.1-1.7,2.2-2.5,3.3.2,0,.4.1.5.1M107,38.7c.1,0,.5-.2.6-.3,2-1.1,4.8-4.6,6.2-6.5.3-.4.8-.9,1-1.4.2-.4.4-.9.6-1.3.9-1.9,1.9-3.8,3-5.6,0-.7-.9-1.7-1.7-1.7,0,0,0,0,0,0-1.3,0-3,2.4-3.7,3.3-1.2,1.6-2.4,3.5-3.3,5.3-1,1.9-2.9,5.6-2.7,7.7,0,0,0,.4,0,.5,0,0,0,0,0,0M97.2,6.3s0,0,0,0c-1,0-1.9.4-2.5,1.1-.5.6-1,1.6-1.4,2.4-.1.3-.3.5-.4.7-1.3,2.4-2.6,4.9-3.8,7.4-.8,1.5-1.6,3.1-2.4,4.7-.3-1.8-1.4-3.2-3.3-4.1-1-.5-2-.7-3-.7-2.4,0-4.7,1.2-6.9,3.6-.7.7-1.3,1.5-1.9,2.3.6-2-.4-4-2.7-5-1-.5-2.1-.7-3.1-1,0,0,0,0,0,0,2.1-3.5,3-6.3,2.5-8.2-.4-1.8-2.1-2.9-4.4-2.9-.5,0-.9,0-1.4.2-2.5.6-4.5,3-5.7,5-1.3,2.4-1.7,4.8-1,6.7.3.9.8,1.6,1.6,2.2-1.2,1.7-2.3,3.5-3.4,5.2-1.6,2.5-3.3,5-5.1,7.4l-.2.3c-.3.4-.7.9-1.1,1.5.2-.4.4-.7.6-1.1,1.4-2.7,3-5.2,4.7-7.8l.8-1.2.2-.3c.2-.3.4-.6.6-.9.6-1.1.5-1.9,0-2.8-.8-1.4-2.7-2.8-4.5-2.8-.5,0-1,.1-1.4.3-.5.2-.9.7-1.6,1.5h0c-1.3,1.7-2.6,3.4-3.8,5.1-1,1.3-1.9,2.7-2.9,3.9l-.7.9c-1,1.3-2,2.6-3.1,3.9,1.3-2.6,3-5.3,4.9-8.1.3-.4.6-.8.8-1.2.4-.5.7-1,1.1-1.5.4-.6.9-1.4.3-2.8-.7-1.6-2.9-2.9-4.4-3-.1,0-.2,0-.4,0-1.6,0-2.3.9-2.9,1.6h-.1c-2.5,3.2-4.4,6.7-6.3,10.1-.7,1.2-1.1,1.8-2,2.7-3.2,3.3-8.3,6.7-11.9,6.7h0c-.9,0-2.1-.2-2.9-1.1-.6-.7-.8-1.9-.4-3.2.3-1.4,2.1-2.7,5.1-3.9,2.4-.9,4.8-1.4,7-1.5h.5s.4-.3.4-.3c.3-.2.9-.6,1.1-1.5.3-1.3-.1-3.4-.7-4.5-.5-.9-1.1-1.3-1.9-1.3-.3,0-.6,0-.8.1,0,0-.2,0-.3,0-.4,0-.9.1-1.3.1-1.4,0-2.5-.5-2.8-1.2-.3-.7,0-1.8.9-3,1-1.3,2.7-2.4,4.4-2.9.8-.2,1.7-.4,2.5-.4s.5,0,.6,0c.3,0,.6.1.9.2-1.8,3.1-1.7,4.3-1.7,4.7,0,.7.3,1.2.8,1.7.4.4.9.6,1.3.9.3.2.6.3.7.5l.2.2h.3c.2.2.5.2.7.2.7,0,1.5-.3,1.9-1.7h0c.2-.9.6-1.7,1.3-2.7,1.1-1.7,2.5-3.2,3.8-4.2,0,0,.2-.1.4-.3,1-.7,1.3-.9,1.5-1.4.5-1.5-1-3.6-1.1-3.7-1-1.2-2-1.5-2.8-1.5-1.1,0-2.2.6-3.2,1.6-.3.4-.7.7-1,1.1-1.8-1.8-4.6-3-7.4-3-.1,0-.2,0-.4,0-.1,0-.2,0-.4,0,0,0-.1,0-.3,0-1.8.3-3.1.5-5.7,2.1-.2.1-.4.2-.5.3,0,0-.1,0-.2.1h0s-.1,0-.1,0l-.3.2h0c-2.9,2.2-4.8,5.5-4.9,8.7,0,2.4.8,4.6,2.5,6.2-1.6.6-2.9,1.2-4.2,2-3,1.9-4.9,4.4-5.3,7.3-.8,5.5,2,10,7.1,11.5,1.1.3,2.3.5,3.4.5,4.8,0,8.9-2.7,11.5-4.8.1,1.2.7,2.3,2.2,3.5,0,0,2,1.5,3.4,1.5.1,0,.4,0,.9-.2,1.4-.4,2.8-2,4.2-3.7.4-.4.7-.9,1.1-1.3.2.9.7,1.8,1.6,2.6.8.6,3.1,2,4.3,2.1,0,0,.2,0,.3,0,1.5,0,3.2-1.1,5.3-3.2,3.3-3.5,6-7.7,8.5-11.8,1.4-2.3,2.9-4.6,4.4-6.8,0,.1-.1.3-.2.5-.5.9-1.1,1.9-1.7,2.8-.6,1-1.3,2.1-1.9,3.2-2.3,4.4-3.3,7.5-3,9.6.3,2.6,3.5,4.9,5.8,5h0s0,0,0,0c1.9,0,3.8-2,5.4-4,.1-.2.3-.3.4-.5.8,1.9,2.7,3.3,4.4,4,.7.3,1.5.4,2.3.4,2.5,0,4.7-1.4,6.2-2.8.9,1.5,3,2.4,3.9,2.6.2,0,.5.1.8.1.7,0,1.3-.3,1.7-1h0c0-.1,0-.3,0-.3.7-1.6,1.4-3.4,2.2-5.1l.2-.4c0,0,0-.1,0-.2.9,3.1,2.8,7,6.1,7s1.7-.3,2.6-.8c1.2-.7,2.3-1.9,3.4-3.2.1.3.2.6.4.9.8,1.3,2.5,2.3,3.8,2.7.4.1.9.3,1.4.3s.9,0,1.4-.3c1.3-.6,2.4-1.7,3.5-3.1.1.3.3.6.6.8.7.7,3.1,2.4,4.6,2.4s.1,0,.2,0c1,0,2-.7,3.2-2,1.5-1.6,2.7-3.4,3.9-5.2l.5-.7c.5-.8,1-1.7,1.5-2.6v-.3c.1,0,.1,0,.1,0,.7-.8.8-1.6.3-2.2l-.3-.5h-.2c0,0,0-.1-.1-.1,0,0,0,0-.1,0,0,0-.1-.2-.2-.3-.2-.2-.4-.3-.5-.3-.2-.2-.5-.5-1-.6l-1-.3h0c0-.1,0-.4,0-.4,0-.2,0-.4-.1-.6.7-.2,1-.6,1.6-1.9,0,0,0-.1,0-.2h0s.2-.5.2-.5c.2-.4.5-.9.8-1.4.4-.6.8-1.2,1-1.8.4-.9.3-1.8-.3-2.7-.8-1.2-2.5-2.1-3.8-2.1,0,0-.1,0-.2,0-1.1,0-1.9,1-2.4,1.6-1.4-1.5-2.9-2.2-4.6-2.2-2.7,0-5.4,1.8-8.1,5.4-.3.3-.5.7-.7,1,.2-2.2-.9-4.1-3.1-5.2-.9-.4-1.7-.6-2.5-.6-1,0-1.9.3-2.6.8.6-1.1,1.3-2.3,1.9-3.4.4-.6.7-1.3,1.1-1.9,0,0,.1-.2.2-.3.6-1,.9-1.5,1-1.9.1-.8-.1-1.6-.7-2.4-1-1.1-2.7-2-4.2-2h0ZM109,35.3c.4-1,1-2.3,1.9-4.1,1.1-2,2.2-3.7,3.2-5.1,1.5-1.9,2.2-2.5,2.5-2.7,0,0,0,0,0,0-.9,1.6-1.8,3.2-2.7,5.1,0,.2-.2.4-.3.6,0,.2-.2.4-.3.6-.1.2-.4.5-.6.8-.1.1-.2.3-.3.4-.7.9-2.2,2.8-3.6,4.3h0ZM96,34.8c.3-.1.5-.2.6-.3,1.5-.8,3.2-2.1,4.7-3.5-1.2,1.9-2.4,3.6-3.9,5.2-.2.2-.4.5-.6.6-.2-.1-.3-.3-.4-.5-.2-.4-.4-.9-.5-1.5h0ZM74.4,37.6c-.1-.3-.2-1.1.2-2.5.2-.7.4-1.4.7-2.2,0,0,0,.1.1.2.5.8,1,1.5,1.9,1.7.2,0,.4,0,.6,0s.5,0,.8-.1c-1.3,1.4-2.8,2.5-3.9,2.8-.2,0-.3,0-.4,0s0,0,0,0h0Z"/>
    </g>
  </g>
  <g>
    <path class="st0" d="M145.1,46.3c-.1,0-.2,0-.5-.3,0,0,0,0-.1,0-.3-.2-.6-.3-1-.5h-.3c0-.2-.2-.2-.3-.3,0,0-.1-.1-.2-.1-.2,0-.3-.1-.3-.2,0,0,0,0-.1,0-.2,0-.3,0-.4-.1-.1,0-.2-.1-.3-.2,0,0,0,0,0,0s0,0,0,0-.1,0-.2,0c-.1,0-.5-.5-.6-.5,0,0,0,0,0,0,0,0,0,0-.1,0-.3,0-.5-.4-.6-.5,0,0,0,0,0-.1,0,0,0,0-.1,0s-.2,0-.2,0c-.2,0-.2-.2-.3-.4,0,0,0,0,0,0,0,0-.1,0-.2,0s0,0-.1,0c-.2,0-.3-.3-.4-.4,0,0,0-.1,0-.1,0,0-.1,0-.1,0-.3,0-.4-.2-.5-.5,0,0,0,0,0-.1,0,0,0,0,0,0,0,0-.2,0-.2,0-.2-.1-.3-.4-.4-.6,0,0,0,0,0-.1,0,0,0,0-.1,0-.3,0-.4-.3-.4-.4,0-.1,0-.2-.1-.2,0,0-.2-.1-.2-.2,0,0,0,0,0-.1,0,0,0,0,0,0,0,0-.1,0-.2,0-.2,0-.3-.3-.3-.5,0,0,0-.1,0-.1h0s-.1-.2-.1-.2v.2c-.3,0-.5-.5-.6-.8-.1,0-.2,0-.3,0,0,.2,0,.4,0,.5,0,0,0,.1,0,.2,0,0,0,.1,0,.2,0,.1,0,.3,0,.5,0,.1,0,.2,0,.3,0,0,0,0,0,0,0,0,0,0,0,.1,0,0,0,.1,0,.2,0,.1,0,.3,0,.3,0,.5-.1.8-.2,1.3v.4c-.2.5-.3.9-.4,1.4,0,.1-.1.2-.2.2h-.1c-.1,0-.2,0-.2-.2,0-.3-.1-.6-.2-.9v-.2c-.1-.3-.2-.5-.3-.7,0,0,0-.1-.1-.2,0-.1-.2-.3-.2-.4,0,0,0-.2,0-.3,0,0,0-.1,0-.1,0,0-.2-.1-.2-.3,0,0,0-.2,0-.3,0,0,0,0,0-.1,0,0-.1-.1-.2-.2,0-.2,0-.3,0-.5,0,0,0-.1,0-.2,0,0,0,0,0,0-.1-.2,0-.4,0-.6,0,0,0-.1,0-.2,0,0-.1-.2-.1-.3,0-.2,0-.4,0-.5,0,0,0-.1,0-.2,0,0,0-.1,0-.2,0-.2,0-.4,0-.7,0-.2,0-.4,0-.5-2.4,2.6-4.8,5.5-7.6,9.2-.1.1-.2.2-.3.2s-.2,0-.3-.1c-.1-.2-.1-.5,0-.7,0-.1.2-.3.4-.7h0c1.1-1.8,2.5-3.5,3.9-5.2.6-.7,1.3-1.4,1.9-2.1.2-.2.4-.4.6-.6,0,0-.2.1-.4.1s-.1,0-.2,0c0,0-.1,0-.2,0,0,0,0,0,0,0-.1.1-.3.3-.6.3-.2,0-.2,0-.3-.1,0,0,0,0,0,0-.1,0-.2.2-.4.2s0,0-.1,0c0,0-.1,0-.2,0,0,0-.1.2-.2.2s-.2,0-.2,0c0,0,0,0-.2,0,0,0,0,0-.2,0-.1,0-.3,0-.4,0-.1,0-.2,0-.3,0,0,0-.1,0-.2,0,0,0-.2,0-.2,0-.2,0-.3,0-.3-.1,0,0-.1,0-.2,0s-.1,0-.2,0c0,0-.2,0-.2,0-.2,0-.3,0-.4-.1,0,0-.1,0-.2,0-.2,0-.3,0-.4-.1,0,0-.1,0-.2,0,0,0-.2,0-.3,0-.2,0-.4,0-.5,0-.2,0-.4,0-.6,0s-.3,0-.3-.2c0-.3.1-.3.2-.4.1,0,.3-.1.6-.2.1,0,.3,0,.4-.1.5-.2,1.1-.5,1.5-.7.1,0,.2-.2.3-.2,0,0,.1,0,.1,0,0,0,0,0,.1,0,0,0,.1-.1.3-.1h0s0,0,.1,0c0,0,0,0,0,0,.1-.2.3-.2.4-.2h.2s0-.1.2-.1c0,0,.3,0,.4,0h.1c.1,0,.3,0,.4,0,.1,0,.2,0,.3,0,.1,0,.2,0,.3-.1-.2,0-.5-.2-.5-.3,0,0,0-.1,0-.2,0,0,0,0-.1,0s0,0,0,0c-.2,0-.5,0-.7-.1-.1,0-.2-.1-.2-.3,0,0,0,0,0,0h0c0,0-.9-.1-1-.5,0,0,0,0,0-.1,0,0,0,0-.1,0-.3,0-.5,0-.7-.1,0,0-.2-.2-.1-.4,0,0,0,0,0,0-.2,0-.5,0-.6-.3,0,0,0,0,0-.1-.2,0-.3,0-.4-.2,0,0,0-.1,0-.2,0,0-.2,0-.3-.2-.1-.1-.1-.2-.1-.3,0,0,0,0,0,0,0,0-.2,0-.2,0-.1,0-.2,0-.2-.1,0,0,0-.2,0-.3,0,0,0,0,0,0-.2,0-.3-.2-.4-.3-.1-.1-.2-.2-.4-.3,0,0,0,0-.1,0,0-.1,0-.2,0-.3-.2-.1-.4-.2-.5-.3,0-.1,0-.2-.1-.3,0,0-.1,0-.2-.1-.1,0-.3-.2-.4-.3,0-.1,0-.2,0-.3,0,0,0,0-.1-.1-.2-.1-.3-.2-.3-.3,0,0,0-.2,0-.2,0,0-.2-.2-.3-.2-.1,0-.2-.2-.3-.2,0,0-.1-.2-.2-.3,0,0,0-.1-.1-.2,0,0-.1-.1-.2-.2-.1-.1-.3-.3-.3-.4,0,0-.1-.2,0-.3,0,0,0-.1.1-.2,0,0,0,0,.1,0s0,0,0,0c.5.1.9.3,1.4.5.3.1.6.2.9.3.1,0,.2,0,.3,0,0,0,.2,0,.3.2,0,0,.3.2.3.2,0,0,0,0,.2,0h0c.2,0,.4.2.5.3,0,0,0,0,0,0,0,0,.1,0,.2,0s.1,0,.1,0c.1,0,.2.1.4.3,0,0,0,0,0,0,0,0,0,0,0,0h0c.2,0,.6.2.7.2,0,0,.1.1.2.2,0,0,0,0,.2,0,0,0,.2,0,.3,0,.1,0,.2.2.2.3,0,0,.2,0,.3.1,0,0,0,0,0,0,0,0,0,0,.1,0,0,0,.2,0,.3.1.1,0,.2.2.3.3,0,0,0,0,0,0,0,0,.1,0,.2,0,.3,0,.5.3.7.6,0,0,0,0,.1,0s.2,0,.2,0c.2.1.2.3.3.5,0,0,0,0,0,0,0,0,0,0,0,0,.1,0,.2,0,.3.1,0,0,0,.1.2.2,0,0,0,0,0,0,0,0,.1,0,.2,0,.3,0,.4.2.6.4,0,0,0,.2.1.2,0,0,0,0,0,0,0,0,0,0,.1,0,.2,0,.4.2.5.5,0,0,0,0,0,0,0,0-.1-.2-.2-.4-.3-.4-.5-.7-.4-1,0,0,0,0,0-.1,0,0,0-.1-.1-.2-.1-.2-.3-.5-.3-.7,0-.1,0-.3.2-.4,0,0-.1-.2-.2-.3,0-.1-.2-.3-.2-.3,0,0-.2-.5-.2-.6,0-.1,0-.3.3-.4,0-.1-.2-.4-.3-.5-.3-.6-.5-.9-.4-1.2,0-.1,0-.3.3-.3,0,0,0,0,0,0-.2-.5-.4-1,0-1.2,0,0,0,0,.1,0l-.3-1.6s0,0,0-.1c0-.2.2-.3.3-.3h0s0,0,0-.1c-.1-.5-.2-1,0-1.2,0,0,0-.1.1-.2,0,0,0-.2,0-.4,0-.1.1-.2.2-.2,0,0,0-.2,0-.2,0-.2,0-.3,0-.4,0-.2,0-.3.2-.4,0,0,0-.1,0-.2,0-.1-.1-.3,0-.6,0-.2.2-.4.3-.4,0-.1-.1-.3,0-.6,0,0,0,0,0,0,0,0,0-.1,0-.2,0-.1,0-.3,0-.4,0-.1,0-.2.1-.3,0-.1,0-.2,0-.3,0-.1,0-.2,0-.3,0,0,0,0,0-.1,0-.3,0-.6,0-.9,0-.2,0-.4,0-.6,0-.2.1-.4.3-.4s.2,0,.2,0c0,0,0,0,.3.8,0,.2.1.4.2.5,0,.1.1.3.2.4.1.2.2.4.3.7.1.1.2.2.2.4,0,.1,0,.2,0,.3,0,0,0,0,0,0,.1,0,.2,0,.3.3,0,.2.1.5.2.7,0,0,0,0,0,0,0,0,0,0,0,0,0,0,.2,0,.2,0,0,0,.1.2,0,.7,0,0,0,0,0,.1,0,0,0,0,0,0,.2.1.3.5.3.9,0,0,.2,0,.3.3,0,0,0,.1,0,.2,0,.4,0,.6,0,.8,0,0,0,0,0,0,0,0,.2,0,.3.2,0,.1,0,.2,0,.3,0,0,0,.1,0,.2,0,0,0,.3,0,.5,0,.1,0,.3,0,.4,0,0,0,0,0,0,0,0,.3,0,.3.3,0,.1,0,.4,0,.8,0,0,0,.2,0,.3,0,0,0,0,0,0,0,0,0,0,.1,0,0,0,.2,0,.2.2,0,.3,0,.6,0,.9.1,0,.2.2.3.3,0,.2,0,.5-.3,1.1,0,0,0,.2,0,.2,0,0,.2,0,.2,0,.2.1.2.4-.1,1.4.1,0,.2,0,.3.2.1.3,0,.9-.2,1.3,0,0,0,.1,0,.2,0,0,0,0,0,0,0,0,0,.1,0,.2,0,0,0,.2,0,.2,0,0,0,0,0,0,0,0,0,0,0,0,0,0,0,0,.1,0,0,0,0,0,0,0,.1-.3.3-.8.5-1.1.1-.2.3-.6.4-.6,0,0,.1,0,.2,0s0,0,0,0c0,0,0-.1,0-.2.1-.5.3-1,.6-1.2.1-.1.2-.2.4-.2s.1,0,.2,0c0-.1.1-.4.2-.5,0-.2.1-.4.2-.5,0,0,.4-.6.5-.6,0,0,.1,0,.2,0s0,0,.1,0c.2-.9.4-1.5.9-1.6,0,0,0,0,0,0,0,0,0,0,.1,0,0,0,0-.2.1-.2.4-.7.5-.8.5-.8,0,0,.1,0,.1,0,0,0,.1,0,.2,0,0,0,0,0,0-.1,0-.2.6-1.3.9-1.3s0,0,.1,0c0,0,0,0,.1.1,0,0,0-.1,0-.2.2-.5.5-.9.7-1,0,0,.1,0,.1,0,.2,0,.3.1.3.2,0,0,0-.2.1-.3.1-.3.3-.5.4-.6,0,0,.5-.5.6-.6,0,0,.1,0,.3,0,0,0,.1,0,.1,0,0,0,0,0,0,0,0-.1.2-.2.2-.3.3-.4.6-.6.8-.6s0,0,0,0c0,0,0-.1.1-.2.2-.2.5-.7.8-.7,0,0,.1,0,.2,0l.5-.5c0,0,.2-.1.2-.1s.1,0,.1,0c0,0,.2-.2.3-.3,0,0,.2-.2.2-.2.3-.2.6-.5.9-.7.4-.3.8-.6,1.2-.9,0,0,0,0,0,0,.1-.1.3-.3.5-.3h0c0,0,.2,0,.2.1,0,0,0,.2,0,.3-.2.3-.3.5-.4.8,0,.1-.1.2-.2.4,0,0,0,.1-.1.2,0,0,0,0,0,.1,0,0,0,0,0,.1,0,0,0,.2,0,.2,0,.1-.1.2-.2.3,0,0-.1.1-.1.2,0,0,0,.2-.1.3,0,.2-.1.3-.2.4,0,0,0,.1-.1.2h0s0,0,0,.2c0,.2-.2.4-.3.6,0,0-.1.1-.1.2.1,0,.2.3,0,.5,0,0-.2.2-.4.5,0,.1-.2.2-.3.3,0,0,0,.2,0,.3,0,.2-.1.2-.2.3,0,0,0,.1,0,.2,0,.2-.5.7-.5.7,0,0,0,0-.1.1,0,0,0,0,0,0,0,.2,0,.4-.2.5,0,0,0,0,0,0,0,0,0,.1-.1.2,0,0-.2.2-.3.3,0,0-.2.2-.3.3.1,0,.2.2.2.3,0,.1,0,.3-1,1.2.1,0,.2.2.2.3,0,.2-.8.9-.8.9,0,0-.2.1-.3.2,0,0,0,0-.1,0,0,0,.1.1.1.2,0,0,0,.2,0,.2,0,0-.2.2-.3.3,0,.1-.2.2-.3.3,0,0-.2.1-.2.2,0,0-.2.1-.2.1,0,0,0,.1,0,.2,0,0,0,.2,0,.2,0,0-.1.1-.2.2,0,0-.2.1-.3.2-.1,0-.3.1-.4.2-.1,0-.2.1-.4.2,0,0,0,0-.1,0,0,0,0,0,0,0,0,0,.1.1.1.3,0,0,0,.1,0,.2,0,.1-.2.2-.3.3,0,0,0,0,0,0,0,0-.2.1-.2.2h-.1c0,.1-.2.2-.3.3-.1,0-.2.2-.3.3.1.2.1.3,0,.5-.1.2-1.1.8-1.1.8-.1,0-.2,0-.2.1,0,0,0,0,0,0,0,0-.1.4-.2.4-.2.2-1.2.9-1.2.9,0,0-.2,0-.3.1,0,0,0,0,0,0,0,0,0,0,0,0,0,0,0,0,0,0,.2,0,.4-.2.5-.2s.1,0,.1,0c0,0,.1,0,.2.1,0,0,.2,0,.2-.1,0,0,.2-.1.2-.1.2,0,.6-.3.9-.3,0,0,.2,0,.3,0,0,0,0,0,0,.1,0,0,.2-.1.3-.1.4-.2.6-.3.8-.3,0,0,0,0,0,0,.1,0,.3,0,.3.2,0,0,0,0,0,0,.1,0,.2-.1.2-.1.5-.3.7-.3.8-.3,0,0,0,0,0,0,0,0,.2,0,.3,0,0,0,0,0,0,.1,0,0,0,0,0,0,.2,0,.3-.2.4-.2.1,0,.2,0,.3,0,.2,0,.3,0,.4.2,0,0,0,0,0,0,0,0,.1,0,.2,0,.1,0,.3,0,.5-.1.1,0,.2,0,.3,0,0,0,0,0,0,0,.1,0,.2,0,.3.1,0,0,0,.1.1.2,0,0,.1,0,.2,0,.2,0,.5-.2.7-.2s.2,0,.2,0c.1,0,.2.1.2.2h0c.3,0,.6,0,1,0s.1,0,.1,0c.1,0,.2.1.2.2.2,0,.3,0,.5,0s.2,0,.3,0c.1,0,.2.2.2.2,0,0,.2,0,.3,0,.1,0,.3,0,.4,0s.3,0,.5.2c0,0,0,0,0,0,0,0,.1,0,.2,0,.3,0,.6,0,.8.2,0,0,.1.1.1.2,0,0,0,0,0,0,0,0,.2,0,.3,0,.4,0,.8.1,1.1.2.4,0,.8.2,1.2.2h0c.2,0,.2,0,.3.1,0,0,0,.2,0,.3,0,.2-.4.3-.6.3,0,0,0,0-.1,0-.3,0-.5.2-.8.3-.3.1-.6.2-1,.3-.1,0-.2,0-.3,0,0,0,0,0,0,0-.1.1-.3.3-.6.4-.1,0-.2,0-.2,0,0,0,0,0,0,0-.2.2-.4.2-.5.2,0,0,0,0-.1,0,0,0,0,0,0,0,0,.1-.1.2-.2.2-.1,0-.3,0-.5,0-.2,0-.3,0-.4,0,0,0-.2.2-.3.3,0,0-.2,0-.3,0,0,0-.2,0-.2,0,0,0,0,.1,0,.2,0,.1-.2.2-.7.2s-.3,0-.4,0c0,0,0,0,0,0,0,.2,0,.3-.2.4,0,0-.2,0-.3,0-.2,0-.5,0-.7-.1,0,.2,0,.3-.2.3-.1,0-.2,0-.4,0-.2,0-.5,0-.7-.1,0,0,0,.1,0,.2,0,0-.1.1-.2.1h-.9c0,0,0,0,0,0,0,0-.2.1-.3.1,0,0,0,0,0,0,0,0,0,0,0,0l-1.1-.4s0,0,0,0c0,0,0,.2,0,.2,0,0-.1,0-.2,0-.4,0-.8-.1-1.2-.3,0,0,0,.2,0,.2,0,0-.1,0-.2,0s0,0,0,0c-.1,0-.3,0-.4,0-.2,0-.4,0-.5,0,0,0-.1,0-.3-.1,0,0,0,0,0,0,0,0-.2.1-.3.1s0,0-.1,0l-1.2-.4s0,0,0,0c.2,0,.3.2.4.3,0,0,0,0,0,0,0,0,.1,0,.2.1,0,0,0,.1,0,.2.2,0,.9.3,1,.5,0,0,0,.2,0,.3.1,0,.2,0,.3.1,0,0,.1.1.2.2.2,0,.3,0,.4.2,0,0,0,.1.1.2,0,.1.2.2.3.3.1,0,.2.1.2.2,0,0,0,.2,0,.2,0,0,.1,0,.2.1.2,0,.2.1.3.2,0,.1,0,.3,0,.3h0s0,0,.1,0c.1,0,.2.2.3.3,0,0,0,.1.1.2,0,0,0,.2.1.2,0,0,.2,0,.2.1,0,0,0,.1,0,.2,0,.1.2.3.4.4.3.3.3.3.4.4,0,0,0,.2,0,.2,0,0,0,0,0,0,0,0,0,0,.1,0,.1.1.3.2.3.4,0,.1,0,.2,0,.3,0,0,0,0,0,0,0,0,0,0,0,0,.1,0,.2.2.3.3,0,0,0,.1,0,.2,0,0,0,0,0,0,0,0,.2.2.2.3,0,0,0,.2,0,.2,0,0,0,0,0,0,0,0,0,0,.1.1,0,0,0,.2.1.2,0,0,0,.1,0,.2.1.2.3.4.5.6.1.2.3.4.4.6,0,0,.1.2.1.4,0,0,0,0,0,.1,0,0-.1,0-.2,0Z"/>
    <path class="st1" d="M130.4,13.1s0,0,0,0c0,0,.3,1,.4,1.2.2.4.3.7.4,1.1,0,.1.2.2.2.4,0,.1,0,.3,0,.4,0,.1.2,0,.3.2.1.2.1.8.2.9,0,0,0,0,.1,0s.1,0,.1,0,0,0,0,0c0,0,0,.9,0,.9,0,0,0,0,0,0,0,0,0,0,0,0s0,0,0,0c.2.1.1,1,.2,1.1,0,0,0,0,0,0,0,0,.1-.1.2-.1s0,0,.1.1c0,.2,0,1.1.1,1.2,0,0,0,0,0,0,0,0,.1,0,.2,0s0,0,0,0c0,0,0,.2,0,.3,0,0,0,.1,0,.1,0,.2,0,1.3,0,1.3,0,0,0,0,0,0,0,0,.2-.1.3-.1s0,0,0,.1c0,.2,0,.6,0,.7,0,.2-.2.6,0,.6s0,0,.2,0c0,.4,0,.8-.1,1.2,0,0,0,0,0,0,0,0,.2,0,.3,0s0,0,0,0c0,.2-.4,1.2-.5,1.4,0,0,0,0,.1,0s.1,0,.2,0,0,0,0,0c.1,0-.3,1.3-.3,1.5,0,0,0,0,0,0,0,0,.2-.1.3-.1s0,0,0,0c.1.4-.2,1.2-.3,1.6,0,0,0,0,0,0s0,0,.1,0,0,0,0,0c0,.6-.2,1.1-.4,1.6,0,0,0,0,0,0,.1,0,.2-.2.2-.2,0,0,0,0,0,0,0,0,0,0,0,0,0,.1-.1.4-.2.6,0,.1-.7,1.6-.5,1.6l.4-.7c.3-.8.4-1.6.7-2.4,0,0,0,0,0,0,.1,0,0,.2.1.2,0,0,0,0,0,0,0,0,.1-.3.2-.4.1-.3.3-.8.5-1.1,0,0,.2-.5.3-.5,0,0,0,0,0,0,0,0,.1,0,.2,0s0,0,0,0c.2-.4.4-1.3.7-1.6,0,0,.1-.1.2-.1,0,0,.1,0,.2,0s0,0,0,0c.2-.1.4-.9.5-1.2,0,0,.4-.5.4-.6,0,0,0,0,0,0,0,0,.1.2.2.2s0,0,0,0c.1-.3.4-1.7.7-1.7,0,0,0,0,0,0,0,0,0,.1.1.2,0,0,0,0,0,0s0,0,0,0c0-.1.2-.4.2-.5,0-.1.4-.7.4-.7,0,0,0,0,0,0,.1,0,.2.2.3.2s0,0,0,0c0,0,0-.3.1-.4,0-.2.6-1.1.7-1.1,0,0,.2.3.3.3s0,0,0,0c.1,0,.5-1.2.9-1.3,0,0,0,0,0,0,.1,0,.2.3.4.3s0,0,0,0c0,0,.5-.9.6-1.1,0-.1.4-.5.5-.6,0,0,0,0,.1,0s0,0,0,0c0,0,0,.2,0,.2s0,0,0,0c0,0,.4-.5.4-.6,0,0,.5-.5.6-.5s0,0,0,0c0,0,.1,0,.2,0s0,0,0,0c0,0,.1-.3.2-.3,0-.1.5-.6.6-.6,0,0,0,0,0,0,0,0,.1,0,.2,0s0,0,0,0l.6-.6s0,0,0,0c0,0,.1,0,.2,0,0,0,0,0,0,0,0,0,.6-.5.7-.6.7-.5,1.4-1,2.1-1.6.1-.1.2-.3.5-.3-.3.4-.4.8-.6,1.2,0,.1-.2.3-.2.3,0,.1,0,.2,0,.4,0,.1-.2.3-.3.4,0,.2-.2.6-.3.8,0,0-.2.2-.2.3,0,0,0,.1,0,.2,0,.2-.4.5-.5.7,0,.1.2.3,0,.5,0,.2-.8.8-.8.9,0,0,0,.2,0,.3,0,.1-.2.1-.2.2,0,0,0,.1,0,.2,0,.1-.4.5-.4.6,0,0-.2.1-.2.2-.1.2,0,.1,0,.2,0,.2,0,.2-.1.3,0,0,0,.2-.2.3-.1.2-.6.6-.7.7,0,.2.2.3.2.4,0,.1-.8.9-1,1,0,0-.1,0-.2,0-.2.2.3.2.3.4,0,0-.6.7-.7.7,0,0-.6.4-.6.4,0,0,.1.2.2.3-.2.2-.4.5-.6.6-.2.2-.8.3-.4.7-.1,0-.3.3-.5.4-.2.1-.5.2-.8.4,0,0-.3,0-.3.1,0,.2.2.3.3.5,0,0-.3.2-.4.2-.1.1-.2.1-.3.2-.3.2-.5.4-.8.6,0,.1.3.2.2.5,0,0-.9.6-1,.7,0,0-.2,0-.2.1,0,0-.2,0-.2,0,0,0,0,.2,0,.2,0,0-.1.3-.1.3-.1.1-.9.7-1.1.8,0,0-.5.2-.5.2,0,0,0,.2,0,.2,0,.2-.3.4-.4.4,0,0-.7.3-.6.4,0,0,0,0,0,0,.5,0,1.3-.7,1.7-.7s0,0,0,0c0,0,0,.1,0,.2,0,0,0,0,0,0,.2,0,.5-.3.6-.3.2,0,.6-.2.8-.3,0,0,0,0,0,0,.1,0,0,.3,0,.3,0,0,0,0,0,0,.1,0,.5-.2.6-.3.2,0,.5-.2.7-.2,0,0,0,0,0,0,.2,0,0,.3.2.3s0,0,0,0c0,0,.4-.3.5-.3.1,0,.6-.3.7-.3,0,0,0,0,0,0,.2,0,0,.3.1.3s0,0,0,0c.1,0,.6-.3.8-.3,0,0,.2,0,.2,0s.1,0,.1,0c0,0,0,.3,0,.3s0,0,0,0c.1,0,.3-.2.4-.2.2,0,.5-.1.8-.2.1,0,.2.3.2.4.4,0,.7-.3,1.1-.3s.1,0,.2,0v.4c.4-.1.8-.2,1.2-.2s0,0,0,0v.3c.2,0,.5,0,.7,0s.2,0,.2,0c.1,0,0,.2.1.3,0,0,0,0,.1,0,.2,0,.5,0,.7,0s.4,0,.3.3c.1,0,.3,0,.5,0,.2,0,.5,0,.6.1,0,0,0,.2.2.2,0,0,0,0,0,0,.1,0,.3,0,.4,0s0,0,0,0c.7,0,1.4.3,2.2.4,0,0,0,0,0,0,0,0,0,0,0,0,0,0,0,0,0,0,0,.1-.4.1-.5.2-.6.2-1.2.4-1.7.5-.2,0-.3,0-.5,0,0,0-.2.3-.5.3,0,0-.1,0-.2,0s0,0,0,0c0,0,0,0-.2.1-.3.2-.3.1-.6.2,0,0-.2.2-.2.3-.3,0-.7,0-.9.2,0,0-.1.2-.3.2-.1,0-.6,0-.7,0,0,0,0,.2,0,.2,0,0-.3,0-.5,0s-.3,0-.3,0c0,0-.2,0-.3,0,0,0,0,0,0,0-.1,0,0,.4,0,.5,0,0-.1,0-.2,0-.3,0-.8-.1-1-.2,0,.2.2.4,0,.5,0,0-.2,0-.3,0-.3,0-.8-.2-1-.3,0,.1.2.4,0,.5l-1.1-.2c0,.1.1.3,0,.3l-1.5-.5c0,.1,0,.3,0,.4,0,0,0,0,0,0s0,0,0,0c-.5,0-1-.2-1.4-.4,0,0,0,0,0,0-.1,0,.1.4,0,.4-.3,0-.6,0-.9-.2-.1,0-.5-.2-.5-.2,0,0,0,0,0,0-.1,0,0,.3-.1.3s0,0,0,0l-1.3-.5h-.2s0,.1,0,.2c0,0,0,0-.1,0-.2,0-.8-.3-.9-.3,0,0,0,0,0,0-.2.2.6.4.7.5.2.1.6.3.8.5,0,0,.2,0,.1.1,0,0-.2,0,0,.2,0,0,.2,0,.2,0,.1,0,.8.3.9.4,0,0-.1.2,0,.3.2,0,.3.1.5.2,0,0,0,.1.2.2,0,0,.3,0,.4.1,0,0,0,.2.1.2.1.2.5.3.5.4,0,0,0,.2,0,.2,0,0,.5.3.5.3,0,0,0,.2,0,.3,0,.1.4.3.5.5,0,.1.1.3.3.4,0,0,.1,0,.2,0,0,0,0,.1,0,.2.1.2.7.7.7.8,0,0,0,.1,0,.2,0,.1.4.3.5.5,0,.1,0,.2,0,.3,0,.1.3.2.4.4,0,0,0,.1,0,.2,0,0,.3.2.3.3,0,0,0,.1,0,.2,0,.2.1.1.2.3,0,.1.1.3.2.4.3.4.6.8.9,1.2,0,0,0,0,0,.2,0,0,0,0,0,0,0,0-.4-.3-.5-.4-.4-.2-.9-.4-1.3-.6-.1,0-.3-.2-.4-.3-.3,0-.3-.1-.4-.2-.1,0-.2,0-.4-.1-.1,0-.3-.3-.3-.3,0,0,0,0,0,0,0,0,0,0-.1,0s0,0,0,0c0,0-.4-.4-.5-.4,0,0,0-.2-.1-.2,0,0,0,0,0,0,0,0-.1.1-.2.1s0,0,0,0c0,0-.4-.3-.4-.4,0,0,0-.2,0-.2,0,0,0,0,0,0,0,0-.2,0-.3,0s0,0,0,0c-.1,0-.2-.4-.3-.5,0,0,0,0,0,0,0,0-.2,0-.2,0s0,0,0,0c-.2,0-.3-.5-.4-.5,0,0-.1,0-.2,0,0,0,0,0,0,0-.1,0-.2,0-.3-.3,0,0,0-.3,0-.3,0,0,0,0,0,0,0,0-.1,0-.2,0s0,0-.1,0c-.2-.1-.3-.7-.5-.8,0,0,0,0,0,0,0,0-.1,0-.2,0s0,0,0,0c-.2,0-.2-.3-.3-.4,0-.1-.2-.2-.3-.3,0,0,0-.3-.2-.3,0,0,0,0,0,0,0,0,0,0-.1,0s0,0,0,0c-.2,0-.2-.5-.4-.6,0,0,0,0,0,0,0,0,0,0,0,0s0,0,0,0c-.2,0-.4-.8-.5-.9v.2c-.1,0-.1,0-.1,0-.1,0-.1-.2-.2-.3-.2-.2-.3-.4-.5-.7,0-.2-.2-.9-.4-.9,0,0,0,0,0,0,0,0,0,0,0,.1,0,.3.3.7.3,1,0,.2,0,.4,0,.6,0,0,.2.3.2.4.2.4,0,.5,0,.8,0,.2.1.4,0,.7,0,.2-.1.3-.1.4,0,.1,0,.2,0,.3,0,.1-.1.3-.1.4,0,.5,0,.7-.2,1.2-.1.6-.3,1.2-.4,1.8h-.1c0-.3-.1-.6-.2-.9,0-.3-.2-.7-.3-1,0-.2-.3-.4-.3-.6,0-.1,0-.3,0-.4,0-.1-.2-.1-.2-.2,0-.1,0-.3,0-.4,0,0-.1-.1-.2-.2,0-.2.2-.6,0-.7,0,0,0,0-.1,0-.1-.2,0-.5,0-.7,0-.1-.1-.2-.1-.3,0-.2.1-.5.1-.7,0,0,0-.1,0-.2,0-.4.2-.8,0-1.2l.3-.8c-.1,0-.3.2-.4.3-2.9,3-5.4,6.3-7.9,9.6,0,0,0,0,0,0-.1,0-.1-.4,0-.5,0-.1.4-.6.5-.8,1.1-1.7,2.6-3.5,3.9-5,1-1.2,2.2-2.4,3.2-3.6-.2,0-.4.1-.5.2,0,0-.2,0-.3,0-.2,0-.3.2-.5.2s0,0-.1,0c0,0-.1,0-.2,0,0,0,0,0,0,0-.1,0-.4.3-.6.3s0,0,0,0c0,0-.1-.1-.2-.1,0,0,0,0,0,0-.1,0-.3.3-.5.3s0,0,0,0c0,0-.1-.1-.2-.1,0,0,0,0,0,0-.1,0-.2.2-.3.2s0,0,0,0c0,0-.1,0-.2,0,0,0,0,0,0,0,0,0-.1,0-.2,0,0,0,0,0-.1,0-.2,0-.5,0-.7,0,0,0,0,0,0,0-.1,0-.3,0-.4,0s0,0,0,0c0,0-.1,0-.2-.1-.1,0-.2,0-.3,0-.2,0-.3,0-.4,0s0,0,0,0c-.1,0-.2-.1-.3-.1,0,0,0,0,0,0,0,0-.1,0-.2,0s0,0,0,0c-.1,0-.3-.1-.4-.2-.1,0-.2,0-.3,0-.4,0-.7,0-1.1,0s0,0,0,0c0,0,0,0,0,0,.2-.1.6-.2.9-.3.5-.2,1.1-.5,1.6-.7,0,0,.1-.2.2-.2,0,0,0,0,0,0,0,0,0,0,.1,0s0,0,0,0c0,0,.1-.1.2-.1,0,0,0,0,0,0,0,0,.2,0,.3,0s0,0,0,0c0-.2,0-.3.2-.3s.2,0,.2,0,0,0,0,0c.1,0,0-.1.2-.2.1,0,.4,0,.5,0,.2,0,.5,0,.7,0,.1,0,.2-.1.4-.1h0c.1,0,.3.1.4.1s0,0,0,0c0,0,.1-.1.2-.1,0,0,0,0,0,0,0,0,0,0,.1,0,0,0,.1,0,.1,0-.3,0-.2,0-.3-.3,0,0-.1,0-.3,0s0,0-.1,0,0,0-.1,0c-.1,0-.6-.1-.6-.2,0-.1,0-.2,0-.3-.2-.1-.6,0-.9-.2-.2-.1,0-.2,0-.3,0-.1,0-.1,0-.1,0,0-.2,0-.2,0s0,0,0,0c-.1,0-.7-.2-.7-.3,0,0,.2-.2,0-.3,0,0-.8,0-.9-.1-.1,0,0-.2,0-.3,0-.2-.7-.1-.8-.3,0,0,0-.2,0-.2,0,0-.4,0-.4-.1,0,0,0-.2,0-.3,0,0-.2,0-.3-.1,0,0,0-.2-.1-.3,0,0-.5-.1-.5-.2,0,0,0-.3,0-.3,0,0-.1,0-.2,0-.3-.2-.5-.5-.8-.6,0,0,.2-.2.1-.3,0,0-.5-.2-.6-.3,0,0,0-.2,0-.3,0-.1-.5-.2-.6-.4,0,0,0-.2,0-.2,0,0-.4-.3-.5-.4,0,0,0-.2,0-.2,0-.1-.5-.4-.6-.6-.1-.1-.2-.3-.3-.5-.1-.2-.4-.4-.5-.6,0,0,0,0,0-.2.8.2,1.5.5,2.2.8,0,0,.2,0,.3,0,.1,0,.5.3.7.4,0,0,0,0,0,0,.1,0,.1,0,.2,0,0,0,0,0,0,0,.2,0,.4.4.6.4,0,0,0,0,0,0,0,0,.1,0,.2,0s0,0,0,0c.1,0,.4.4.5.4,0,0,0,0,0,0,0,0,.1,0,.2,0,0,0,0,0,0,0,0,0,.4.2.5.2,0,0,.2.3.2.3,0,0,0,0,0,0,0,0,.1,0,.2,0s0,0,.2,0c.1,0,.2.2.2.3,0,0,.2,0,.3,0,0,0,0,.2.1.2,0,0,0,0,0,0,0,0,0-.1.2-.1s.1,0,.2,0c.1,0,.4.5.4.5,0,0,0,0,0,0,0,0,.1-.1.1-.2,0,0,0,0,0,0,.2,0,.5.6.6.7,0,0,0,0,0,0,0,0,.1,0,.2,0s0,0,0,0c.2.1.2.4.3.5,0,0,0,0,0,0,0,0,0,0,.1,0s0,0,.1,0c0,0,.2.5.3.5h0c0-.1.1-.1.2-.1.1,0,.3.2.4.4,0,0,.2.4.2.4,0,0,0,0,0,0,0,0,0-.1.1-.1,0,0,0,0,0,0,.2,0,.5.8.8.8s0,0,0,0c0-.2,0-.3,0-.4,0-.1,0-.2,0-.3,0-.3-.7-.9-.7-1.2,0,0,.2,0,.1-.2,0-.2-.5-.6-.5-.9,0-.2.3,0,.3-.2,0-.1-.4-.6-.5-.8,0-.1-.2-.4-.2-.5,0-.1.3,0,.3-.1.1-.2-.8-1.5-.7-1.8,0-.2.3,0,.3-.2,0-.1-.5-1.1-.3-1.3,0,0,0,0,0,0,0,0,0,0,.1,0s0,0,0,0l-.3-1.8c0,0,0-.1,0-.1,0,0,.2.1.3.1s0,0,0,0c.1-.1-.4-1.3-.2-1.6,0,0,.1-.1.1-.2,0,0,0-.2,0-.4,0-.1.2,0,.2-.1,0-.2-.1-.6-.1-.8,0-.2.2-.4.2-.5,0-.2-.2-.4-.1-.7,0-.2.2-.2.3-.3,0-.1-.1-.3,0-.6,0,0,.1,0,.1,0,0-.2,0-.5,0-.7,0-.1.2-.3.2-.4,0,0,0-.2,0-.3,0-.1,0-.3.1-.4,0-.5,0-1,.1-1.5,0,0,0-.2,0-.2M131.5,32.6s0,0,0,0c0,0-.3-.4-.3-.5,0,0,0,0,0,0-.2,0,.1.4.2.5,0,0,0,0,0,0M130.4,12.6h0c-.3,0-.5.2-.6.6,0,.2,0,.4,0,.6,0,.3,0,.6,0,.9,0,0,0,0,0,0,0,.1,0,.2,0,.4,0,0,0,.2,0,.2,0,.1-.1.2-.1.4,0,.2,0,.3,0,.4,0,0,0,0,0,0,0,0,0,0,0,0-.2.2-.2.5-.2.7,0,0-.2.2-.2.4,0,.3,0,.6,0,.7,0,0,0,0,0,0,0,.1-.2.3-.2.5,0,.1,0,.3,0,.5,0,0,0,0,0,0,0,0-.1.1-.2.2,0,.2,0,.3,0,.4,0,0,0,0,0,.1-.1.3,0,.7,0,1.3-.1,0-.2.2-.3.4,0,0,0,.2,0,.2l.2,1.4c-.4.3-.3.9,0,1.4-.2.1-.2.3-.2.4,0,.3.2.7.5,1.3,0,0,0,.2.1.3-.2.2-.2.4-.2.5,0,.2.2.7.3.7,0,0,.1.2.2.4,0,0,0,0,0,0-.2.2-.1.4-.1.4,0,.3.2.6.4.8,0,0,0,0,0,0,0,0,0,0,0,0,0,.1,0,.2,0,.3-.1-.1-.3-.2-.5-.2s0,0,0,0c0,0,0-.2-.2-.2,0,0-.2-.1-.3-.2,0-.2-.1-.3-.3-.5-.1,0-.2-.1-.4-.1s0,0,0,0c-.2-.3-.5-.6-.8-.6s0,0-.1,0c0,0-.2-.2-.3-.2-.2-.1-.3-.2-.5-.2s0,0,0,0c0,0,0,0,0,0-.1,0-.2-.1-.3-.2,0,0-.2-.2-.3-.3-.1,0-.3-.1-.4-.1s0,0,0,0c0,0-.1-.1-.2-.2,0,0-.5-.3-.8-.3s0,0,0,0c0,0,0,0,0,0-.2-.1-.3-.2-.4-.3,0,0-.1,0-.2,0s-.1,0-.2,0c-.2-.1-.4-.3-.7-.3,0,0-.2,0-.2,0,0,0-.1,0-.2-.1-.2-.1-.3-.2-.4-.2-.1,0-.2,0-.3,0,0,0,0,0,0,0s0,0,0,0c-.3,0-.5-.2-.8-.3-.5-.2-.9-.3-1.4-.5,0,0,0,0-.1,0,0,0-.2,0-.3,0-.1,0-.2.2-.2.3,0,.3,0,.4.1.5,0,.1.2.3.4.4,0,0,.1.1.2.2,0,0,0,.1.1.2,0,.1.1.2.2.3,0,0,.2.2.3.3,0,0,.1.1.2.2,0,0,0,.2,0,.2,0,.1.2.2.4.3,0,0,0,0,0,0,0,0,0,.2.1.3.1.2.3.3.5.4,0,0,0,0,0,0,0,0,0,.2.1.3,0,.1.2.2.4.3,0,.2,0,.3,0,.3,0,0,.1.1.2.2,0,0,.2.1.3.2.1,0,.2.2.4.3,0,.1,0,.2.1.3.1.1.2.2.4.2,0,0,0,0,0,0,0,0,0,.2.2.2,0,0,.1.1.2.2,0,0,0,0,0,.1.1.2.3.3.5.3,0,0,0,0,0,0,.1.2.4.3.6.3,0,.2.2.4.3.4.2.1.4.1.7.2.1.4.7.6,1,.6,0,.2.3.3.3.4.3.2.6.2.8.2,0,0,0,0,0,.1-.1,0-.2,0-.4,0h-.1c-.2,0-.4,0-.5,0-.1,0-.2,0-.3.1,0,0,0,0-.1,0-.2,0-.4,0-.6.2-.2,0-.3,0-.3,0,0,0,0,0,0,0,0,0-.1,0-.2,0-.2,0-.3.2-.4.2-.4.2-1,.5-1.5.7,0,0-.2,0-.3.1-.2,0-.4.1-.6.2-.2,0-.4.3-.3.6,0,.2.2.4.5.4h0c.2,0,.4,0,.6,0,.2,0,.3,0,.5,0,0,0,.2,0,.3,0,0,0,0,0,0,0,0,0,.2.1.4.1,0,0,0,0,.1,0,0,0,.1,0,.2,0,0,0,.2,0,.3,0,0,0,0,0,0,0,0,0,.2,0,.3,0,0,0,0,0,.2,0s0,0,0,0c0,0,.2.1.4.2,0,0,0,0,0,0,.2,0,.3,0,.4,0,0,0,0,0,0,0,0,0,.2,0,.3,0,.1,0,.3,0,.4,0s.1,0,.2,0c0,0,.1,0,.2,0,0,0,.1,0,.2,0h0c.1,0,.2,0,.3,0,0,0,0,0,0,0,0,0,.1,0,.2,0,.2,0,.4,0,.5-.2,0,0,0,0,.1,0,0,0,0,0,.1,0,.3,0,.5-.2.7-.3,0,0,0,0,0,0,0,0,0,0,0,0-.6.7-1.3,1.4-1.9,2.1-1.4,1.7-2.9,3.4-4,5.1h0c-.3.6-.4.8-.5.9,0,.2,0,.6,0,.9.1.2.3.2.5.2s.3,0,.4-.2c0,0,0,0,0,0,2.6-3.4,4.8-6.2,7-8.6,0,.1,0,.3,0,.5,0,0,0,.1,0,.2,0,0,0,0,0,0,0,.1-.1.4,0,.6,0,.1,0,.3.1.3,0,0,0,0,0,0,0,.2-.2.6,0,.8,0,0,0,0,0,0,0,0,0,0,0,0,0,.2,0,.4,0,.6,0,.1,0,.2.2.3,0,0,0,.2,0,.3,0,.2.1.3.2.4,0,0,0,.2,0,.3,0,.2.1.3.2.5,0,0,0,.1.1.2,0,.2.2.5.2.7v.2c.1.2.2.5.3.8,0,.2.2.4.5.4h.1s0,0,0,0c.3,0,.5-.2.5-.5,0-.5.1-.9.3-1.4v-.4c.2-.5.3-.7.3-1.2,0-.1.1-.3.1-.5,0-.1,0-.2,0-.3,0,0,0,0,0,0,0,0,0-.2.1-.4,0-.3,0-.4,0-.6,0,0,0-.1,0-.1,0,0,0,0,0-.1.1.2.3.4.4.4,0,.2.2.5.5.6,0,0,.1,0,.2,0,0,0,0,0,0,0,0,.1.2.2.3.3,0,0,0,0,0,0,0,0,0,0,0,0,0,0,0,0,0,0,0,.1.2.5.6.6.1.2.2.5.5.7,0,0,.2,0,.3,0,.1.3.3.6.7.6,0,.2.2.5.5.6,0,0,.1,0,.2,0s0,0,0,0c0,.1.2.3.3.4,0,0,.2,0,.3,0s0,0,0,0c.4.5.6.5.7.5,0,0,.1,0,.2,0s0,0,0,0c.1.1.4.4.6.5,0,0,.2,0,.3,0s0,0,0,0c0,0,.2.2.3.2.2,0,.3.1.4.1,0,0,0,0,.1,0,0,0,.2.1.4.2,0,0,0,0,.1,0,0,0,.2.1.3.2h.3c.3.3.6.4.9.6,0,0,0,0,0,0,.3.2.5.4.7.4s.3,0,.4-.2c0,0,.1-.1.1-.2,0-.3,0-.5-.1-.6-.1-.2-.3-.4-.4-.6-.2-.2-.3-.4-.4-.6,0,0,0,0,0-.1,0,0,0-.2-.2-.3,0,0,0,0,0,0,0,0,0,0,0-.1,0-.2-.2-.3-.3-.4,0,0,0-.1,0-.2,0-.2-.3-.3-.4-.4,0,0,0-.1,0-.2,0-.2-.3-.3-.4-.5,0,0,0,0,0,0,0,0,0-.1,0-.2,0-.1-.2-.3-.4-.5,0,0-.2-.2-.3-.3,0,0,0-.2,0-.3,0-.1-.2-.2-.3-.2,0,0,0,0,0,0,0,0,0-.2-.1-.2,0-.1-.2-.2-.4-.4,0,0,0,0,0,0,0,0,0-.2,0-.3,0-.1-.2-.2-.4-.3,0,0,0,0,0,0,0,0,0-.1,0-.2,0-.1-.2-.2-.3-.3,0,0-.2,0-.2-.1,0,0,0-.2-.2-.3-.1-.2-.3-.2-.5-.2,0,0-.1-.1-.2-.2,0,0-.1,0-.2,0,0,0,0-.2,0-.2,0-.1-.3-.3-.5-.4,0,0,0,0,0,0,.2,0,.3,0,.4-.1,0,0,0,0,.1,0,.2,0,.4,0,.6.1.1,0,.2,0,.4,0,0,0,0,0,.1,0,.1,0,.3,0,.4-.1,0,0,0,0,0,0,.3.1.6.2.9.2,0,0,0,0,.1,0,.1,0,.3,0,.4-.2,0,0,0,0,0-.1l.9.3c0,0,.1,0,.2,0s0,0,0,0c.2,0,.3-.1.4-.2h.7c0,.1,0,.1,0,.1s0,0,0,0c.1,0,.3-.1.4-.3,0,0,0,0,0,0,.2,0,.4,0,.5,0s.4,0,.5-.1c0,0,.2-.1.3-.3.2,0,.4,0,.5,0s.3,0,.4,0c.1,0,.3-.1.4-.4,0,0,.2,0,.2,0,.5,0,.8,0,1-.3,0,0,0,0,0,0,0,0,0,0,0,0,.2,0,.3,0,.4,0,.3,0,.4-.2.5-.3,0,0,.2,0,.3,0,.2,0,.3,0,.5,0,.1,0,.2-.1.3-.3.2,0,.4,0,.6-.2,0,0,0,0,0,0,0,0,0,0,.2,0,.3,0,.5-.2.7-.4,0,0,.2,0,.4,0,.3,0,.7-.2,1-.3.3,0,.5-.2.8-.2,0,0,0,0,0,0,.2,0,.6,0,.8-.5,0-.2,0-.4,0-.5,0-.1-.3-.2-.5-.2h0c-.3,0-.7-.1-1.1-.2-.3,0-.7-.2-1.1-.2,0,0,0,0-.1,0,0,0-.2,0-.3,0,0,0,0,0,0,0-.2-.2-.5-.2-.9-.2s0,0,0,0c-.1-.2-.4-.3-.7-.3s-.3,0-.5,0c0,0,0,0,0,0,0,0-.2-.2-.3-.2-.1,0-.2,0-.4,0s-.2,0-.3,0c0-.1-.2-.2-.4-.2h-.1c-.3,0-.5,0-.8,0,0-.1-.2-.2-.3-.2,0,0-.2,0-.3,0-.3,0-.5,0-.7.2,0,0,0,0,0,0-.1-.1-.3-.2-.4-.2,0,0,0,0,0,0,0,0,0,0-.1,0,0,0-.2,0-.3,0-.2,0-.4,0-.5.1,0,0,0,0,0,0-.1-.1-.3-.2-.5-.2s-.3,0-.3,0c-.1,0-.3.1-.4.2-.1,0-.2-.2-.4-.2-.2,0-.4,0-.9.4,0,0-.1,0-.2,0-.1-.1-.3-.1-.4-.1-.2,0-.5.1-.8.3h0s0,0,0,0c0,0-.3-.2-.4-.2s0,0,0,0c-.3,0-.8.2-.9.3,0,0-.1,0-.2.1,0,0,0,0,0,0,0,0,0,0,0,0,.3-.2.8-.5.9-.7,0,0,.2-.3.2-.4,0,0,0,0,0,0h0s1-.6,1.2-.9c0-.1.2-.3,0-.6,0,0,.1,0,.2-.1,0,0,.2-.1.2-.2,0,0,0,0,0,0,0,0,.1,0,.2-.2,0,0,0,0,0,0,.2-.1.4-.2.5-.5,0-.1,0-.2,0-.3,0,0,0,0,0,0,0,0,.1,0,.2,0,.2,0,.3-.1.4-.2,0,0,.2-.1.3-.2,0,0,.1-.1.2-.1.1,0,.2-.2.2-.3,0,0,0-.1,0-.2,0,0,.2-.1.3-.2.1,0,.2-.2.3-.3,0-.1.2-.2.2-.3.1-.1.2-.3.2-.4,0,0,0,0,0-.1.1,0,.2-.1.2-.2.3-.2.9-.8.9-1.1,0-.1,0-.2,0-.3,1-.9.9-1.1.9-1.3,0,0,0-.2,0-.2,0,0,0,0,.1-.1.1-.1.3-.3.3-.3,0,0,.1-.2.1-.2,0,0,0,0,0,0,.3-.2.4-.4.3-.7,0,0,0,0,0,0,0,0,.4-.6.5-.8,0,0,0-.1,0-.2,0,0,.2-.2.2-.4,0-.1,0-.2,0-.3,0,0,.1-.2.2-.2.2-.2.4-.4.4-.5.2-.3.1-.5,0-.7,0,0,0,0,0,0,.2-.2.4-.5.4-.8,0,0,0,0,0,0,0,0,0,0,0-.1,0-.1.1-.3.2-.5,0-.1,0-.2.1-.3,0,0,0,0,0-.1,0-.1.2-.2.2-.4,0-.1,0-.2,0-.3,0,0,0,0,0,0,0,0,0,0,0,0,0,0,.1-.2.2-.2,0-.1.1-.3.2-.4.1-.3.3-.6.4-.8.1-.2.1-.4,0-.5,0-.2-.3-.3-.4-.3,0,0,0,0,0,0-.4,0-.6.2-.7.4,0,0,0,0,0,0-.4.3-.8.6-1.2.9-.3.2-.6.5-.9.7,0,0-.1.1-.2.2,0,0-.2.1-.2.2,0,0,0,0,0,0-.1,0-.3,0-.4.1,0,0,0,0,0,0l-.4.4s0,0,0,0c0,0,0,0,0,0,0,0-.4,0-.9.8,0,0,0,0,0,0-.1,0-.4,0-.9.6,0,0,0,0-.1.2,0,0,0,0,0,0-.2,0-.3,0-.4.1-.2.1-.6.6-.7.7,0,0-.2.3-.4.6,0,0-.2,0-.3,0s-.2,0-.3,0c-.3.2-.5.6-.8,1.1,0,0-.1,0-.2,0-.1,0-.5,0-1.1,1.4,0,0,0,0,0,0,0,0-.2,0-.3,0-.1,0-.2.1-.7.9,0,0,0,0,0,0,0,0,0,0,0,0-.5,0-.8.7-1,1.6,0,0-.2,0-.3,0-.2.1-.6.7-.6.7,0,.1-.1.3-.2.5,0,0,0,.2-.1.3,0,0,0,0,0,0-.1,0-.4,0-.6.3-.3.3-.4.9-.6,1.3,0,0,0,0,0,0,0,0-.1,0-.2,0,0,0-.2.1-.5.7,0,.2-.2.5-.3.7,0,0,0,0,0,0,.1-.5.3-1,.2-1.4,0-.1-.1-.2-.2-.3.2-.8.3-1.2,0-1.4.3-.6.4-.9.3-1.2,0-.1-.1-.3-.2-.4,0-.2,0-.5,0-.8,0-.1-.1-.3-.2-.4,0,0,0,0,0-.1,0-.4,0-.7,0-.9,0-.3-.2-.4-.4-.5,0,0,0-.2,0-.2,0-.3,0-.5,0-.6,0,0,0-.2,0-.2,0,0,0-.2,0-.4,0-.1-.2-.2-.3-.2,0-.1,0-.3,0-.6h0c0-.2,0-.2,0-.3,0-.2-.2-.3-.3-.4,0-.3,0-.7-.3-.9,0-.5,0-.7-.2-.9,0,0-.1-.1-.2-.1,0-.3,0-.5-.2-.7,0-.2-.2-.3-.3-.3,0,0,0-.2,0-.2,0-.2-.2-.3-.2-.4,0,0,0,0,0,0,0-.3-.2-.5-.3-.7,0-.1,0-.2-.2-.4,0,0,0-.3-.2-.5-.2-.7-.2-.7-.3-.9,0,0-.3-.2-.4-.2h0Z"/>
  </g>
</svg>