<?xml version="1.0" encoding="UTF-8"?>
<svg id="Layer_1" xmlns="http://www.w3.org/2000/svg" version="1.1" xmlns:xlink="http://www.w3.org/1999/xlink" viewBox="0 0 159.8 64.2">
  <!-- Generator: Adobe Illustrator 29.0.0, SVG Export Plug-In . SVG Version: 2.1.0 Build 186)  -->
  <defs>
    <style>
      .st0 {
        fill: #37c90a;
      }
    </style>
  </defs>
  <path d="M143.2-73h0c0-.1,0-.2-.1-.2h-.4c-.1,0-.2,0-.3,0,0,0-.1,0-.2,0,0,0,0,0-.1,0-.6-.2-1.3-.2-2-.2h0s0,0,0,0c0,0,0,0-.1-.1-.2,0-.4,0-.5,0s-.1,0-.2,0c0,0,0,0,0,0,0,0,0-.1-.2-.1-.1,0-.3,0-.5,0-.2,0-.4,0-.6,0,0,0,0-.1-.1-.2-.2,0-.3,0-.5,0s-.2,0-.3,0c0,0,0,0,0,0,0,0-.1-.1-.2-.1h0c-.4,0-.9,0-1.3.2,0,0,0-.1,0-.2,0,0,0-.1,0-.2s-.1,0-.2,0,0,0,0,0c-.3,0-.6.2-.9.3,0,0,0,0,0,0,0,0,0-.1,0-.2s-.1,0-.2,0h0c-.4,0-.8.2-1.1.3h0c0,0,0-.1,0-.2,0,0,0,0-.1,0h0c-.3,0-.6.2-.8.3h0c0,0,0-.2,0-.2,0,0-.1,0-.2,0s0,0-.1,0c-.3.2-.7.5-1.1.6h0c0-.2-.1-.3-.2-.3s0,0,0,0c-.4.1-.7.3-1.1.5h0c0,0,0-.2,0-.2,0,0-.1,0-.2,0h0c-.4,0-.8.2-1.1.5,0,0,0,0,0,0,0,0-.1,0-.2,0s0,0,0,0c-.5.2-1,.3-1.4.6h0c0,0,.6-.3.6-.3,0,0,.1-.1.1-.2s0-.2-.1-.2h0c.5-.3,1-.6,1.6-1.1,0,0,.1-.2.1-.2,0,0,0,0,0,0,.5-.2.9-.5,1.3-.9,0,0,0-.2,0-.2,0,0,0-.1-.1-.2h0c.4-.3.9-.6,1.3-.8,0,0,.1-.1.1-.2s0-.1,0-.2c0,0-.1,0-.1,0,.4-.3.9-.5,1.4-.7,0,0,.2-.1.2-.2,0,0,0-.2,0-.2,0,0,0,0,0,0,.3-.2.6-.4.9-.7,0,0,0-.1,0-.2,0,0,0-.1-.1-.2,0,0,0,0,0,0,.4-.2.8-.6,1.1-1,0,0,0-.1,0-.2,0,0,0-.1-.1-.2,0,0,0,0-.1,0,.3-.2.7-.5,1-.7,0,0,.1-.1.1-.2,0,0,0-.1-.1-.2s-.1,0-.2,0c.4-.4.8-.8,1.2-1.2,0,0,0-.2,0-.3,0,0,0,0,0,0,.3-.2.5-.5.6-.9,0,0,0-.1,0-.2,0,0,0,0,0,0,.4-.3.6-.7.9-1.1,0,0,0-.2,0-.2,0,0,0,0,0,0,.2-.2.4-.5.5-.8,0,0,0-.1,0-.2,0,0,0,0,0,0h0c.4-.8.9-1.5,1.2-2.3,0,0,0-.1,0-.2,0,0,0-.1.1-.2.1-.2.2-.4.4-.6,0,0,0,0,.1-.1,0,0,0-.1,0-.2,0,0,0,0,0,0,0,0,0,0-.1,0s0,0-.1,0c0,0,0,0-.1.1-.2.2-.3.3-.5.5,0,0-.1.1-.2.1,0,0-.1,0-.1.1-.7.5-1.4,1-2,1.6h0c0,0,0,0-.1,0s0,0-.1,0c-.3.2-.5.4-.7.6,0,0,0,0-.1,0s-.1,0-.2,0c-.4.3-.7.6-1,1,0,0,0,0-.1,0s0,0-.1,0c-.3.2-.6.4-.8.7,0,0,0,0-.1,0s-.1,0-.2,0c-.4.4-.8.9-1,1.4,0,0,0-.1-.1-.2s-.1,0-.2,0-.2,0-.2.1c-.2.3-.4.7-.5,1.1,0,0,0,0,0-.1,0,0-.1,0-.2,0s-.1,0-.2.1c-.3.4-.6.8-.7,1.3,0,0,0,0,0,0,0,0-.1,0-.2,0s-.1,0-.2.1c-.2.3-.4.6-.5,1,0,0,0,0,0,0,0,0,0,0-.1,0-.1,0-.2.1-.3.2,0,.5-.2,1-.4,1.5,0,0,0,0-.1-.1,0,0,0,0-.1,0-.1,0-.2,0-.2.2-.2.4-.4.9-.6,1.4h0c0-.1-.1-.2-.2-.2s-.2,0-.2.1c-.3.4-.5.9-.6,1.4h0c0,0-.2,0-.2.1-.3.6-.6,1.2-.7,1.7h0s0-.1-.2-.1c0,0-.2,0-.2.2,0,0-.1.5-.1.6,0,0,0,0,0,0s0,0,0,0h0c.2-.4.2-.9.3-1.4,0,0,0-.1,0-.2,0,0,0,0,0,0,.2-.4.2-.8.2-1.1s0-.1,0-.2c0,0,0,0-.1,0s0,0,0,0h0c0-.4.2-.7.3-1.1,0,0,0-.1,0-.2s-.1,0-.2,0h0c0,0,0,0-.1,0,0-.4.2-.8.4-1.1,0,0,0-.1,0-.2,0,0-.1-.1-.2-.1h0s0,0,0,0c0-.3.1-.5.1-.8,0-.1,0-.2-.2-.2s0,0,0,0h0c0-.4.1-.7,0-1.1,0-.1,0-.2-.2-.2s0,0,0,0c0,0,0,0-.1,0,0-.3.1-.6.1-.9,0,0,0-.1,0-.2,0,0,0,0-.2,0s0,0,0,0c0,0-.1,0-.2,0,0-.4,0-.9,0-1.3,0-.1-.1-.2-.2-.2h0c0-.3,0-.5-.2-.8,0,0,0,0-.2,0h0c0-.4,0-.7-.2-1,0,0-.1-.1-.2-.1h0c0-.2,0-.5-.2-.7,0,0,0,0-.2,0h0c-.2-.7-.4-1.3-.7-1.8,0,0,0,0,0-.1,0,0,0-.1,0-.2,0-.2,0-.3-.1-.5,0,0,0,0,0-.1,0,0,0-.1-.1-.1s0,0,0,0h0s0,0-.1,0c0,0,0,0,0,.1h0c0,.3,0,.5,0,.6,0,0,0,.1,0,.2,0,0,0,0,0,.1-.2.6-.2,1.3-.2,2h0c0,0-.2.1-.2.2,0,.2,0,.5,0,.7,0,0-.2.1-.2.2,0,.4,0,.7,0,1.1,0,0-.1,0-.2.1,0,.3,0,.5,0,.8,0,0,0,0-.1,0,0,0,0,.1,0,.2,0,.4,0,.9.2,1.3,0,0-.1,0-.2,0h0c0,0-.2,0-.2.1s0,.1,0,.2c0,.3.2.5.4.8h-.1c0,0-.1,0-.2,0,0,0,0,.1,0,.2,0,0,0,.1,0,.2-.4-.3-.8-.6-1.3-.7.3-.8.4-2-.5-3.3-.4-.6-1-1.2-1.7-1.8-.6-.5-1.2-.9-1.8-1.2-.7-.3-1.2-.5-1.8-.5-.8,0-1.6.3-2.2.9h0s0,0,0,0h0s-.1.2-.1.2h0s0,0,0,0h0c0,0,0,.1-.1.2-.3-.2-.6-.4-.9-.6-1-.6-2-.9-2.9-.9-1.7,0-3.4.6-4.9,1.9-1,.8-2,1.8-2.9,3,0-.1,0-.2-.2-.3h0s0-.1,0-.1h0c-.4-.6-.8-1.2-1.3-1.7-.6-.6-1.3-1.2-2.1-1.6-.6-.3-1.3-.6-2-.7.6-1.1,1.2-2.2,1.8-3.4h0s0,0,0,0h0s0-.2,0-.2h0s0,0,0,0h0c.4-1,.5-2.4-1-4.1-.6-.6-1.3-1.2-2.1-1.7-1-.6-1.9-1-2.8-1.1h-.3c-1.1,0-2.1.5-2.8,1.4h0s0,.1,0,.1h0c-.5.9-1.4,2.8-2.8,5.8-.9,1.9-1.9,4-2.9,6.2-.4-.5-.8-.9-1.3-1.2h0c-1.5-1-3.1-1.6-4.7-1.6h-.3c-1,0-2,.2-3.1.6h0s0,0,0,0h0c-1.2.6-2.5,1.6-3.9,3.3,0,0-.1.1-.2.2-.3-.6-.6-1-.9-1.3-.8-.8-1.9-1.6-3.6-2.3.2-.4.3-.7.4-1.1.7-1.8.9-3.5.8-5-.2-1.2-.7-2.3-1.6-3.1-.8-.7-1.8-1.1-3-1.3h-.3s0,0,0,0h-.3c-1.7,0-3.2.9-4.5,2.4-1,1.2-1.8,2.6-2.4,4.3-.4,1.3-.6,2.6-.6,3.8-.3-.2-.5-.3-.8-.5-.7-.3-1.2-.5-1.8-.5s-1.6.3-2.2.9h0s0,0,0,0h0s-.1.2-.1.2h0s0,0,0,0h0c-.6.8-1.2,1.7-1.9,2.8-.2-.4-.4-.7-.7-1-.6-.7-1.3-1.3-2.1-1.9-1-.7-1.9-1-2.7-1h-.3c.6-.7,1.2-1.3,1.7-1.7h0s0,0,0,0h0s.1-.1.1-.1h0s0,0,0,0h0c.6-.6,1.1-1.6.7-3.3-.1-.5-.3-1-.6-1.5-.3-.6-.6-1.1-1-1.6-.6-.7-1.4-1.2-2.2-1.5h0s0,0,0,0h-.2s0,0,0,0c0,0,0,0,0,0h0c-.2,0-.4,0-.6,0-.6,0-1.1.1-1.6.4h0s0,0,0,0h0s-.3.3-.3.3h0s0,0,0,0h0c-.3.3-.5.6-.8.8-.1-.1-.3-.2-.4-.3-1.3-1-2.9-1.5-4.6-1.5h0c-2.4,0-4.7.6-6.9,1.6-2.2,1-4,2.4-5.4,4.1-1.6,1.9-2.5,3.9-2.5,6.1s.3,3.3.8,4.6c.3.6.5,1.2.9,1.8-.4.2-.7.3-1.1.5-1,.5-1.9,1.1-2.8,1.8-1,.8-1.8,1.7-2.4,2.8-.7,1.2-1.1,2.6-1.1,4s.3,3.5.9,4.8c.6,1.4,1.6,2.5,2.7,3.4,1.1.8,2.3,1.4,3.7,1.7,1.2.3,2.5.5,3.9.5s3.7-.4,5.4-1.1c1.3-.6,2.6-1.3,3.8-2.1h0c0,.1,0,.1,0,.1h0c.6.8,1.4,1.5,2.3,2,.8.4,1.4.8,2.1,1h0s0,0,0,0h.2c0,0,0,0,0,0,0,0,0,0,0,0h0c.2,0,.5,0,.8,0,1.4,0,2.8-.8,4.6-2.9.5.6,1.2,1.2,2,1.6.8.4,1.4.8,2.1,1h0s0,0,0,0h.2c0,0,0,0,0,0,0,0,0,0,0,0h0c.3,0,.6.1.9.1,1.5,0,2.9-.9,4.6-2.8.9-1,1.8-2.1,2.7-3.4,0,1,.3,1.9.8,2.7h0s0,0,0,0h0s0,.1,0,.1h0s0,0,0,0h0c.6.8,1.4,1.5,2.3,2,.8.4,1.4.8,2.1,1h0s0,0,0,0h.2c0,0,0,0,0,0,0,0,0,0,0,0h0c.3,0,.6.1.9.1,1.5,0,2.9-.8,4.6-2.8.1-.2.3-.3.4-.5.1.1.3.3.4.4.7.7,1.6,1.3,2.6,1.9,1.2.7,2.3,1,3.4,1h.2c1.8-.1,3.5-.8,5.2-2.1.5.5,1,.8,1.6,1.2.7.4,1.3.6,1.9.7.4,0,.7.1,1,.1,1.6,0,2.5-1,2.9-1.9h0s0,0,0,0h0s0-.3,0-.3c0,0,0,0,0,0,0,0,.1-.4.9-2.2.5.9,1.1,1.7,1.7,2.4,1.3,1.4,2.7,2.1,4.3,2.1s2.9-.7,4.5-2.2c.2-.2.4-.4.6-.6.8.8,1.6,1.5,2.7,1.9,1.3.6,2.1.8,2.9.8,1.2,0,2.3-.5,3.5-1.5.3-.2.6-.5.9-.8.4.4.9.8,1.4,1.1.8.4,1.4.8,2.1,1h0s0,0,0,0h.2c0,0,0,0,0,0,0,0,0,0,0,0h0c.3,0,.6.1.9.1,1.5,0,2.9-.8,4.6-2.8,1.3-1.5,2.7-3.2,4-5.3,0,0,0-.1.1-.2,0,0,0,0,0,0h0s0,0,.1,0h.2c0,0,.2,0,.3,0,0,0,0,0,0,0,0,0,.1,0,.2,0h.1s0,0,.1,0h0c.1,0,.3,0,.4,0,0,0,0,0,0,0h0s0,0,.1,0,0,0,0,0c0,0,.2,0,.2,0,0,0,0,0,0,0,0,0,0,0,.1,0h0c.1,0,.2,0,.4-.1h0s0,0,.1,0h0c0,0,.2,0,.2,0,0,0,0,0,0,0,0,0,0,0,0,0,0,0,0,0,.1,0,0,0,.2-.1.3-.2,0,0,0,0,0,0,0,0,0,0,0,0s0,0,0,0c.1,0,.2,0,.3-.2h0s0,0,.1,0h0c.2,0,.3,0,.4-.2,0,0,0,0,0,0s0,0,0,0c.2,0,.3-.1.5-.2,0,0,0,0,0,0,0,0,0,0,0,0-.9.9-1.9,1.9-3,3.2-1.2,1.5-2.5,3.1-3.7,4.8,0,0,0,.2,0,.2l.2.3s0,0,0,0c0,0,0,0,0,0h0c0,0,.1,0,.2,0,1.9-2.9,4.2-5.8,7.2-8.8,0,0,0,0,0,0l-.2.4h0c0,.2,0,.3,0,.3,0,0,0,0,0,0,0,.1,0,.3-.1.5,0,0,0,0,0,.1,0,.1,0,.3,0,.4s0,.1,0,.2h0c0,.1,0,.2,0,.3,0,0,0,.1,0,.2,0,0,0,0,0,0,0,0,0,.2-.1.3,0,0,0,.1,0,.2,0,0,0,0,0,0,0,0,0,.2,0,.2s0,.1,0,.2h0c0,.1,0,.2,0,.4,0,0,0,.1,0,.2,0,0,0,0,0,0,0,0,0,.2,0,.2s0,.1,0,.2h0s0,0,0,0c0,.1,0,.3,0,.4,0,0,0,0,0,.1,0,0,0,.2,0,.3,0,0,0,0,0,0,0,.1,0,.3,0,.4,0,0,0,0,0,0,0,0,0,.2,0,.2,0,0,0,0,0,0,0,.2.1.5.2.7,0,0,0,0,0,0,0,0,0,0,0,0,0,0,0,.1,0,.2h0s0,.1,0,.1c0,0,0,0,0,0h0c0,0,.1,0,.1-.2h0v-.2s0,0,0,0c0,0,0,0,0,0,0-.2,0-.5.1-.8,0,0,0,0,0,0,0,0,0-.2,0-.3,0,0,0,0,0-.1,0-.1,0-.3,0-.4,0,0,0,0,0,0,0,0,0-.2,0-.3,0,0,0,0,0-.2,0-.1,0-.3,0-.4,0,0,0,0,0,0,0,0,0-.1,0-.2s0-.1,0-.2c0,0,0,0,0,0,0,0,0,0,0-.2,0-.1,0-.2,0-.3,0,0,0,0,0,0,0,0,0,0,0-.2,0,0,0-.2,0-.2,0,0,0,0,0,0,0,0,0-.1,0-.2,0,0-.1-.2-.2-.3,0,0,0,0,0,0,0,0,0-.1,0-.2,0,0,0-.2-.1-.3,0,0,0,0,0,0h0s0,0,.2,0,0,0,.1,0c.1.3.3.5.5.8,0,0,.1,0,.2,0h0c.1.2.2.5.4.7,0,0,0,0,.1,0h0s0,0,.1,0c.1.2.2.4.4.6,0,0,.1,0,.2,0h0c0,0,.1,0,.1,0,0,0,0,0,0,0,.1.2.2.5.3.7,0,0,0,.1.2.1h0c0,0,0,0,.1,0,0,.2.2.3.3.5,0,0,0,0,.1,0h0s0,0,.1,0c.1.2.3.4.5.6,0,0,0,0,0,0,0,0,0,0,.1,0h0c0,0,.1,0,.1,0,.1.2.2.3.3.5,0,0,.1,0,.2,0h0c0,0,.1,0,.1-.1,0,0,0,0,0,0,.2.2.4.4.6.6,0,0,0,0,.1,0s0,0,0,0h0c.1.1.3.2.5.3h0s0,0,0,0c.2.2.4.4.6.5,0,0,0,0,.1,0s0,0,.1,0h0c.1.1.3.2.4.2,0,0,0,0,0,0,0,0,0,0,.1,0h0c.4.3.8.5,1.3.7,0,0,0,0,0,0,0,0,0,0,.1,0,.1,0,.2.1.3.2,0,0,0,0,0,0,0,0,0,0,.1,0s0,0,.1,0c0,0,0,0,0,0,0,0,0,0,0,0,0,0,0-.2,0-.2,0,0,0,0,0,0,0,0-.2-.2-.2-.3,0,0,0,0,0-.1,0,0,0,0,0,0-.2-.4-.6-.8-.9-1.2h0c0,0,0-.1,0-.2,0-.2-.2-.3-.3-.4,0,0,0-.1,0-.2-.1-.2-.3-.4-.6-.5,0,0,0,0,0-.1,0-.2-.2-.3-.4-.4h0c0,0,0-.2,0-.2-.2-.2-.4-.4-.7-.6,0,0,0,0,0,0,0,0,0,0,0-.2s0-.2-.1-.2c-.2,0-.3-.2-.5-.3,0,0,0,0,0-.1s0-.1,0-.2c-.2-.2-.4-.3-.6-.4,0,0,0,0,0-.1,0,0,0-.1,0-.2-.1-.1-.3-.2-.5-.3,0,0,0,0,0-.2,0,0,0-.1-.2-.2-.3,0-.5-.1-.8-.2h0s0-.1,0-.2c0,0,0-.1-.1-.2-.2,0-.4-.2-.7-.3,0,0,0,0,0,0,0,0,0-.2,0-.2-.2-.2-.5-.3-.8-.3,0,0,0-.1-.1-.2,0,0,0,0,0,0,0,0,0-.1,0-.2h0c.4.1.9.2,1.4.3h0c0,0,.1,0,.2,0,0,0,0,0,0,0,.4.2.7.2,1.2.3,0,0,.1,0,.2,0,0,0,0-.1,0-.2h0c.4,0,.7.2,1.1.3h0c0,0,.1,0,.2,0,0,0,0-.1,0-.2s0,0,0-.2c.4,0,.8.2,1.1.4,0,0,0,0,.1,0,0,0,.1,0,.2,0,0,0,0,0,0-.2h0c.2,0,.5,0,.8,0h0c0,0,.1,0,.2,0,0,0,0-.1,0-.2h0c.3,0,.6,0,.9,0h.2c0,0,.1,0,.2,0,0,0,0-.1,0-.2,0,0,0,0,0-.1.3,0,.6.1.9.2h0c0,0,.1,0,.2,0,0,0,0-.1,0-.2,0,0,0-.1,0-.2.2,0,.4,0,.5,0,.3,0,.6,0,.8,0,0,0,.2,0,.2-.2,0,0,0,0,0,0h0c.2,0,.5,0,.7-.2,0,0,.1-.1.1-.2h.2c.3,0,.6,0,.9-.2,0,0,.1,0,.1-.2,0,0,0,0,0,0,.2,0,.5,0,.7-.2,0,0,0,0,.1-.1h0c0,0,0,0,0,0,.7-.2,1.4-.3,2-.6,0,0,0,0,.1,0,0,0,.1,0,.2,0,.2,0,.4,0,.5-.1,0,0,0,0,.1,0,0,0,.1,0,.1-.2h0s-.2,0-.2,0ZM110.9-64.5c-1.6,1.8-2.9,2.7-4.3,2.7s-.5,0-.8,0h0s-.2,0-.2,0h0c-.6-.3-1.3-.6-2-1-.7-.4-1.2-.8-1.7-1.3-.4.4-.8.8-1.2,1.2-1.1.9-2.1,1.4-3.1,1.4s-1.5-.2-2.7-.8c-1.1-.5-2.1-1.3-2.8-2.2-.3.3-.6.6-.9.9-1.5,1.4-2.8,2.1-4.1,2.1s-2.8-.7-3.9-1.9c-.8-.9-1.5-2-2.1-3.2-1.2,2.6-1.3,3.1-1.3,3.2h0v.3c0,0,0,0,0,0h0c-.3.8-1.1,1.6-2.4,1.6s-.6,0-.9-.1c-.6-.1-1.1-.4-1.8-.7-.7-.3-1.3-.8-1.8-1.4-1.7,1.3-3.5,2.1-5.3,2.2h-.2c-1,0-2.1-.3-3.2-.9-.9-.5-1.7-1.1-2.4-1.8-.3-.3-.6-.5-.8-.8-.2.3-.5.6-.7.9-1.6,1.8-2.9,2.7-4.3,2.7s-.5,0-.8,0h0s-.2,0-.2,0h0c-.6-.3-1.3-.6-2-1-.9-.5-1.6-1.2-2.2-1.9h0s0,0,0,0h0c0-.1,0-.2,0-.2-.7-1.1-.9-2.5-.6-4.2-1.3,1.8-2.5,3.5-3.7,4.8-1.6,1.8-2.9,2.7-4.3,2.7s-.5,0-.8,0h0s-.2,0-.2,0h0c-.6-.3-1.3-.6-2-1-.9-.5-1.6-1.2-2.2-1.9h0c0,0-.2.2-.3.3-1.8,2-3.1,2.8-4.4,2.8s-.5,0-.7,0h0s-.2,0-.2,0h0c-.6-.3-1.3-.6-2-1-.9-.5-1.6-1.2-2.2-1.9h0s-.1-.2-.1-.2h0s0,0,0,0c0-.1-.1-.2-.2-.3-1.3.9-2.7,1.7-4.1,2.3-1.7.7-3.5,1.1-5.3,1.1s-2.6-.2-3.7-.5c-1.3-.3-2.5-.9-3.5-1.6-1.1-.8-1.9-1.9-2.6-3.2-.6-1.3-.9-2.8-.9-4.6s.3-2.7,1-3.8c.6-1,1.4-1.9,2.3-2.6.8-.7,1.7-1.3,2.7-1.8.5-.3,1-.5,1.5-.7-.4-.6-.8-1.4-1.1-2.2-.5-1.2-.8-2.7-.8-4.4s.8-3.9,2.4-5.7c1.4-1.6,3.2-2.9,5.3-3.9,2.1-1,4.4-1.6,6.7-1.6h0c1.6,0,3,.5,4.3,1.4.3.2.5.4.8.6.4-.4.7-.8,1.1-1.1h0s0,0,0,0l.3-.2h0s0,0,0,0c.5-.2.9-.3,1.4-.3s.3,0,.5,0h.2s0,0,0,0h0c.7.2,1.4.7,2,1.3.4.4.7.9,1,1.5.3.5.5,1,.6,1.5.3,1.2.1,2.1-.6,2.8h0s0,0,0,0h-.1c0,.1,0,.1,0,.1h0c-.6.5-1.2,1.1-1.9,1.9-.4.5-.7.9-1.1,1.4.5-.4,1.1-.7,1.7-.7h0c.8,0,1.5.3,2.5,1,.8.5,1.4,1.1,2,1.8.6.7.8,1.3.9,1.9.8-1.4,1.7-2.6,2.4-3.6h0s0,0,0,0h.1c0-.1,0-.2,0-.2h0c.5-.5,1.1-.8,1.8-.8s1,.1,1.6.4c.5.3,1.1.6,1.6,1.1-.3-1.5-.2-3,.4-4.7.5-1.6,1.3-2.9,2.3-4.1,1.2-1.4,2.7-2.2,4.2-2.2h.5s0,0,0,0h0c1.1.2,2,.6,2.7,1.2.8.7,1.3,1.6,1.4,2.8.2,1.4,0,3-.7,4.8-.2.5-.4,1-.6,1.5,1.8.7,3.1,1.5,3.9,2.3.4.4.8,1,1.1,1.9.2-.3.5-.6.7-.9,1.4-1.6,2.6-2.6,3.7-3.1h0c1-.4,1.9-.6,2.9-.6h.3c1.6,0,3.1.6,4.5,1.5h0c.7.5,1.3,1.1,1.7,1.8,1.2-2.5,2.2-4.8,3.3-6.9,1.4-3,2.3-4.8,2.8-5.7h0s0-.1,0-.1h0c.5-.8,1.4-1.2,2.3-1.2h.2c.8,0,1.6.4,2.6,1,.8.5,1.4,1.1,2,1.7,1.4,1.5,1.3,2.8.9,3.5h0s0,0,0,0v.2c0,0,0,0,0,0h0c-.8,1.3-1.5,2.7-2.2,4,1,0,1.8.3,2.6.7.7.4,1.4.9,1.9,1.5.5.5.9,1,1.2,1.6h0s0,0,0,0h0c.2.4.3.7.4,1.1,1.1-1.4,2.2-2.6,3.3-3.6,1.5-1.2,3-1.8,4.6-1.8s1.8.3,2.7.8c.4.3.8.5,1.3.9.2-.2.3-.4.4-.6h0s0,0,0,0v-.2c.1,0,.2,0,.2,0h0c.5-.5,1.1-.8,1.8-.8s1,.1,1.6.4c.6.3,1.1.6,1.7,1.1.6.5,1.2,1.1,1.5,1.7,1,1.6.5,2.9.2,3.4.9.1,1.6.7,2.2,1.2,0,0-.1,0-.2,0s0,.1,0,.2c0,.3.2.5.3.7h0c0,0-.2,0-.2.1s0,.2,0,.2c.3.3.5.6.7.9,0,0,0,0-.2,0,0,0-.1,0-.2.1,0,0,0,.1,0,.2,0,.2.2.4.3.6-.2.5-.5,1.2-.9,1.9,0,0,0,0,0,0h0c0,0-.1,0-.2,0,0,0,0,0,0,0-.2-.2-.3-.4-.4-.7,0,0-.1-.1-.2-.1h0c0,0-.1,0-.2,0,0-.1-.2-.2-.3-.3.9-1.7.9-2.3.7-2.8l-.2-.2c-.7-.6-1.2-.9-1.6-.9s-.4,0-.6.2h-.1c0,.2-.2.5-.8,1.4-.1.3-.3.5-.5.8h0s0,0,0,0c-.2-.1-.3-.2-.5-.2h0s0,0-.1,0c-.2-.2-.4-.3-.7-.4,0,0,0,0,0,0s0,0,0,0c.4-.8.8-1.6,1.2-2.2.8-1.4,1-1.8,1.1-1.9h0c.2-.4.4-1-.1-1.8-.3-.5-.7-.9-1.2-1.3-.5-.4-1-.7-1.4-.9-.4-.2-.7-.3-.9-.3s-.6.1-.7.3h0c-.4.7-.9,1.3-1.4,2.1-.2-.2-.5-.4-.7-.7-.5-.5-1.1-.9-1.7-1.2-.7-.4-1.3-.6-1.8-.6-1.2,0-2.4.5-3.6,1.4-1.1.9-2.2,2-3.2,3.4-.7,1-1.4,2.1-2.1,3.3-.5.8-1.1,1.7-1.8,2.9-.7,1.2-1.5,2.3-2.3,3.5-.8,1.2-1.6,2.2-2.3,2.9-.7.8-1,1-1.1,1-.2,0-.6,0-.9-.5-.4-.4-.7-.9-.9-1.5-.1-.3-.2-.6-.2-.9,1.5-.7,3.1-1.8,4.5-3.1,1.6-1.5,2.8-3,3.7-4.6.9-1.7,1.1-3.2.4-4.4h0c-.3-.5-.6-1-1-1.4-.4-.5-.9-.9-1.5-1.2-.6-.3-1.3-.5-2.2-.5s-1.2.4-2.3,1.5c-.5.5-1.1,1.2-1.7,1.8,1.6-3.3,3.3-6.5,5.2-9.7h0c.3-.9-.4-1.7-.6-2-.5-.5-1.1-1-1.7-1.4-.7-.4-1.3-.7-1.9-.8h0c-.6,0-.9.3-1,.5h0c-.5.9-1.4,2.7-2.8,5.7-1.4,2.9-2.9,6.1-4.5,9.6-.3.6-.6,1.2-.8,1.8,0,.1-.2.3-.2.4-.5.9-1.3,2.1-2.3,3.7-1,1.5-2.2,3-3.5,4.5-1.2,1.4-2.5,2.3-3.8,2.9-.3,0-.5.2-.8.2s-.2,0-.4,0c0,0-.3,0-.6-.7-.2-.7,0-1.6.3-2.9.2-.9.5-1.7.8-2.5.1,0,.3.1.4.2.2,0,.4.2.6.3,0,0,.3.3.6.8h0c.3.6.8.9,1.4.9s.8-.1,1.2-.3c.8-.5,1.7-1.2,2.7-2.3.9-1.1,1.7-2.3,2.3-3.6.7-1.4,1-2.7,1-3.9,0-1.4-.6-2.5-1.7-3.3-1.1-.8-2.3-1.2-3.7-1.3h-.2c-.7,0-1.5.2-2.3.5h0c-.9.5-2,1.4-3.2,2.8-1.2,1.3-2.3,3-3.3,4.8-.3.6-.7,1.2-.9,1.8-.3.6-.7,1.2-1.1,1.9-.9,1.5-1.8,2.9-2.8,4.2-.8,1.1-1.5,1.6-1.9,1.9,0,0,0,0,0,0,.3-.9.8-2,1.6-3.5.8-1.5,1.6-3,2.5-4.5.6-1.1,1.2-2.1,1.7-3,1.1-1.9,1.2-3.5.1-4.6-.8-.9-2.4-1.7-4.9-2.5.5-.9.9-2,1.3-3,.6-1.5.8-2.8.6-4-.1-1-.7-2.2-2.8-2.5h-.3c-1.1,0-2.1.6-3,1.7-.9,1-1.5,2.2-2,3.6-.5,1.4-.6,2.7-.3,3.9.2,1,.8,1.8,1.8,2.3l-2.8,5.3h0s0,0,0,0c-.1.2-.5.9-.5.9-.5,1-1.3,2.3-2.2,3.8-.9,1.5-1.8,2.9-2.8,4.1-.5.7-1,1.2-1.3,1.5.3-.8.7-1.9,1.3-3.1.7-1.4,1.4-2.9,2.2-4.4.8-1.5,1.5-2.8,2.1-3.9.8-1.4,1-1.8,1.1-2,.2-.3.5-1,0-1.8-.3-.5-.7-.9-1.2-1.3-.5-.4-1-.7-1.4-.9-.4-.2-.7-.3-.9-.3s-.6.1-.7.3h0c-.8,1.1-1.7,2.5-2.6,4.1-1.1,1.7-2.3,3.6-3.7,5.7-1.4,2.1-2.8,4-4.1,5.6-.7.9-1.3,1.5-1.7,1.9.3-.8.7-1.8,1.3-3,.7-1.4,1.4-2.9,2.2-4.4.8-1.5,1.5-2.8,2.1-3.9.8-1.4,1-1.8,1.1-1.9h0c.2-.4.5-1.2-.3-2.2-.5-.5-1-1-1.6-1.5-.7-.5-1.2-.7-1.7-.7h0c-.3,0-.5.1-.7.4-1,1.3-2,3-3.1,4.9-.4.8-.9,1.6-1.3,2.4h0s0,0,0,0c-.5.9-.9,1.8-1.3,2.8-.4.6-.9,1.3-1.5,1.9-1.4,1.5-2.9,2.8-4.7,3.9-1.7,1.1-3.5,1.9-5.1,2.3-.8.2-1.6.3-2.2.3s-1.2,0-1.7-.3c-.9-.4-1.5-1.2-1.6-2.6,0-1,.4-1.8,1.3-2.6,1-.9,2.3-1.6,3.8-2.2,1.5-.6,3-1,4.3-1.3,1.5-.3,2.2-.4,2.5-.4h.2c.7,0,1.2-.5,1.3-1.2.1-.5,0-1.1,0-1.7-.1-.6-.3-1.1-.5-1.6-.1-.2-.5-1-1.2-1s-.1,0-.1,0h0c-.7.2-1.5.3-2.3.4-.2,0-.3,0-.5,0-.6,0-1.1,0-1.6-.2-.6-.1-1.1-.4-1.5-.7-.3-.3-.5-.7-.5-1.3s.2-1.4.7-2.1c.5-.8,1.1-1.6,2-2.3.8-.7,1.7-1.3,2.7-1.8,1-.5,2-.7,3-.7s1.4,0,2,.2c.2,0,.4,0,.6.1-.3.6-.7,1.2-.9,1.9-.4,1-.7,1.9-.7,2.7-.1,1.4.7,2,1.1,2.1h0c.3.1.4.2.5.2.1.1.2.3.3.4.2.4.5.6.9.8,0,0,.2,0,.3,0,.3,0,.7-.2,1.2-.5l-.2-1.3s0,0,0,0c0,0,0-.1,0-.4.2-.6.5-1.4,1-2.3.5-.9,1.2-1.8,1.9-2.7.7-.9,1.4-1.5,2.1-2.1h0c.4-.4.2-1,.2-1.3,0-.3-.2-.7-.5-1.1-.2-.4-.5-.8-.8-1.2-.3-.4-.8-.7-1.2-.8h0c0,0-.2,0-.2,0-.2,0-.5,0-.7.2h-.2c-.7.7-1.3,1.4-1.9,2.2l-.3.4c-.5-.7-1-1.3-1.7-1.8-1-.7-2.1-1.1-3.4-1.1h0c-2.1,0-4.1.5-6,1.4-1.9.9-3.5,2.1-4.8,3.6-1.3,1.5-2,3.1-2,4.7s.2,2.8.6,3.8c.4,1,.9,1.9,1.4,2.5.3.3.6.6.9.9-.4.1-.8.3-1.1.4-.7.3-1.5.6-2.4,1.1-.9.4-1.7,1-2.4,1.6-.8.6-1.4,1.4-1.9,2.2-.5.9-.8,1.9-.8,3,0,1.5.2,2.9.7,3.9.5,1.1,1.2,2,2.1,2.6.9.6,1.8,1.1,2.9,1.4,1.1.3,2.2.4,3.4.4s3.1-.3,4.6-1c1.5-.6,2.8-1.4,4.1-2.4.6-.5,1.2-1,1.8-1.5-.1,1.1,0,1.9.3,2.5h0c.4.6,1,1.1,1.7,1.6.7.4,1.3.7,1.8.9h.1c0,0,.2,0,.3,0,.8,0,1.8-.7,3.2-2.3.7-.8,1.5-1.7,2.3-2.8-.2,1.1,0,2,.4,2.6h0c.4.6,1,1.1,1.7,1.5.7.4,1.3.7,1.8.9h0c.1,0,.2,0,.4,0,.8,0,1.8-.7,3.1-2.1,1.2-1.4,2.5-3.1,3.8-5s2.4-3.7,3.3-5.3c.1-.2.2-.4.3-.6h0s3.9-7.3,3.9-7.3c.3.2.5.5.7.9.1.4,0,1.3-.8,2.9-1.1,2-2.1,3.9-2.9,5.7-.8,1.8-1.4,3.5-1.7,4.9-.4,1.6-.3,2.7.2,3.5h0c.5.6,1,1.1,1.7,1.6.7.4,1.3.7,1.8.9h0c.1,0,.2,0,.4,0,.8,0,1.8-.7,3.1-2.1.7-.8,1.5-1.8,2.3-2.8,0,.3.1.7.2,1h0c.2.5.6,1.1,1.3,1.7.6.6,1.3,1.1,2.2,1.6.9.5,1.7.7,2.4.7h0c1.7-.1,3.5-1,5.2-2.5.2-.2.5-.4.7-.6,0,.5.3.9.7,1.3.4.5.9.8,1.4,1.1.5.3,1,.5,1.4.5.2,0,.4,0,.5,0,.7,0,.9-.4.9-.6v-.2c0-.2.4-1.1,2.4-5.6.2-.4.4-.7.7-1,0,0,0,0,.1,0,.2,1,.6,2,1,2.9.6,1.2,1.2,2.3,2,3.1.9.9,1.8,1.4,2.8,1.4s1.9-.5,3.1-1.7c.9-.8,1.8-1.8,2.7-2.9,0,.9.2,1.6.5,2h0c.6.8,1.4,1.4,2.3,1.8,1.2.6,1.7.7,2,.7.7,0,1.3-.3,2.1-1,.7-.6,1.4-1.3,2.1-2.2.2-.2.3-.4.5-.6,0,.5.2.9.4,1.2h0c.4.6,1,1.1,1.7,1.6.7.4,1.3.7,1.8.9h0c.1,0,.2,0,.4,0h0c.8,0,1.8-.7,3.1-2.1,1.2-1.4,2.5-3.1,3.8-5,.7-1.1,1.4-2.2,2-3.1,0,0,0,0,0,.1,0,0,0,.1.2.1.3,0,.5,0,.8.1h0s0,.1,0,.2c0,0,0,.1.1.1,0,0,.2,0,.3,0-.4.7-.9,1.4-1.4,2.2h0s0,0,0,0c0,0-.2,0-.3,0,0,0,0,0,0,0-.2,0-.5.2-.8.3,0,0,0,0,0,0,0,0,0,0,0,0,0,0-.1,0-.2,0h0c0,0-.1,0-.1.2h0c0,0,0,.1,0,.2,0,0,0,0,0,0h.4c.2,0,.3,0,.5,0h0c-1.3,2-2.7,3.8-4,5.2h.1ZM111.8-76.9h0c.1,0,.3.2.5.3,0,0,0,0,0,.1,0,.2.2.3.4.4h0c0,0,0,.2,0,.2,0,0,0,0,.1,0-.2.2-.3.5-.4.8-.9,1.5-1.8,2.9-2.8,4.2-.5.7-1,1.2-1.3,1.5.3-.8.7-1.9,1.3-3.1.7-1.4,1.4-2.9,2.2-4.4h0ZM107.4-81.6c-1.1,2-2.2,4.2-3.1,6.3-1.3,1.8-2.6,3.3-3.8,4.7-1.1,1.2-1.8,1.6-2.1,1.8,0-.2,0-.4.1-.7.2-1,.7-2.2,1.4-3.6.7-1.4,1.5-2.9,2.4-4.3.9-1.4,1.8-2.6,2.6-3.6.9-1.1,1.4-1.3,1.5-1.3.2,0,.4.2.6.4.2.1.3.3.4.4ZM84.9-75.6c-.5.4-1,.6-1.4.7.7-.9,1.5-1.9,2.3-2.9,1.1-1.4,2.2-2.6,3.1-3.6.6-.7,1-1,1.3-1.2,0,.1,0,.3-.2.5-.3,1-1,2.1-1.9,3.3-.9,1.2-2,2.3-3.1,3.1h0ZM68.5-76c.8-1.7,1.7-3.2,2.7-4.4,1.2-1.4,1.8-1.7,2.1-1.8,0,.4-.2.9-.5,1.5-.3.7-.8,1.4-1.3,2.1-.5.7-1.1,1.3-1.6,1.9-.5.5-.9.7-1.3.8h0s0,0-.1,0c0,0,0,0,0,0h0ZM119.4-71.6c-.1,0-.2,0-.3,0h0c0,0,0,0-.1,0,0,0,0,0,0,0-.1,0-.2,0-.3-.1,0,0,0,0,0,0s0,0-.1,0c0,0,0,0,0,0,0,0-.1,0-.2,0h0c0,0-.1,0-.1,0,0,0,0,0,0,0,0,0-.1,0-.2,0h-.2c0,0-.1,0-.1,0,0,0,0,0,0,0,0,0-.2,0-.2,0h0c0,0-.1,0-.2,0,0,0,0,0,0,0-.1,0-.3,0-.4,0,0,0,0,0-.1,0,.4-.6.7-1.1,1-1.7,0,0,0,.1,0,.2.3.1.5.2.8.2,0,0,0,.1.1.2.3.1.7.2.9.3,0,0,0,0,0,.1,0,0,0,0,0,.1,0,0,0,0,0,0h0ZM120.2-74.4c0,0-.2,0-.2.1h0s0,0-.2,0h0c-.1-.2-.3-.5-.5-.6,0,0,0,0-.1,0s0,0,0,0c0,0,0,0,0,0,0,0-.2-.2-.2-.3.2-.4.4-.8.6-1.2,0,.2.2.4.3.5,0,0,0,0,0,0,0,0,0,.1,0,.2.2.5.4.9.6,1.2h0,0ZM123.2-73.7s0,0-.1,0c0-.2.2-.4.3-.6,0,.2,0,.3-.1.5Z"/>
  <image width="7222" height="2142" transform="translate(.5 4.9) scale(0)" xlink:href="Eureka logo-1.png"/>
  <g>
    <path class="st0" d="M29.9,52.6c.6,0,1.1.2,1.4.6.3.4.5.8.5,1.4v1.2c0,.5-.2,1-.6,1.4s-.8.6-1.4.6h-.7v3h-1.2v-8.1h1.9,0ZM30.7,54.6c0-.2,0-.4-.2-.5s-.3-.2-.5-.2h-.7v2.6h.7c.2,0,.4,0,.5-.2s.2-.3.2-.5v-1.2h0Z"/>
    <path class="st0" d="M34.7,52.6c.7,0,1.2.2,1.5.6.3.3.4.8.4,1.4v1.2c0,.6-.2,1.1-.7,1.4l.9,3.5h-1.3l-.7-3h-.8v3h-1.2v-8.1h1.9ZM35.5,54.6c0-.5-.2-.7-.7-.7h-.7v2.6h.7c.2,0,.4,0,.5-.2s.2-.3.2-.5v-1.2h0Z"/>
    <path class="st0" d="M37.9,60.7v-8.1h3.5v1.2h-2.3v2.2h1.6v1.2h-1.6v2.2h2.3v1.2h-3.5Z"/>
    <path class="st0" d="M43.5,60.7h-1.2v-8.1h1.7l1.1,5.8,1.1-5.8h1.7v8.1h-1.2v-5.1l-1.1,5.1h-1l-1.2-5.1v5.1h0Z"/>
    <path class="st0" d="M50.2,60.7h-1.2v-8.1h1.2v8.1Z"/>
    <path class="st0" d="M53.2,60.8c-.5,0-1-.2-1.4-.6s-.6-.8-.6-1.4v-6.3h1.2v6.2c0,.2,0,.4.2.5s.3.2.5.2.4,0,.5-.2.2-.3.2-.5v-6.2h1.3v6.3c0,.5-.2,1-.6,1.4s-.8.6-1.4.6h0Z"/>
    <path class="st0" d="M57.5,60.7h-1.2v-8.1h1.7l1.1,5.8,1.1-5.8h1.7v8.1h-1.2v-5.1l-1.1,5.1h-1l-1.2-5.1v5.1h0Z"/>
    <path class="st0" d="M64.9,53.9h-1.3v-1.2h3.8v1.2h-1.3v6.9h-1.2v-6.9h0Z"/>
    <path class="st0" d="M70.2,52.5c.5,0,1,.2,1.4.6.4.4.6.8.6,1.4v4.4c0,.5-.2,1-.6,1.4-.4.4-.8.6-1.4.6s-1-.2-1.4-.6-.6-.8-.6-1.4v-4.4c0-.5.2-1,.6-1.4.4-.4.8-.6,1.4-.6ZM70.8,54.5c0-.2,0-.4-.2-.5-.1-.1-.3-.2-.5-.2s-.4,0-.5.2c-.1.1-.2.3-.2.5v4.4c0,.2,0,.4.2.5.1.1.3.2.5.2s.4,0,.5-.2c.1-.1.2-.3.2-.5v-4.4Z"/>
    <path class="st0" d="M75.1,52.6c.6,0,1.1.2,1.4.6.3.4.5.8.5,1.4v1.2c0,.5-.2,1-.6,1.4s-.8.6-1.4.6h-.7v3h-1.2v-8.1h1.9,0ZM75.8,54.6c0-.2,0-.4-.2-.5s-.3-.2-.5-.2h-.7v2.6h.7c.2,0,.4,0,.5-.2.1-.1.2-.3.2-.5v-1.2h0Z"/>
    <path class="st0" d="M82.7,58.7c0,.6-.1,1.1-.4,1.4-.2.3-.5.5-.8.6-.2,0-.4,0-.7,0-.5,0-.9-.1-1.2-.4-.3-.2-.5-.5-.6-.8s-.2-.7-.3-1.1h1.2c0,.4.2.7.4.9.2.2.3.2.5.2.3,0,.5-.1.6-.4,0-.1.1-.3.1-.5,0-.3-.2-.7-.5-1-.2-.2-.6-.6-1.1-1-.4-.4-.7-.7-.9-1.1-.2-.4-.3-.7-.3-1.1,0-.7.2-1.3.7-1.7.3-.2.7-.3,1.1-.3s.8,0,1.1.3c.2.2.4.4.6.6s.2.6.3.9l-1.2.2c0-.3-.1-.6-.3-.8-.1-.1-.3-.2-.5-.2s-.4,0-.5.3c0,.2-.1.4-.1.6,0,.4.2.8.5,1.1.1.2.3.3.5.5.3.2.5.4.6.5.3.3.5.6.7.9,0,.1.1.3.2.4.1.3.2.5.2.8h0Z"/>
    <path class="st0" d="M85,57.3v3.4h-1.2v-8.1h1.2v3.4h1.5v-3.4h1.2v8.1h-1.2v-3.4h-1.5Z"/>
    <path class="st0" d="M88.7,60.7v-8.1h3.5v1.2h-2.3v2.2h1.6v1.2h-1.6v2.2h2.3v1.2h-3.5Z"/>
    <path class="st0" d="M96.4,60.7h-3.3v-8.1h1.2v6.9h2.1v1.2Z"/>
    <path class="st0" d="M98.4,60.7h-1.2v-8.1h3.5v1.2h-2.3v2.2h1.6v1.2h-1.6v3.4h0Z"/>
    <path class="st0" d="M103.6,60.7h-1.2v-8.1h1.2v8.1Z"/>
    <path class="st0" d="M106,52.6l1.6,5.4v-5.4h1.2v8.1h-1.3l-1.7-5.2v5.2h-1.2v-8.1h1.4Z"/>
    <path class="st0" d="M113.8,58.8c0,.5-.2,1-.6,1.4-.4.4-.8.6-1.4.6h-1.9v-8.1h1.9c.5,0,1,.2,1.4.6s.6.8.6,1.4v4.2h0ZM111.2,59.5h.7c.2,0,.4,0,.5-.2.1-.1.2-.3.2-.5v-4.2c0-.2,0-.4-.2-.5s-.3-.2-.5-.2h-.7v5.6h0Z"/>
    <path class="st0" d="M116.8,52.5c.5,0,1,.2,1.4.6.4.4.6.8.6,1.4v4.4c0,.5-.2,1-.6,1.4-.4.4-.8.6-1.4.6s-1-.2-1.4-.6-.6-.8-.6-1.4v-4.4c0-.5.2-1,.6-1.4.4-.4.8-.6,1.4-.6ZM117.5,54.5c0-.2,0-.4-.2-.5-.1-.1-.3-.2-.5-.2s-.4,0-.5.2c-.1.1-.2.3-.2.5v4.4c0,.2,0,.4.2.5.1.1.3.2.5.2s.4,0,.5-.2c.1-.1.2-.3.2-.5v-4.4Z"/>
    <path class="st0" d="M121.7,52.5c.5,0,1,.2,1.4.6.4.4.6.8.6,1.4v4.4c0,.5-.2,1-.6,1.4-.4.4-.8.6-1.4.6s-1-.2-1.4-.6-.6-.8-.6-1.4v-4.4c0-.5.2-1,.6-1.4.4-.4.8-.6,1.4-.6ZM122.4,54.5c0-.2,0-.4-.2-.5-.1-.1-.3-.2-.5-.2s-.4,0-.5.2c-.1.1-.2.3-.2.5v4.4c0,.2,0,.4.2.5.1.1.3.2.5.2s.4,0,.5-.2c.1-.1.2-.3.2-.5v-4.4Z"/>
    <path class="st0" d="M126.7,52.6c.7,0,1.2.2,1.5.6.3.3.4.8.4,1.4v1.2c0,.6-.2,1.1-.7,1.4l.9,3.5h-1.3l-.7-3h-.8v3h-1.2v-8.1h1.9ZM127.4,54.6c0-.5-.2-.7-.7-.7h-.7v2.6h.7c.2,0,.4,0,.5-.2.1-.1.2-.3.2-.5v-1.2h0Z"/>
  </g>
</svg>